<?xml version="1.0" encoding="utf-8"?>
<!-- Generator: Adobe Illustrator 27.4.1, SVG Export Plug-In . SVG Version: 6.00 Build 0)  -->
<svg version="1.1" xmlns="http://www.w3.org/2000/svg" xmlns:xlink="http://www.w3.org/1999/xlink" x="0px" y="0px"
	 viewBox="0 0 841.89 450.146" enable-background="new 0 0 841.89 450.146" xml:space="preserve">
<g id="t_shirts">
	<g>
		<path fill="#FFFFFF" d="M485.202,208.643l-0.198-0.013c-35.455-4.727-62.253-38.651-63.376-40.093
			c-0.465-0.597-0.413-1.448,0.123-1.983c8.129-8.124,40.289-57.586,40.613-58.084c23.329-37.963,31.742-45.713,32.089-46.024
			c0.284-0.255,0.643-0.384,1.002-0.384c0.334,0,0.669,0.111,0.944,0.335c12.625,10.235,22.338,41.148,25.928,53.963
			c10.955,39.093-3.009,60.996-3.608,61.909c-0.089,0.135-0.198,0.255-0.325,0.354c-14.915,11.763-31.94,29.385-32.11,29.562
			C485.998,208.479,485.606,208.643,485.202,208.643z"/>
		<path fill="#FFFFFF" d="M760.825,209.178c-0.453,0-0.889-0.205-1.177-0.569c-0.169-0.214-17.062-21.55-27.155-32.274
			c-0.33-0.351-0.472-0.839-0.38-1.312c2.1-10.863,20.854-106.376,32.536-114.813c0.265-0.191,0.572-0.284,0.877-0.284
			c0.434,0,0.863,0.188,1.158,0.546c0.196,0.238,19.898,24.322,40.884,65.656c0.168,0.285,20.921,35.958,24.387,41.315
			c0.395,0.61,0.295,1.416-0.236,1.912c-0.34,0.317-34.371,31.782-70.569,39.79C761.041,209.166,760.933,209.178,760.825,209.178z"
			/>
		<path fill="#FFFFFF" d="M633.249,431.882c-69.151-0.001-112.665-8.663-113.097-8.751c-0.694-0.141-1.195-0.747-1.202-1.455
			l-2.344-238.249c-1.64-5.86-4.66-21.544-5.063-23.651c-10.219-20.183-17.285-93.385-17.582-96.501
			c-0.051-0.536,0.189-1.057,0.628-1.368c10.95-7.729,38.945-17.209,40.131-17.609l0.142-0.04
			c2.886-0.666,15.504-7.862,23.281-12.536l0.102-0.056c14.325-7.164,23.859-16.813,23.954-16.91
			c0.285-0.291,0.673-0.451,1.072-0.451l0.246,0.02c14.151,2.354,28.477,3.547,42.58,3.547c26.371-0.001,43.17-4.224,43.337-4.267
			c0.121-0.031,0.246-0.047,0.372-0.047c0.544,0,1.106,0,12.707,7.955c12.537,9.712,49.564,21.91,49.936,22.032
			c25.267,6.852,34.244,16.462,34.613,16.868c0.198,0.217,0.327,0.486,0.373,0.776c1.303,8.237-11.803,49.058-13.302,53.686
			c-13.944,38.555-17.865,61.962-18.094,63.373c-0.188,4.683,4.528,162.312,7.057,245.29c0.023,0.774-0.545,1.438-1.313,1.534
			c-36.234,4.52-72.749,6.81-108.524,6.81H633.249z"/>
		<path fill="#FFFFFF" d="M78.739,206.286l-0.198-0.013c-35.389-4.72-66.071-37.949-67.359-39.361
			c-0.553-0.606-0.517-1.543,0.081-2.104c5.429-5.099,23.417-38.721,32.169-55.787c17.012-37.429,27.511-46.27,27.95-46.628
			c0.276-0.225,0.612-0.338,0.949-0.338c0.334,0,0.669,0.111,0.945,0.335c12.618,10.23,22.333,41.145,25.924,53.962
			c10.874,38.801,6.824,58.451,6.646,59.268c-0.038,0.175-0.107,0.342-0.205,0.493c-10.037,15.588-25.747,29.653-25.904,29.793
			C79.46,206.152,79.105,206.286,78.739,206.286z"/>
		<path fill="#FFFFFF" d="M336.098,207.248c-0.466,0-0.913-0.217-1.2-0.6c-8.387-11.183-22.621-28.378-27.457-29.917
			c-0.725-0.23-1.163-0.967-1.018-1.713c2.012-10.426,19.999-102.105,31.682-110.542c0.265-0.191,0.572-0.284,0.877-0.284
			c0.434,0,0.863,0.188,1.158,0.546c0.197,0.238,19.88,24.3,40.855,65.601c7.7,12.465,20.482,32.731,22.107,34.213
			c0.295,0.27,0.486,0.66,0.503,1.06c0.016,0.4-0.113,0.803-0.385,1.096c-0.301,0.324-30.544,32.483-66.797,40.504
			C336.314,207.236,336.206,207.248,336.098,207.248z"/>
		<path fill="#FFFFFF" d="M208.36,64.631c-8.487,0-17.807-1.699-27.701-5.05c-0.145-0.049-0.283-0.121-0.407-0.212
			c-1.279-0.939-31.175-23.192-18.605-40.859c0.288-0.404,0.748-0.63,1.223-0.63c0.177,0,0.356,0.031,0.529,0.097
			c0.169,0.064,17.175,6.375,40.122,6.375c15.542,0,30.19-2.839,43.54-8.438c0.117-0.049,0.241-0.084,0.367-0.102l0.291-0.019
			c0.704,0,2.114,0.28,3.648,2.157l0.083,0.112c0.922,1.369,5.528,8.363,5.702,11.656c0.009,0.17-0.011,0.341-0.06,0.505
			C256.99,30.566,246.464,64.631,208.36,64.631z"/>
		<path fill="#FFFFFF" d="M214.864,429.649c-38.521,0-77.913-2.477-117.08-7.361c-0.767-0.096-1.336-0.758-1.314-1.53
			c2.316-83.277,6.637-241.724,6.414-245.335c-0.045-0.454-4.939-48.303-19.017-71.455l-0.087-0.167
			c-1.462-3.268-14.245-32.161-12.931-40.48c0.033-0.207,0.108-0.405,0.222-0.581c0.396-0.612,9.988-15.065,35.411-21.981
			c1.922-0.725,43.25-16.338,52.67-22.072c0.126-0.077,0.264-0.135,0.408-0.172c0.746-0.191,2.561-0.635,3.31-0.635
			c0.499,0,0.965,0.248,1.244,0.661c0.279,0.414,0.334,0.938,0.147,1.401c-0.224,0.57-5.327,14.267,13.789,29.018
			c0.131,0.104,11.582,9.026,29.087,9.026c0.705,0,1.419-0.014,2.143-0.043l0.351,0.001c1.69,0,16.857-0.3,28.688-10.688
			c10.011-8.788,13.529-18.177,10.456-27.906c-0.182-0.576,0-1.205,0.46-1.596c0.277-0.235,0.622-0.356,0.971-0.356
			c0.231,0,0.464,0.054,0.679,0.163c0.195,0.099,19.541,9.938,28.49,15.04c1.608,0.617,20.822,7.98,24.69,8.872l0.115,0.031
			c1.054,0.333,25.934,8.343,36.046,23.348c0.223,0.331,0.305,0.736,0.228,1.127c-0.381,1.941-9.419,47.702-19.632,67.592
			c-0.634,1.972-9.185,28.887-9.185,44.293l8.978,243.2c0.027,0.748-0.5,1.401-1.236,1.532
			C318.983,422.667,279.005,429.649,214.864,429.649z"/>
		<path fill="#FFFFFF" d="M206.336,74.843c-9.739,0-19.055-2.422-27.688-7.199c-1.257-0.703-30.631-17.444-28.331-43.748
			c0.039-0.451,0.28-0.86,0.656-1.113c0.753-0.507,7.47-4.957,11.303-4.957c0.313,0,0.612,0.028,0.888,0.083
			c0.42,0.084,0.783,0.343,0.999,0.712c0.216,0.369,0.265,0.813,0.133,1.22c-0.197,0.624-4.651,15.541,13.727,29.099
			c0.082,0.052,14.189,9.31,30.468,9.31c4.702,0,9.18-0.774,13.31-2.3l0.131-0.042c1.081-0.291,26.442-7.4,27.888-32.31
			c-0.187-1.395-0.788-3.825-1.687-4.813c-0.474-0.52-0.522-1.3-0.116-1.875c0.288-0.408,0.75-0.634,1.225-0.634
			c0.195,0,0.392,0.038,0.581,0.117c0.336,0.141,8.285,3.499,11.64,6.519c0.204,0.184,0.354,0.42,0.433,0.683
			c0.254,0.845,5.931,20.933-20.078,40.726C241.142,64.79,226.336,74.843,206.336,74.843z"/>
	</g>
</g>
<g id="front_body_colour">
	<path fill="#F8F8F9" stroke="#1A171B" stroke-miterlimit="10" d="M69.367,63.087l16.739-13.696l64.868-26.608
		c-2.285,56.929,106.18,76.694,111.258,2.313l12.774,5.08c22.931,10.035,53.189,15.383,65.449,35.803
		c-5.129,24.125-10.424,45.561-16.165,59.794l-7.955,23.546c-3.444,11.54-5.428,24.102-4.319,38.828l4.533,129.87l4.065,103.047
		c-22.596,5.874-55.282,7.609-90.161,8.445c-41.827,0.403-86.427-2.447-132.67-7.222l-1.924-7.615l2.736-67.572l3.065-118.204
		l1.634-51.952c-1.729-21.807-5.882-41.119-12.481-57.912C81.476,100.209,74.157,81.547,69.367,63.087z"/>
	<path fill="#F8F8F9" stroke="#1A171B" stroke-miterlimit="10" d="M689.842,26.489l25.835,10.871
		c22.931,10.035,34.871,8.188,51.758,23.83c-3.201,25.156-12.559,54.549-18.3,68.781l-8.188,25.271
		c-3.444,11.54-6.051,20.568-4.941,35.294l2.763,130.213l4.065,103.047c-22.596,5.874-55.282,7.609-90.161,8.445
		c-41.827,0.403-86.427-2.447-132.67-7.222l-1.924-7.615l-0.34-68.028l-0.746-126.654l-0.387-39.293
		c-3.094-16.045-4.901-23.021-9.729-37.786c-9.338-18.823-8.127-63.907-12.917-82.367l15.74-9.116
		c29.359-10.904,51.059-21.637,64.659-32.188l16.235,2.824c27.378,5.514,56.508,5.788,89.223-4.659L689.842,26.489z"/>
</g>
<g id="colar_colour">
	<path fill="#B3B5B8" stroke="#970000" stroke-miterlimit="10" d="M150.974,22.783c4.912-2.875,9.325-4.924,12.426-4.807
		l1.583,13.74c17.098,37.229,83.072,34.415,84.701-8.933l-1.181-6.884l10.714,5.332l3.014,3.865
		c-4.212,65.989-97.377,62.428-111.258,8.909V22.783z"/>
	<path fill="#B3B5B8" stroke="#970000" stroke-miterlimit="10" d="M165.458,17.863c24.412,10.109,50.935,11.841,81.335-1.818
		l2.891,6.738c-28.129,10.069-56.877,10.105-86.177,1.221L165.458,17.863z"/>
	<path fill="#B3B5B8" stroke="#970000" stroke-miterlimit="10" d="M583.301,14.207c29.253,4.878,58.18,5.675,86.588,0l8.847,5.082
		c-32.243,12.495-66.67,11.535-102.394,2.573c0,0-0.836-0.537-1.041-0.973S583.301,14.207,583.301,14.207z"/>
</g>
<g id="shoulder">
	<path fill="#B3B5B8" stroke="#1A171B" stroke-miterlimit="10" d="M78.739,206.286c-16.102-2.974-31.365-10.205-46.026-20.503
		c-9.989-5.876-16.801-13.001-21.451-20.976c9.511-12.219,22.693-36.073,38.204-67.306c6.339-14.293,13.456-25.724,21.383-34.18
		c3.337,16.555,8.293,31.303,14.947,44.156c9.036,21.154,16.547,43.253,17.129,69.647l-4.054,8.354L78.739,206.286z"/>
	<path fill="#B3B5B8" stroke="#1A171B" stroke-miterlimit="10" d="M340.455,65.979c7.154,8.359,14.231,18.553,21.256,29.994
		l15.44,26.956c5.169,10.392,12.295,22.005,21.066,34.646l5.389,8.819c-19.111,19.7-41.254,34.376-68.708,40.253
		c-6.701-9.74-14.333-18.708-23.009-26.809l-1.702-4.057l11.171-43.281l6.836-17.764C333.048,100.17,337.039,83.706,340.455,65.979z
		"/>
	<path fill="#B3B5B8" stroke="#1A171B" stroke-miterlimit="10" d="M494.525,65.595l9.936,70.718l7.245,24.093l2.869,21.762
		l-27.212,27.056c0,0-8.314-2.357-9.092-1.855c-7.424,4.788-62.177-35.299-56.643-38.833l21.132-30.609l35.882-53.979l13.376-18.918
		l3.435-1.897l-1.5,2.846"/>
	<path fill="#B3B5B8" stroke="#1A171B" stroke-width="0.25" stroke-miterlimit="10" d="M736.711,181.905l22.938,26.704l9.369-1.24
		c24.719-9.354,45.907-21.777,62.701-38.017l-24.15-43.227c-11.992-24.055-24.968-45.701-39.515-63.496
		c-4.017,22.208-9.136,42.563-16.659,58.87l-13.694,49.694l-1.661,7.053L736.711,181.905z"/>
</g>
<g id="layout">
	<path d="M513.621,183.011l-0.12-0.007c-5.392-0.674-16.571-16.154-17.829-17.917c-0.308-0.432-0.207-1.033,0.225-1.341
		c0.434-0.309,1.031-0.208,1.342,0.225c4.56,6.393,13.071,16.696,16.501,17.125c0.527,0.066,0.9,0.546,0.835,1.073
		C514.514,182.655,514.099,183.011,513.621,183.011z"/>
	<path d="M511.168,160.571c-0.309,0-0.612-0.148-0.798-0.423c-11.512-17.052-22.853-70.089-23.33-72.339
		c-0.11-0.52,0.222-1.03,0.741-1.14c0.518-0.109,1.029,0.221,1.14,0.741c0.116,0.547,11.74,54.92,23.043,71.662
		c0.297,0.44,0.182,1.038-0.259,1.335C511.54,160.518,511.352,160.571,511.168,160.571z"/>
	<path d="M537.124,43.595c0,0,20.936-2.138,28.2-10.257c0,0-18.373,6.41-22.22,6.41L537.124,43.595z"/>
	<path d="M735.938,183.438c-0.295,0-0.586-0.135-0.774-0.39c-5.632-7.621-1.321-31.159-1.135-32.157
		c0.097-0.522,0.591-0.865,1.122-0.769c0.521,0.098,0.866,0.6,0.768,1.122c-0.044,0.236-4.347,23.71,0.791,30.662
		c0.315,0.427,0.225,1.029-0.202,1.345C736.337,183.377,736.137,183.438,735.938,183.438z"/>
	<path d="M516.999,188.071c-0.15,0-0.303-0.036-0.445-0.11c-0.47-0.246-0.651-0.827-0.405-1.297
		c4.514-8.62,0.825-47.294,0.787-47.684c-0.051-0.528,0.336-0.999,0.864-1.05c0.522-0.043,0.999,0.335,1.05,0.864
		c0.156,1.614,3.779,39.638-0.998,48.761C517.68,187.883,517.346,188.071,516.999,188.071z"/>
	<path d="M516.185,213.349l-0.178-0.016c-0.522-0.098-0.866-0.6-0.769-1.122l7.264-38.885c0.099-0.522,0.601-0.861,1.122-0.768
		c0.521,0.098,0.866,0.6,0.769,1.122l-7.264,38.885C517.043,213.026,516.64,213.349,516.185,213.349z"/>
	<path d="M312.704,182.148c-0.531,0-0.961-0.43-0.961-0.961c0-4.415,7.45-22.263,7.768-23.02c0.205-0.49,0.767-0.722,1.258-0.516
		c0.49,0.205,0.721,0.768,0.516,1.258c-2.119,5.062-7.618,18.932-7.618,22.278C313.665,181.718,313.235,182.148,312.704,182.148z"/>
	<path d="M102.332,181.571c-0.467,0-0.876-0.34-0.949-0.815c-0.817-5.312-10.341-21.567-10.437-21.73
		c-0.269-0.458-0.116-1.047,0.342-1.316c0.458-0.268,1.047-0.116,1.316,0.342c0.4,0.681,9.806,16.738,10.679,22.413
		c0.081,0.524-0.279,1.016-0.804,1.096L102.332,181.571z"/>
	<path d="M81.5,204.238c-0.102,0-0.206-0.017-0.307-0.051c-35.277-11.899-65.741-42.595-66.045-42.903
		c-0.372-0.378-0.367-0.987,0.011-1.36c0.379-0.371,0.987-0.368,1.36,0.011c0.3,0.306,30.454,30.68,65.288,42.43
		c0.503,0.17,0.773,0.715,0.604,1.218C82.276,203.984,81.901,204.238,81.5,204.238z"/>
	<path d="M332.334,203.404c-0.371,0-0.725-0.216-0.882-0.578c-0.212-0.487,0.011-1.054,0.498-1.266
		c0.545-0.237,54.624-23.919,67.14-41.863c0.304-0.434,0.902-0.542,1.339-0.238c0.436,0.304,0.542,0.903,0.238,1.339
		c-12.827,18.387-65.705,41.549-67.949,42.526C332.592,203.378,332.462,203.404,332.334,203.404z"/>
	<path d="M244.544,70.617c-0.389,0-0.755-0.238-0.9-0.625c-0.187-0.497,0.065-1.051,0.563-1.238
		c19.836-7.439,27.546-32.456,27.622-32.708c0.153-0.509,0.69-0.798,1.197-0.645c0.509,0.153,0.797,0.688,0.645,1.197
		c-0.32,1.066-8.068,26.185-28.789,33.956C244.771,70.597,244.657,70.617,244.544,70.617z"/>
	<path d="M99.835,296.738l-0.224-0.026c-0.517-0.123-0.835-0.642-0.713-1.158c4.734-19.886,12.947-132.47,13.03-133.605
		c0.038-0.53,0.495-0.939,1.029-0.889c0.529,0.039,0.928,0.499,0.889,1.029c-0.337,4.64-8.307,113.874-13.077,133.911
		C100.664,296.44,100.27,296.738,99.835,296.738z"/>
	<path d="M98.626,359.863l-0.143-0.011c-0.525-0.079-0.887-0.568-0.809-1.094l24.837-166.117c0.078-0.525,0.557-0.884,1.093-0.809
		c0.525,0.079,0.887,0.568,0.809,1.093L99.576,359.043C99.504,359.52,99.094,359.863,98.626,359.863z"/>
	<path d="M315.373,285.991c-0.497,0-0.919-0.384-0.957-0.888c-0.944-12.258-24.349-92.205-24.585-93.011
		c-0.149-0.51,0.142-1.044,0.652-1.193c0.509-0.151,1.044,0.143,1.193,0.652c0.967,3.299,23.697,80.947,24.656,93.404
		c0.041,0.53-0.355,0.992-0.885,1.033L315.373,285.991z"/>
	<path d="M101.72,165.068c-0.439,0-0.835-0.303-0.937-0.749c-4.709-20.713-35.102-61.721-35.409-62.132
		c-0.317-0.426-0.229-1.028,0.197-1.346c0.426-0.316,1.028-0.228,1.346,0.197c1.261,1.695,30.942,41.746,35.741,62.854
		c0.118,0.518-0.207,1.033-0.724,1.151L101.72,165.068z"/>
	<path d="M315.054,154.587c-0.125,0-0.252-0.025-0.374-0.076c-0.489-0.207-0.718-0.772-0.511-1.26
		c7.037-16.633,26.271-37.256,26.465-37.462c0.364-0.387,0.972-0.407,1.359-0.044c0.387,0.363,0.407,0.972,0.044,1.359
		c-0.191,0.204-19.195,20.581-26.097,36.896C315.785,154.367,315.428,154.587,315.054,154.587z"/>
	<path d="M737.538,179.913c-0.269,0-0.536-0.112-0.726-0.331c-0.349-0.401-0.306-1.008,0.095-1.356
		c0.194-0.169,19.505-16.979,23.867-23.527c0.292-0.441,0.89-0.562,1.333-0.267c0.441,0.294,0.562,0.892,0.267,1.333
		c-4.504,6.761-23.403,23.215-24.205,23.912C737.986,179.835,737.762,179.913,737.538,179.913z"/>
	<path d="M488.834,207.369l-0.245-0.032c-34.113-8.956-62.629-46.555-62.913-46.934c-0.318-0.425-0.232-1.027,0.192-1.346
		c0.426-0.32,1.028-0.232,1.347,0.192c0.279,0.374,28.403,37.444,61.862,46.228c0.514,0.135,0.82,0.661,0.686,1.174
		C489.649,207.083,489.26,207.369,488.834,207.369z"/>
	<path d="M757.197,207.369c-0.353,0-0.692-0.195-0.861-0.532c-0.237-0.475-0.045-1.053,0.431-1.29
		c0.63-0.315,63.174-31.662,72.34-42.495c0.344-0.406,0.95-0.456,1.355-0.113c0.405,0.343,0.456,0.95,0.113,1.355
		c-9.42,11.132-70.359,41.677-72.949,42.972C757.488,207.336,757.342,207.369,757.197,207.369z"/>
	<path d="M736.578,177.028c-0.262,0-0.522-0.106-0.712-0.316c-0.357-0.393-0.327-1.001,0.065-1.358
		c16.92-15.354,33.219-65.738,33.381-66.245c0.162-0.505,0.7-0.785,1.21-0.622c0.505,0.162,0.784,0.704,0.622,1.209
		c-0.671,2.091-16.623,51.385-33.92,67.082C737.04,176.945,736.809,177.028,736.578,177.028z"/>
	<path d="M485.202,207.143c-35.255-4.701-62.392-39.528-62.392-39.528c8.335-8.33,40.811-58.329,40.811-58.329
		c18.891-30.74,27.973-41.597,30.813-44.678c-0.229-1.413,0.162-2.888,0.952-4.041c-0.696,0.016-1.386,0.267-1.936,0.761
		c-0.354,0.317-8.919,8.206-32.365,46.354c-0.962,1.479-32.46,49.879-40.395,57.81c-1.071,1.071-1.177,2.771-0.246,3.966
		c1.139,1.462,28.305,35.851,64.361,40.658c0.133,0.018,0.265,0.026,0.396,0.026c0.81,0,1.591-0.328,2.16-0.918
		c0.157-0.163,14.598-15.107,28.479-26.606c-0.767-0.711-1.248-1.671-1.448-2.696C500.078,191.708,485.202,207.143,485.202,207.143z
		"/>
	<path d="M833.214,166.626c-3.371-5.21-23.283-39.426-24.348-41.255c-18.616-36.653-36.225-59.779-40.182-64.799
		c-0.026,0.745-0.235,1.528-0.69,2.324c-0.184,0.321-0.363,0.644-0.545,0.966c5.406,7.007,21.554,29.012,38.781,62.944
		c0,0,20.939,36.002,24.465,41.451c0,0-33.653,31.41-69.87,39.422c0,0-14.16-17.902-24.428-29.309
		c-0.158,1.097-0.632,2.138-1.424,2.907c10.019,11.239,23.348,28.073,23.499,28.263c0.576,0.729,1.447,1.139,2.353,1.139
		c0.215,0,0.433-0.023,0.648-0.071c36.596-8.097,69.87-38.853,71.269-40.158C833.805,169.457,834.004,167.846,833.214,166.626z"/>
	<path d="M404.133,163.461c-1.712-1.81-12.492-18.743-21.83-33.859c-21.037-41.41-40.809-65.581-41.006-65.82
		c-0.591-0.717-1.449-1.092-2.317-1.092c-0.05,0-0.1,0.009-0.151,0.012c0.568,1.05,0.759,2.313,0.571,3.506
		c2.906,3.629,20.918,26.718,40.285,64.864c0,0,20.191,32.689,22.435,34.613c0,0-29.806,32.048-66.023,40.062
		c0,0-15.186-20.247-24.112-27.793c0.021,1.122-0.281,2.25-0.908,3.161c5.661,5.174,14.907,16.147,22.621,26.431
		c0.574,0.765,1.468,1.2,2.4,1.2c0.215,0,0.432-0.023,0.648-0.071c36.706-8.122,66.328-39.611,67.571-40.948
		c0.556-0.598,0.845-1.397,0.798-2.212C405.071,164.728,404.717,163.99,404.133,163.461z"/>
	<path d="M103.186,180.9c-0.06-0.443-0.119-0.886-0.179-1.329c-0.026-0.688,0.118-1.331,0.431-1.926
		c0.102-0.314,0.243-0.606,0.418-0.878c-0.079-0.104-0.165-0.202-0.235-0.312c-10.049,15.121-24.882,28.331-24.882,28.331
		C43.485,200.084,12.29,165.9,12.29,165.9c7.053-6.624,32.477-56.195,32.477-56.195c15.219-33.48,25.18-43.918,27.184-45.807
		c0.097-1.182,0.562-2.326,1.385-3.169c-0.325-0.115-0.664-0.174-1.005-0.174c-0.673,0-1.345,0.225-1.897,0.676
		c-0.45,0.367-11.199,9.413-28.369,47.168c-10.128,19.744-26.938,50.721-31.829,55.315c-1.196,1.123-1.268,2.998-0.162,4.209
		c1.304,1.429,32.345,35.046,68.269,39.837c0.132,0.018,0.265,0.026,0.397,0.026c0.731,0,1.442-0.267,1.995-0.759
		c0.581-0.517,12.949-11.597,22.815-25.214C103.404,181.523,103.277,181.222,103.186,180.9z"/>
	<path d="M630.553,30.159c-28.756,0-54.505-6.372-56.191-6.797c-0.804-0.203-1.29-1.019-1.087-1.822
		c0.203-0.802,1.019-1.288,1.821-1.087c0.646,0.163,65.058,16.094,103.797-2.146c0.748-0.353,1.643-0.032,1.996,0.718
		c0.353,0.75,0.031,1.644-0.719,1.996C665.454,27.95,647.481,30.159,630.553,30.159z"/>
	<path d="M204.856,31.716c-23.832,0-40.424-6.881-40.678-6.99c-0.561-0.238-0.821-0.886-0.583-1.446
		c0.237-0.561,0.884-0.822,1.446-0.584c0.384,0.165,39.004,16.145,82.973-1.387c0.569-0.225,1.208,0.051,1.433,0.616
		c0.226,0.566-0.05,1.208-0.616,1.433C233.006,29.668,217.853,31.716,204.856,31.716z"/>
	<path d="M249.526,14.79c-0.175,0-0.913-0.347-1.072-0.325c-0.253,0.036-1.812,0.212-2.047,0.31
		c-13.164,5.522-27.545,8.076-42.886,8.076c-22.712,0-39.425-6.215-39.591-6.278c-0.347-0.131-0.706-0.194-1.06-0.194l-0.001,3.001
		c0,0,17.129,6.472,40.651,6.472c13.308,0,28.66-2.07,44.12-8.555l0.077-0.004c0.277,0,1.268,0.115,2.487,1.606L249.526,14.79z"/>
	<path d="M250.205,18.899c0,0,19.55,9.936,28.525,15.062c0,0,20.83,8.013,24.997,8.974c0,0,25.319,8.013,35.255,22.756
		c0,0-9.294,47.434-19.55,67.304c0,0-9.295,28.524-9.295,44.87l8.979,243.256c0,0-39.501,7.028-104.252,7.028
		c-33.026,0-72.619-1.828-116.894-7.35c0,0,6.729-241.973,6.41-245.498c0,0-4.808-48.394-19.23-72.113
		c0,0-14.101-31.514-12.818-39.633c0,0,9.4-14.53,34.613-21.368c0,0,43.16-16.237,52.988-22.219c0,0,2.297-0.588,2.938-0.588
		c0,0-6.089,15.063,14.264,30.768c0,0,11.713,9.339,30.004,9.339c0.725,0,1.459-0.015,2.205-0.045c0,0,0.1,0.003,0.289,0.003
		c2.275,0,17.547-0.409,29.677-11.061C247.373,41.304,254.151,31.393,250.205,18.899z M250.206,15.899
		c-0.697,0-1.387,0.242-1.941,0.712c-0.922,0.781-1.285,2.039-0.921,3.192c2.918,9.237-0.358,17.849-10.015,26.326
		c-11.418,10.026-26.065,10.316-27.698,10.316c-0.121,0-0.192-0.001-0.209-0.002l-0.079-0.001l-0.123,0.003
		c-0.691,0.028-1.391,0.042-2.082,0.042c-17.044,0-28.025-8.598-28.134-8.685c-18.157-14.011-13.547-26.787-13.342-27.324
		c0.374-0.925,0.259-1.962-0.299-2.788c-0.558-0.827-1.495-1.31-2.493-1.31c-0.676,0-1.915,0.229-3.682,0.682
		c-0.288,0.073-0.562,0.189-0.816,0.344c-9.214,5.609-49.721,20.931-52.353,21.924C80.098,46.403,70.22,61.293,69.812,61.925
		c-0.228,0.352-0.379,0.748-0.444,1.162c-1.353,8.565,10.628,35.928,13.043,41.326c0.051,0.115,0.11,0.226,0.175,0.333
		c13.667,22.476,18.597,68.797,18.802,70.789c0.171,5.27-4.119,162.547-6.417,245.181c-0.043,1.544,1.095,2.869,2.628,3.06
		c39.228,4.893,78.682,7.373,117.265,7.373c64.272,0,104.38-7.004,104.778-7.075c1.473-0.262,2.528-1.568,2.473-3.064
		l-8.977-243.199c0.02-14.941,8.217-40.98,9.076-43.664c10.286-20.138,19.332-65.933,19.713-67.879
		c0.153-0.782-0.011-1.592-0.456-2.253c-10.401-15.434-35.763-23.599-36.837-23.94l-0.231-0.063
		c-3.21-0.741-18.482-6.502-24.383-8.769c-9.015-5.132-27.66-14.614-28.455-15.018C251.134,16.006,250.668,15.899,250.206,15.899z"
		/>
	<path d="M669.806,15.06c0.642,0,11.858,7.692,11.858,7.692c12.819,9.934,50.318,22.22,50.318,22.22
		c25.21,6.838,33.972,16.453,33.972,16.453c1.284,8.12-13.247,52.989-13.247,52.989c-14.529,40.169-18.16,63.671-18.16,63.671
		c-0.322,3.525,7.051,245.499,7.051,245.499c-40.522,5.054-77.115,6.799-108.349,6.799c-69.801,0-112.799-8.721-112.799-8.721
		l-2.346-238.449c-1.708-5.983-5.129-23.929-5.129-23.929c-10.257-19.873-17.521-96.151-17.521-96.151
		c10.897-7.691,39.745-17.414,39.745-17.414c4.165-0.961,23.716-12.712,23.716-12.712c14.742-7.372,24.356-17.202,24.356-17.202
		c15.976,2.657,30.465,3.567,42.826,3.567C653,19.373,669.806,15.06,669.806,15.06z M669.806,12.06
		c-0.251,0-0.501,0.032-0.744,0.094c-0.165,0.042-16.817,4.22-42.965,4.22c-14.021,0-28.265-1.187-42.334-3.527
		c-0.164-0.027-0.329-0.04-0.492-0.04c-0.801,0-1.575,0.32-2.145,0.902c-0.092,0.094-9.476,9.577-23.553,16.617l-0.204,0.112
		c-7.949,4.778-20.292,11.771-22.845,12.36c-0.096,0.023-0.19,0.049-0.283,0.081c-1.195,0.402-29.391,9.952-40.517,17.805
		c-0.88,0.621-1.359,1.665-1.257,2.735c0.297,3.118,7.347,76.133,17.641,96.845c0.525,2.737,3.378,17.479,5,23.377l2.342,238.052
		c0.014,1.416,1.016,2.63,2.403,2.911c0.434,0.088,44.096,8.78,113.396,8.78c35.845,0,72.424-2.295,108.72-6.822
		c1.536-0.191,2.675-1.521,2.628-3.068c-2.508-82.284-7.186-238.615-7.06-245.105c0.349-2.111,4.359-25.266,17.991-62.953
		l0.033-0.096c2.463-7.607,14.685-45.979,13.356-54.382c-0.091-0.579-0.351-1.119-0.745-1.552
		c-0.382-0.419-9.63-10.321-35.326-17.306c-1.828-0.604-37.339-12.415-49.344-21.717l-0.142-0.103
		C671.377,12.06,670.885,12.06,669.806,12.06z"/>
	<path d="M249.244,17.776c0,0,8.013,3.366,11.217,6.251c0,0,5.93,19.709-19.55,39.1c0,0-14.812,10.216-34.575,10.216
		c-8.352,0-17.584-1.823-26.962-7.012c0,0-29.805-16.665-27.563-42.304c0,0,6.98-4.701,10.465-4.702c0.211,0,0.41,0.018,0.593,0.054
		c0,0-5.288,16.345,14.264,30.768c0,0,14.404,9.603,31.358,9.603c4.504,0,9.188-0.677,13.83-2.393c0,0,27.564-7.371,29.005-33.811
		C251.326,23.546,250.847,19.539,249.244,17.776z M249.245,14.776c-0.951,0-1.875,0.454-2.451,1.269
		c-0.812,1.15-0.716,2.709,0.231,3.75c0.557,0.612,1.1,2.57,1.29,3.863c-0.612,9.834-5.2,17.964-13.641,24.169
		c-6.546,4.812-13.067,6.616-13.133,6.633l-0.26,0.083c-3.963,1.465-8.266,2.207-12.79,2.207c-15.308,0-28.703-8.459-29.645-9.067
		c-17.53-12.977-13.169-27.237-13.123-27.38c0.263-0.814,0.167-1.702-0.266-2.44c-0.433-0.738-1.16-1.256-1.999-1.424
		c-0.373-0.075-0.771-0.113-1.183-0.113c-4.189,0-10.848,4.343-12.141,5.213c-0.751,0.506-1.234,1.325-1.313,2.227
		c-2.384,27.259,27.802,44.465,29.088,45.184c8.87,4.908,18.43,7.393,28.426,7.393c20.462,0,35.642-10.308,36.278-10.747
		l0.114-0.082c26.827-20.416,20.873-41.465,20.605-42.351c-0.158-0.526-0.457-0.998-0.865-1.365
		c-3.482-3.134-11.195-6.423-12.062-6.787C250.029,14.852,249.634,14.776,249.245,14.776z"/>
</g>
</svg>
