<?xml version="1.0" encoding="utf-8"?>
<!-- Generator: Adobe Illustrator 27.5.0, SVG Export Plug-In . SVG Version: 6.00 Build 0)  -->
<svg version="1.1" xmlns="http://www.w3.org/2000/svg" xmlns:xlink="http://www.w3.org/1999/xlink" x="0px" y="0px"
	 viewBox="0 0 2128 1024" style="enable-background:new 0 0 2128 1024;" xml:space="preserve">
<style type="text/css">
	.st0{fill:#4D4D4D;stroke:#000000;stroke-width:2;stroke-miterlimit:10;}
	.st1{fill:none;stroke:#000000;stroke-miterlimit:10;}
	.st2{fill:#1A1A1A;stroke:#000000;stroke-width:3;stroke-miterlimit:10;}
	.st3{fill:#4D4D4D;stroke:#000000;stroke-width:3;stroke-miterlimit:10;}
	.st4{fill:#E6E6E6;stroke:#000000;stroke-miterlimit:10;}
	.st5{fill:none;stroke:#000000;stroke-width:3;stroke-miterlimit:10;}
	.st6{fill:#FFFFFF;stroke:#000000;stroke-miterlimit:10;}
	.st7{stroke:#000000;stroke-miterlimit:10;}
	.st8{fill:none;}
	.st9{fill-rule:evenodd;clip-rule:evenodd;fill:#231F20;}
	.st10{fill:#00FF00;stroke:#000000;stroke-miterlimit:10;}
</style>
<g id="Dummys">
	<path id="DUMMY" class="st0" d="M250,194l1,60c-2.75,9.05-7.69,14.95-16,16c-16.74,4.17-31.33,15.57-45,30c0,0-21.9,13.95-27,14
		c-32.21,0.29-61,50-62,61c0,0-1,56-2,64s-4,24-7,29s-9,67-13,71c-8.88,8.88-34,73-47,192c0,0-14,47-15,50s34,17,38,22s6,7,6,7
		s-2-7,0-18s25-54,25-54s50-84,51-94s6-28,6-42s4-25,4-25l29-72c0,0,9,22,12,26s3,43,4,52s0,48-5,57s-4,28-4,28l5,31l-4,31
		c-7.86,4.41-10.05,20-8,44c-17.27,77.68-26.45,137-28,179c0,0,129,63,129,61s18-113,18-113c12.91,7.51,25.64,9.42,38,0
		l15.53,113.05L477,959c-7.1-64.13-16.83-126.42-29-187c1.04-20.73-1.52-35.34-7-45l-2.97-34c6.32-22.7,4.71-43.48-2.03-63
		c-4.73-19.94-5.96-36.74-1-48l1-50c6.57-7.74,10.41-17.88,12-30c8.48,27.79,19.25,53.71,32,78c0,0,5,9,5,11s-2,20,0,27.5
		s8,34.5,11,41.5s64,104,65,117s5,27,5,27l39-34c-8.8-16.26-13.83-50.12-18-88c-6.8-50.55-18.76-91.36-34-126l-14-28
		c3.38-33.58-0.08-61.92-13-83v-60c-3.47-20.09-13.87-38.17-32-54c-10.46-9.45-29.21-18.4-54-27l-10-7
		c-11.99-18.16-28.65-24.46-46-29l-11-19v-57l7-99c-7.34-37.29-28.46-58.59-65-62c-43.01,1.91-65.08,27.01-71,70L250,194z"/>
	<path class="st1" d="M249.96,194.43c15.15,25.68,30.92,50.45,64.04,49.57c25.5,0.5,37.84-20.28,59.5-51.5"/>
	<path class="st2" d="M403.5,791.5c-23.17,27.64-46.68,64.45-70.5,109.5c-11.7,11.93-24.5,10.34-38,0
		c-20.08-41.59-40.61-74.83-61.5-101.5L403.5,791.5z"/>
	<path id="DUMMY_00000130628776431099935590000001315672155817339040_" class="st0" d="M1750,193l1,60c-2.75,9.05-7.69,14.95-16,16
		c-16.74,4.17-31.33,15.57-45,30c0,0-21.9,13.95-27,14c-32.21,0.29-61,50-62,61c0,0-1,56-2,64s-4,24-7,29s-9,67-13,71
		c-8.88,8.88-34,73-47,192c0,0-14,47-15,50s34,17,38,22s6,7,6,7s-2-7,0-18s25-54,25-54s50-84,51-94s6-28,6-42s4-25,4-25l29-72
		c0,0,9,22,12,26s3,43,4,52s0,48-5,57s-4,28-4,28l5,31l-4,31c-7.86,4.41-10.05,20-8,44c-17.27,77.68-26.45,137-28,179
		c0,0,129,63,129,61s19-112,19-112c13.11,1.73,24.9,0.74,37-1l15.53,113.05L1977,958c-7.1-64.13-16.83-126.42-29-187
		c1.04-20.73-1.52-35.34-7-45l-2.97-34c6.32-22.7,4.71-43.48-2.03-63c-4.73-19.94-5.96-36.74-1-48l1-50c6.57-7.74,10.41-17.88,12-30
		c8.48,27.79,19.25,53.71,32,78c0,0,5,9,5,11s-2,20,0,27.5s8,34.5,11,41.5s64,104,65,117s5,27,5,27l39-34
		c-8.8-16.26-13.83-50.12-18-88c-6.8-50.55-18.76-91.36-34-126l-14-28c3.38-33.58-0.08-61.92-13-83v-60
		c-3.47-20.09-13.87-38.17-32-54c-10.46-9.45-29.21-18.4-54-27l-10-7c-11.99-18.16-28.65-24.46-46-29l-11-19v-57l7-99
		c-7.34-37.29-28.46-58.59-65-62c-43.01,1.91-65.08,27.01-71,70L1750,193z"/>
	<path class="st2" d="M1941.5,725.5c4.19,3.44,16.75,39.82,6,45c-7,26-46,114-114,130l-39,1c-72.61-35.61-100.09-81.6-118-131
		c-4-21,3.97-47.11,7-42L1941.5,725.5z"/>
	<g id="dummy">
		<path class="st3" d="M848,36c-73-1-108,63-63,147c0.34,8.25,0.14,18.94-1,34c-4.15,18.93-10.78,35.66-19,51l-20,18
			c-10.19,4.49-19.84,11.94-29,22c-27.94,17.89-47.47,43.36-58.5,76.5c-3.84,18.09-5.89,36.75-3,57c0,0-6,42-7,43s-4.02,26.38-6,30
			c-1.85,3.38-10.07,42.21-9,43c-10,19.71-14.82,39.37-17,59l3,61l2,45c1.98,15.14,2.01,30.14,0,45l-3,12l54,23
			c-0.95-38.33,3.58-71.47,14-99c15.2-37.75,19.32-72.55,7-103c0,0,2.17-23.18,6-25c4.37-2.08,25.64-68.9,24-70l11,16
			c0.99,14.21,9.98,51.48,26,109c-0.1,8.07-10.09,20.84-23,35c-2.41,6.38-2.51,16.43-1,29l-15,32c-14.17,27.6-21.13,61.24-22,100
			l2,34l-8,103l148,51l6-44c-0.59,3.42-5,26,1,45l139-51c4.19-27.37,0.87-30.4-3-57c-7.98-54.08-16.42-110.57-17-125
			c3.11-14.51,3.25-28.62-2-42l-2-20l22,41c5.83,11.64,11.63,23.32,14,38l51-36c-8.22-12.25-12.94-41.06-17-73
			c-6.01-57.76-17.63-103.96-40-128c3.72-53.88,2.13-91.79-8-104l-6-30c15.9-35.53,11.34-68.9-24-99l-32-18
			c-12.22-15.85-25.43-29.56-43-34l3-30c12.56,2.64,23.1,3.2,30,0c0,0,5-5,6-7c0.68-1.35-0.02-8.65-0.54-13.24
			c-0.28-2.5,0.17-5.02,1.29-7.26l3.28-6.55c0.64-1.29,1.05-2.68,1.2-4.11l1.13-10.7c0.4-3.82,1.16-7.61,2.32-11.27
			c5.82-18.48,8.46-33.68,2.33-39.86v-8c5.55-2.19,5.99-7.79,4-15c-2.33-21.75-7.91-41.27-19-57C896.89,46.57,875.69,33.87,848,36z"
			/>
		<path class="st4" d="M882.5,247.5"/>
		<line class="st3" x1="882.5" y1="247.5" x2="836.96" y2="227.95"/>
		<path class="st2" d="M831.88,799.15c14.33,39.07,19.62,84.35,15.62,109.35c28.35,5.83,50.63,5.11,61-18
			c5.33-26.51,21.37-56.58,41.4-87.96l-23.4-15.04L831.88,799.15"/>
		<path class="st2" d="M722.5,792.5c0,1-21,68-21,68c-3.94-22.49-4.22-44.3-0.92-65.45L722.5,792.5z"/>
		<path class="st5" d="M847.5,908.5c2,39-4.04,89.19-7,106"/>
	</g>
	<path class="st3" d="M1267,35.3c73-1,108,63,63,147c-0.34,8.25-0.14,18.94,1,34c4.15,18.93,10.78,35.66,19,51l20,18
		c10.19,4.49,19.84,11.94,29,22c27.94,17.89,47.47,43.36,58.5,76.5c3.84,18.09,5.89,36.75,3,57c0,0,6,42,7,43s4.02,26.38,6,30
		c1.85,3.38,10.07,42.21,9,43c10,19.71,14.82,39.37,17,59l-3,61l-2,45c-1.98,15.14-2.01,30.14,0,45l3,12l-54,23
		c0.95-38.33-3.58-71.47-14-99c-15.2-37.75-19.32-72.55-7-103c0,0-2.17-23.18-6-25c-4.37-2.08-25.64-68.9-24-70l-11,16
		c-0.99,14.21-9.98,51.48-26,109c0.1,8.07,10.09,20.84,23,35c2.41,6.38,2.51,16.43,1,29l15,32c14.17,27.6,21.13,61.24,22,100l-2,34
		l8,103l-148,51l-6-44c0.59,3.42,5,26-1,45l-139-51c-4.19-27.37-0.87-30.4,3-57c7.98-54.08,16.42-110.57,17-125
		c-3.11-14.51-3.25-28.62,2-42l2-20l-22,41c-5.83,11.64-11.63,23.32-14,38l-51-36c8.22-12.25,12.94-41.06,17-73
		c6.01-57.76,17.63-103.96,40-128c-3.72-53.88-2.13-91.79,8-104l6-30c-15.9-35.53-11.34-68.9,24-99l32-18
		c12.22-15.85,25.43-29.56,43-34l-3-30c-12.56,2.64-23.1,3.2-30,0c0,0-5-5-6-7c-0.68-1.35,0.02-8.65,0.54-13.24
		c0.28-2.5-0.17-5.02-1.29-7.26l-3.28-6.55c-0.64-1.29-1.05-2.68-1.2-4.11l-1.13-10.7c-0.4-3.82-1.16-7.6-2.32-11.27
		c-5.82-18.48-8.46-33.68-2.33-39.86v-8c-5.55-2.19-5.99-7.79-4-15c2.33-21.75,7.91-41.27,19-57
		C1218.11,45.87,1239.31,33.17,1267,35.3z"/>
	<path class="st2" d="M1283.12,798.45c-14.33,39.07-19.62,84.35-15.62,109.35c-28.35,5.83-50.63,5.11-61-18
		c-5.33-26.51-21.37-56.58-41.4-87.96l23.4-15.04L1283.12,798.45"/>
	<path class="st2" d="M1392.5,791.8c0,1,21,68,21,68c3.94-22.49,4.22-44.3,0.92-65.45L1392.5,791.8z"/>
</g>
<g id="Trim">
	<g id="trims">
	</g>
	<path class="st6" d="M722.5,512.5c-0.52-1.33,1.49-3.39,1-5l7,9c10.61-75.84-4.11-138.14-38-192c-0.89-1.42,0.78-4.6,2-7l5,4
		c36.33,49.99,52.24,123.85,33.82,200.06C733.5,524.5,725.32,519.77,722.5,512.5z M692.5,800.5c-0.21,3.21,53-3,53-3l4-2l7,3l144,8
		v-6l-4-4l-191-8l-13,6V800.5z M975.5,786.5l-2-2l-69,14v8l63.07-4.67c1.06-0.02,7.95-8.94,8-10L975.5,786.5z M154.5,311.5l-11,3
		c-11.94,62.69-6.05,149.64,10.61,252.29l7.02,10.03L154.5,311.5z M461.5,568.5l7-7c16.66-102.65,25.57-184.31,13.63-247l-11-3
		L461.5,568.5z M162.5,809.5c14.37,26.53,67.6,19.84,147,12l-1-8l-49-1l-91-8l-5,1L162.5,809.5z M459.5,802.5l-5-1l-87,11l-48,5
		l-1,5c79.4,7.84,127,8,142-15L459.5,802.5z M1646.69,305.37l-11,3c-11.94,62.69,7.81,211.13,25.81,269.13l1-28L1646.69,305.37z
		 M1961.89,571.53l7.02-10.03c16.66-102.65,22.55-189.6,10.61-252.29l-11-3L1961.89,571.53z M1962.63,779.5l-0.13-7l-301,4l0.13,7
		c13,24,67,25,145,22h19C1903.63,808.5,1949.63,803.5,1962.63,779.5 M1422.5,793.8l-13-6l-191,8l-4,4v6l144-8l7-3l4,2
		c0,0,53.21,6.21,53,3V793.8z M1139.43,791.13c0.05,1.06,6.94,9.98,8,10l63.07,4.67v-8l-69-14l-2,2L1139.43,791.13z M1392.5,511.8
		c0.52-1.33-1.49-3.39-1-5l-7,9c-10.61-75.84,4.11-138.14,38-192c0.89-1.42-0.78-4.6-2-7l-5,4
		c-36.33,49.99-52.24,123.85-33.82,200.06C1381.5,523.8,1389.68,519.08,1392.5,511.8z"/>
</g>
<g id="Frame_Outline_and_Shadows">
	<path class="st7" d="M875.5,356.5l14.17-0.83c32.83,62.24,44.9,254.97,20.83,440.83l-6,3l-4,1l-5-4l-4-19
		C906.84,609.77,906.35,456.47,875.5,356.5z"/>
	<path class="st7" d="M1239.5,355.8l-14.17-0.83c-32.83,62.24-41.9,255.67-17.83,441.53l3,2.3l4,1l6-3.3l3-19.7
		C1208.16,609.07,1208.65,455.78,1239.5,355.8z"/>
	<g>
		<g>
			<g>
				<g>
					<g>
						<g>
							<path class="st8" d="M1220.48,357.92c-1.37,4.33-2.82,8.64-4.12,12.99l14.36,4.34c1.26-4.21,2.66-8.37,3.98-12.55
								L1220.48,357.92z"/>
						</g>
						<path class="st9" d="M1225.06,369.91l-1.43-0.45c-0.25,0.79-0.52,1.58-0.75,2.38l1.43,0.44
							C1224.54,371.48,1224.82,370.7,1225.06,369.91z"/>
						<polygon class="st9" points="1226.43,365.67 1225,365.21 1224.24,367.58 1225.67,368.03 						"/>
						<polygon class="st9" points="1227.78,361.44 1226.36,360.97 1225.6,363.34 1227.02,363.8 						"/>
					</g>
				</g>
				<g>
					<g>
						<g>
							<polygon class="st8" points="1216.36,370.91 1214.45,377.44 1213.49,380.71 1212.62,384 1227.1,387.92 1227.94,384.73 
								1228.87,381.57 1230.71,375.25 							"/>
						</g>
						<polygon class="st9" points="1221.27,382.74 1219.82,382.34 1219.18,384.75 1220.62,385.14 						"/>
						<polygon class="st9" points="1222.51,378.47 1221.07,378.05 1220.38,380.44 1221.82,380.85 						"/>
						<polygon class="st9" points="1223.76,374.2 1222.32,373.77 1221.62,376.16 1223.06,376.59 						"/>
					</g>
				</g>
				<g>
					<g>
						<g>
							<path class="st8" d="M1212.62,384c-1.15,4.39-2.36,8.76-3.37,13.18l14.58,3.52c0.97-4.29,2.15-8.53,3.26-12.78L1212.62,384z"
								/>
						</g>
						<polygon class="st9" points="1217.87,395.69 1216.41,395.33 1215.83,397.75 1217.29,398.1 						"/>
						<polygon class="st9" points="1218.98,391.37 1217.52,391 1216.89,393.41 1218.34,393.77 						"/>
						<polygon class="st9" points="1220.11,387.08 1218.66,386.69 1218.03,389.1 1219.48,389.48 						"/>
					</g>
				</g>
				<g>
					<g>
						<g>
							<polygon class="st8" points="1209.25,397.18 1207.68,403.8 1206.24,410.44 1220.91,413.58 1222.3,407.12 1223.83,400.7 
															"/>
						</g>
						<polygon class="st9" points="1214.82,408.72 1213.36,408.4 1212.84,410.84 1214.3,411.15 						"/>
						<path class="st9" d="M1215.79,404.37l-1.46-0.34c-0.19,0.81-0.4,1.61-0.56,2.43l1.46,0.33
							C1215.4,405.98,1215.61,405.18,1215.79,404.37z"/>
						
							<rect x="1214.56" y="400.34" transform="matrix(0.2326 -0.9726 0.9726 0.2326 542.9608 1490.2799)" class="st9" width="2.49" height="1.5"/>
					</g>
				</g>
				<g>
					<g>
						<g>
							<path class="st8" d="M1206.24,410.44c-0.47,2.22-0.96,4.43-1.4,6.65l-1.27,6.67l14.74,2.77l1.24-6.49
								c0.43-2.16,0.91-4.31,1.37-6.46L1206.24,410.44z"/>
						</g>
						
							<rect x="1209.9" y="422.16" transform="matrix(0.191 -0.9816 0.9816 0.191 564.7172 1530.9926)" class="st9" width="2.49" height="1.5"/>
						<path class="st9" d="M1212.96,417.45l-1.47-0.3c-0.18,0.81-0.32,1.63-0.48,2.45l1.47,0.29
							C1212.64,419.08,1212.78,418.26,1212.96,417.45z"/>
						<polygon class="st9" points="1213.88,413.11 1212.42,412.8 1211.9,415.24 1213.36,415.54 						"/>
					</g>
				</g>
				<g>
					<g>
						<g>
							<path class="st8" d="M1203.57,423.76c-0.89,4.44-1.6,8.91-2.36,13.37l14.8,2.43c0.74-4.35,1.43-8.7,2.3-13.02L1203.57,423.76
								z"/>
						</g>
						<polygon class="st9" points="1209.71,435 1208.24,434.75 1207.82,437.2 1209.3,437.45 						"/>
						<polygon class="st9" points="1210.45,430.6 1208.98,430.34 1208.56,432.8 1210.04,433.05 						"/>
						<polygon class="st9" points="1211.27,426.24 1209.8,425.96 1209.33,428.41 1210.81,428.68 						"/>
					</g>
				</g>
				<g>
					<g>
						<g>
							<path class="st8" d="M1201.21,437.12c-0.79,4.46-1.37,8.94-2.05,13.4l14.85,2.11c0.67-4.36,1.23-8.74,2.01-13.08
								L1201.21,437.12z"/>
						</g>
						
							<rect x="1205.45" y="448.59" transform="matrix(0.1461 -0.9893 0.9893 0.1461 585.897 1577.45)" class="st9" width="2.49" height="1.5"/>
						<polygon class="st9" points="1208.27,443.81 1206.78,443.58 1206.42,446.05 1207.9,446.27 						"/>
						<polygon class="st9" points="1208.97,439.43 1207.49,439.18 1207.07,441.64 1208.56,441.88 						"/>
					</g>
				</g>
				<g>
					<g>
						<g>
							<path class="st8" d="M1199.16,450.53c-0.68,4.47-1.18,8.96-1.77,13.43l14.89,1.81c0.58-4.38,1.07-8.77,1.73-13.13
								L1199.16,450.53z"/>
						</g>
						<polygon class="st9" points="1205.8,461.48 1204.31,461.3 1203.99,463.77 1205.48,463.95 						"/>
						<polygon class="st9" points="1206.36,457.06 1204.88,456.87 1204.56,459.34 1206.05,459.53 						"/>
						<path class="st9" d="M1206.96,452.66l-1.49-0.21c-0.12,0.82-0.25,1.64-0.35,2.47l1.49,0.2
							C1206.71,454.3,1206.84,453.48,1206.96,452.66z"/>
					</g>
				</g>
				<g>
					<g>
						<g>
							<path class="st8" d="M1197.39,463.96c-0.56,4.48-1,8.97-1.51,13.46l14.92,1.53c0.5-4.39,0.93-8.79,1.48-13.18L1197.39,463.96
								z"/>
						</g>
						<polygon class="st9" points="1204.24,474.78 1202.75,474.62 1202.48,477.1 1203.97,477.25 						"/>
						
							<rect x="1202.6" y="470.75" transform="matrix(0.1128 -0.9936 0.9936 0.1128 599.5151 1614.4591)" class="st9" width="2.49" height="1.5"/>
						<path class="st9" d="M1205.23,465.94l-1.49-0.18c-0.11,0.82-0.2,1.65-0.29,2.47l1.49,0.17
							C1205.03,467.58,1205.12,466.76,1205.23,465.94z"/>
					</g>
				</g>
				<g>
					<g>
						<g>
							<polygon class="st8" points="1195.88,477.42 1194.61,490.89 1209.56,492.16 1210.8,478.95 							"/>
						</g>
						<polygon class="st9" points="1202.93,488.11 1201.44,487.97 1201.21,490.45 1202.71,490.58 						"/>
						
							<rect x="1201.24" y="484.09" transform="matrix(0.0947 -0.9955 0.9955 0.0947 605.9443 1635.9984)" class="st9" width="2.49" height="1.5"/>
						<polygon class="st9" points="1203.75,479.25 1202.26,479.09 1202.03,481.57 1203.52,481.72 						"/>
					</g>
				</g>
				<g>
					<g>
						<g>
							<polygon class="st8" points="1194.61,490.89 1193.58,504.37 1208.54,505.4 1209.56,492.16 							"/>
						</g>
						<polygon class="st9" points="1201.85,501.45 1200.36,501.35 1200.17,503.83 1201.67,503.93 						"/>
						
							<rect x="1200.11" y="497.44" transform="matrix(0.0778 -0.997 0.997 0.0778 611.1512 1657.1139)" class="st9" width="2.49" height="1.5"/>
						<polygon class="st9" points="1202.53,492.58 1201.03,492.45 1200.84,494.94 1202.34,495.06 						"/>
					</g>
				</g>
				<g>
					<g>
						<g>
							<polygon class="st8" points="1193.58,504.37 1192.76,517.86 1207.73,518.66 1208.54,505.4 							"/>
						</g>
						<polygon class="st9" points="1200.99,514.82 1199.49,514.73 1199.34,517.22 1200.84,517.3 						"/>
						<polygon class="st9" points="1201.26,510.37 1199.76,510.27 1199.61,512.76 1201.11,512.85 						"/>
						<polygon class="st9" points="1201.53,505.93 1200.03,505.83 1199.88,508.32 1201.38,508.41 						"/>
					</g>
				</g>
				<g>
					<g>
						<g>
							<polygon class="st8" points="1192.76,517.86 1192.13,531.35 1207.12,531.94 1207.73,518.66 							"/>
						</g>
						<polygon class="st9" points="1200.32,528.19 1198.82,528.13 1198.7,530.61 1200.2,530.68 						"/>
						<polygon class="st9" points="1200.52,523.74 1199.02,523.67 1198.91,526.15 1200.41,526.22 						"/>
						<polygon class="st9" points="1200.73,519.3 1199.23,519.22 1199.12,521.71 1200.61,521.78 						"/>
					</g>
				</g>
				<g>
					<g>
						<g>
							<polygon class="st8" points="1192.13,531.35 1191.69,544.83 1206.68,545.24 1207.12,531.94 							"/>
						</g>
						<polygon class="st9" points="1199.83,541.58 1198.33,541.53 1198.24,544.02 1199.74,544.06 						"/>
						<polygon class="st9" points="1199.97,537.12 1198.48,537.07 1198.39,539.56 1199.89,539.6 						"/>
						<polygon class="st9" points="1200.12,532.68 1198.62,532.62 1198.54,535.11 1200.04,535.16 						"/>
					</g>
				</g>
				<g>
					<g>
						<g>
							<polygon class="st8" points="1191.69,544.83 1191.4,558.32 1206.4,558.54 1206.68,545.24 							"/>
						</g>
						<polygon class="st9" points="1199.5,554.96 1198.01,554.94 1197.95,557.43 1199.45,557.45 						"/>
						
							<rect x="1197.58" y="550.98" transform="matrix(0.0221 -0.9998 0.9998 0.0221 620.7358 1738.0728)" class="st9" width="2.49" height="1.5"/>
						<polygon class="st9" points="1199.69,546.06 1198.19,546.02 1198.14,548.51 1199.64,548.55 						"/>
					</g>
				</g>
				<g>
					<g>
						<g>
							<polygon class="st8" points="1191.4,558.32 1191.27,571.8 1206.27,571.86 1206.4,558.54 							"/>
						</g>
						<polygon class="st9" points="1199.34,568.36 1197.84,568.35 1197.81,570.83 1199.31,570.84 						"/>
						
							<rect x="1197.37" y="564.38" transform="matrix(0.0108 -0.9999 0.9999 0.0108 620.5432 1757.5636)" class="st9" width="2.49" height="1.5"/>
						<polygon class="st9" points="1199.42,559.45 1197.92,559.43 1197.9,561.92 1199.4,561.94 						"/>
					</g>
				</g>
				<g>
					<g>
						<g>
							<polygon class="st8" points="1191.27,571.8 1191.28,585.27 1206.28,585.19 1206.27,571.86 							"/>
						</g>
						<polygon class="st9" points="1199.31,581.75 1197.81,581.75 1197.81,584.24 1199.31,584.24 						"/>
						<rect x="1197.81" y="577.29" class="st9" width="1.5" height="2.49"/>
						<polygon class="st9" points="1199.3,572.85 1197.8,572.84 1197.8,575.33 1199.3,575.33 						"/>
					</g>
				</g>
				<g>
					<g>
						<g>
							<polygon class="st8" points="1191.28,585.27 1191.42,598.73 1206.41,598.52 1206.28,585.19 							"/>
						</g>
						<polygon class="st9" points="1199.41,595.14 1197.91,595.16 1197.94,597.65 1199.44,597.63 						"/>
						
							<rect x="1197.87" y="590.69" transform="matrix(1 -8.952193e-03 8.952193e-03 1 -5.2511 10.754)" class="st9" width="1.5" height="2.49"/>
						<polygon class="st9" points="1199.31,586.24 1197.81,586.25 1197.84,588.74 1199.34,588.73 						"/>
					</g>
				</g>
				<g>
					<g>
						<g>
							<polygon class="st8" points="1191.42,598.73 1191.67,612.19 1206.66,611.86 1206.41,598.52 							"/>
						</g>
						
							<rect x="1198.15" y="608.55" transform="matrix(0.9998 -0.0202 0.0202 0.9998 -12.0624 24.3198)" class="st9" width="1.5" height="2.49"/>
						
							<rect x="1198.06" y="604.09" transform="matrix(0.9998 -0.0175 0.0175 0.9998 -10.4318 21.1174)" class="st9" width="1.5" height="2.49"/>
						
							<rect x="1197.98" y="599.65" transform="matrix(0.9999 -0.0149 0.0149 0.9999 -8.7926 17.8706)" class="st9" width="1.5" height="2.49"/>
					</g>
				</g>
				<g>
					<g>
						<g>
							<path class="st8" d="M1191.67,612.19c0.08,4.49,0.24,8.97,0.35,13.45l14.99-0.44c-0.11-4.45-0.27-8.89-0.35-13.34
								L1191.67,612.19z"/>
						</g>
						
							<rect x="1198.48" y="621.95" transform="matrix(0.9996 -0.0277 0.0277 0.9996 -16.8085 33.4708)" class="st9" width="1.5" height="2.49"/>
						<polygon class="st9" points="1199.82,617.47 1198.32,617.51 1198.39,620 1199.89,619.96 						"/>
						
							<rect x="1198.24" y="613.04" transform="matrix(0.9997 -0.0229 0.0229 0.9997 -13.7337 27.5785)" class="st9" width="1.5" height="2.49"/>
					</g>
				</g>
				<g>
					<g>
						<g>
							<path class="st8" d="M1192.02,625.64c0.11,4.48,0.3,8.96,0.44,13.44l14.99-0.54c-0.15-4.45-0.33-8.9-0.44-13.34
								L1192.02,625.64z"/>
						</g>
						
							<rect x="1198.91" y="635.34" transform="matrix(0.9994 -0.0345 0.0345 0.9994 -21.2507 41.7725)" class="st9" width="1.5" height="2.49"/>
						<polygon class="st9" points="1200.21,630.86 1198.71,630.91 1198.8,633.4 1200.3,633.35 						"/>
						<polygon class="st9" points="1200.07,626.42 1198.57,626.46 1198.64,628.95 1200.14,628.9 						"/>
					</g>
				</g>
				<g>
					<g>
						<g>
							<polygon class="st8" points="1192.46,639.08 1192.99,652.52 1207.98,651.88 1207.45,638.54 							"/>
						</g>
						
							<rect x="1199.42" y="648.73" transform="matrix(0.9992 -0.0406 0.0406 0.9992 -25.4065 49.2771)" class="st9" width="1.5" height="2.49"/>
						<polygon class="st9" points="1200.68,644.25 1199.18,644.31 1199.29,646.79 1200.79,646.73 						"/>
						<polygon class="st9" points="1200.52,639.81 1199.02,639.86 1199.11,642.35 1200.61,642.29 						"/>
					</g>
				</g>
				<g>
					<g>
						<g>
							<path class="st8" d="M1192.99,652.52c0.18,4.48,0.38,8.95,0.6,13.43l14.98-0.71c-0.22-4.45-0.42-8.9-0.6-13.35
								L1192.99,652.52z"/>
						</g>
						
							<rect x="1200.01" y="662.12" transform="matrix(0.9989 -0.0461 0.0461 0.9989 -29.2808 56.0123)" class="st9" width="1.5" height="2.49"/>
						
							<rect x="1199.8" y="657.67" transform="matrix(0.999 -0.0444 0.0444 0.999 -28.0671 53.9449)" class="st9" width="1.5" height="2.49"/>
						
							<rect x="1199.61" y="653.22" transform="matrix(0.9991 -0.0425 0.0425 0.9991 -26.7428 51.6321)" class="st9" width="1.5" height="2.49"/>
					</g>
				</g>
				<g>
					<g>
						<g>
							<polygon class="st8" points="1193.59,665.94 1194.26,679.36 1209.24,678.58 1208.57,665.23 							"/>
						</g>
						<polygon class="st9" points="1202.1,675.47 1200.6,675.55 1200.73,678.03 1202.23,677.95 						"/>
						<polygon class="st9" points="1201.87,671.01 1200.38,671.09 1200.49,673.57 1201.99,673.5 						"/>
						
							<rect x="1200.22" y="666.61" transform="matrix(0.9989 -0.0478 0.0478 0.9989 -30.5323 58.133)" class="st9" width="1.5" height="2.49"/>
					</g>
				</g>
				<g>
					<g>
						<g>
							<polygon class="st8" points="1194.26,679.36 1194.99,692.77 1209.96,691.93 1209.24,678.58 							"/>
						</g>
						<polygon class="st9" points="1202.8,688.85 1201.31,688.93 1201.45,691.41 1202.95,691.33 						"/>
						<polygon class="st9" points="1202.57,684.39 1201.07,684.47 1201.2,686.96 1202.7,686.88 						"/>
						
							<rect x="1200.9" y="679.99" transform="matrix(0.9986 -0.0524 0.0524 0.9986 -34.0266 63.8637)" class="st9" width="1.5" height="2.49"/>
					</g>
				</g>
				<g>
					<g>
						<g>
							<polygon class="st8" points="1194.99,692.77 1195.76,706.17 1210.74,705.28 1209.96,691.93 							"/>
						</g>
						
							<rect x="1202.15" y="702.26" transform="matrix(0.9983 -0.0589 0.0589 0.9983 -39.3594 72.0939)" class="st9" width="1.5" height="2.49"/>
						
							<rect x="1201.89" y="697.81" transform="matrix(0.9983 -0.0577 0.0577 0.9983 -38.3295 70.5524)" class="st9" width="1.5" height="2.49"/>
						
							<rect x="1201.63" y="693.37" transform="matrix(0.9984 -0.0565 0.0565 0.9984 -37.3123 69.019)" class="st9" width="1.5" height="2.49"/>
					</g>
				</g>
				<g>
					<g>
						<g>
							
								<rect x="1196.16" y="705.72" transform="matrix(0.9981 -0.0612 0.0612 0.9981 -41.3397 74.9909)" class="st8" width="15" height="13.4"/>
						</g>
						
							<rect x="1202.96" y="715.65" transform="matrix(0.9981 -0.0612 0.0612 0.9981 -41.6161 75.0083)" class="st9" width="1.5" height="2.49"/>
						
							<rect x="1202.69" y="711.2" transform="matrix(0.9981 -0.0612 0.0612 0.9981 -41.3183 74.9327)" class="st9" width="1.5" height="2.49"/>
						
							<rect x="1202.42" y="706.76" transform="matrix(0.9981 -0.0612 0.0612 0.9981 -41.0731 74.9583)" class="st9" width="1.5" height="2.49"/>
					</g>
				</g>
				<g>
					<g>
						<g>
							<polygon class="st8" points="1196.58,719.57 1197.45,732.96 1212.42,731.98 1211.55,718.63 							"/>
						</g>
						
							<rect x="1203.82" y="729.01" transform="matrix(0.9979 -0.0647 0.0647 0.9979 -44.7492 79.5147)" class="st9" width="1.5" height="2.49"/>
						
							<rect x="1203.53" y="724.56" transform="matrix(0.998 -0.0639 0.0639 0.998 -43.9329 78.4663)" class="st9" width="1.5" height="2.49"/>
						
							<rect x="1203.25" y="720.12" transform="matrix(0.998 -0.0631 0.0631 0.998 -43.1012 77.3751)" class="st9" width="1.5" height="2.49"/>
					</g>
				</g>
				<g>
					<g>
						<g>
							<polygon class="st8" points="1197.45,732.96 1198.34,746.35 1213.31,745.33 1212.42,731.98 							"/>
						</g>
						
							<rect x="1204.71" y="742.38" transform="matrix(0.9978 -0.067 0.067 0.9978 -47.0998 82.409)" class="st9" width="1.5" height="2.49"/>
						
							<rect x="1204.41" y="737.93" transform="matrix(0.9978 -0.0663 0.0663 0.9978 -46.3719 81.5591)" class="st9" width="1.5" height="2.49"/>
						
							<rect x="1204.11" y="733.5" transform="matrix(0.9978 -0.0656 0.0656 0.9978 -45.5971 80.6089)" class="st9" width="1.5" height="2.49"/>
					</g>
				</g>
				<g>
					<g>
						<g>
							<polygon class="st8" points="1198.34,746.35 1199.26,759.73 1214.22,758.69 1213.31,745.33 							"/>
						</g>
						
							<rect x="1205.62" y="755.75" transform="matrix(0.9976 -0.0688 0.0688 0.9976 -49.227 84.7998)" class="st9" width="1.5" height="2.49"/>
						
							<rect x="1205.31" y="751.3" transform="matrix(0.9977 -0.0683 0.0683 0.9977 -48.5961 84.1567)" class="st9" width="1.5" height="2.49"/>
						
							<rect x="1205.01" y="746.87" transform="matrix(0.9977 -0.0677 0.0677 0.9977 -47.8621 83.3113)" class="st9" width="1.5" height="2.49"/>
					</g>
				</g>
				<g>
					<g>
						<g>
							<polygon class="st8" points="1199.26,759.73 1200.2,773.1 1215.16,772.05 1214.22,758.69 							"/>
						</g>
						
							<rect x="1206.55" y="769.12" transform="matrix(0.9975 -0.0703 0.0703 0.9975 -51.1487 86.741)" class="st9" width="1.5" height="2.49"/>
						
							<rect x="1206.24" y="764.67" transform="matrix(0.9976 -0.0698 0.0698 0.9976 -50.5058 86.0953)" class="st9" width="1.5" height="2.49"/>
						
							<rect x="1205.93" y="760.23" transform="matrix(0.9976 -0.0693 0.0693 0.9976 -49.8953 85.5019)" class="st9" width="1.5" height="2.49"/>
					</g>
				</g>
				<g>
					<g>
						<g>
							<polygon class="st8" points="1200.2,773.1 1201.15,786.48 1216.11,785.4 1215.16,772.05 							"/>
						</g>
						
							<rect x="1207.5" y="782.48" transform="matrix(0.9975 -0.0713 0.0713 0.9975 -52.7718 88.0832)" class="st9" width="1.5" height="2.49"/>
						
							<rect x="1207.18" y="778.03" transform="matrix(0.9975 -0.0709 0.0709 0.9975 -52.2271 87.6329)" class="st9" width="1.5" height="2.49"/>
						
							<rect x="1206.87" y="773.6" transform="matrix(0.9975 -0.0706 0.0706 0.9975 -51.6861 87.1832)" class="st9" width="1.5" height="2.49"/>
					</g>
				</g>
				<g>
					<g>
						<g>
							
								<rect x="1201.61" y="785.93" transform="matrix(0.9974 -0.0717 0.0717 0.9974 -53.7238 88.7413)" class="st8" width="15" height="13.4"/>
						</g>
						
							<rect x="1208.46" y="795.85" transform="matrix(0.9974 -0.0717 0.0717 0.9974 -54.067 88.8009)" class="st9" width="1.5" height="2.49"/>
						
							<rect x="1208.14" y="791.4" transform="matrix(0.9974 -0.0717 0.0717 0.9974 -53.7159 88.7079)" class="st9" width="1.5" height="2.49"/>
						
							<rect x="1207.82" y="786.97" transform="matrix(0.9974 -0.0717 0.0717 0.9974 -53.3988 88.6736)" class="st9" width="1.5" height="2.49"/>
					</g>
				</g>
			</g>
		</g>
	</g>
	<path class="st1" d="M439.35,233.63l0.36-0.02c-2.85-93.65-40.5-215.67-125.32-215.85c-83.18-0.18-120.97,121.92-124.02,215.64
		c0.1-0.01,0.19-0.01,0.29-0.02c3.94-101.32,75.08-125.68,124.88-124.37h1.15C366.06,107.71,434.78,133.83,439.35,233.63z"/>
</g>
<g id="Body_x28_Main_Color_x29_">
	<path class="st6" d="M238.5,272.5l71,164v380c-78,3-132,14-145-10c0,0-7.73-42.66-5-92c2.81-50.74,2-138,2-138
		c-18-105-21.73-264.52-7-265L188,297C200.01,283.97,225.81,277.72,238.5,272.5z"/>
	<path class="st6" d="M393.5,292.5l-76,143l2,382c78.03,7.71,117,7,140-13c0,0,7.71-41.7,4-92c-3.76-51.02-2-144-2-144
		c15.24-52.57,25.73-256.52,11-257L439,297C426.99,283.97,406.19,297.72,393.5,292.5z"/>
	<path class="st6" d="M1806.5,798.5c-78,3-132,2-145-22c0,0,0.01-41.66,2.75-91c2.81-50.74-5.75-139-5.75-139
		c-18-105-28.73-240.52-14-241l53-32c12.02-13.03,37.31-14.78,50-20l129-3c12.69,5.22,46.98,18.97,59,32l34,23
		c14.73,0.48,14,132-4,237c0,0-8.56,88.26-5.75,139c2.73,49.34,2.75,91,2.75,91c-13,24-59,29-137,26H1806.5z"/>
	<path class="st6" d="M692.5,323.5c0,0,5.48-4.09,7-2c36.33,49.99,52.41,123.79,34,200c-0.14,0.58-0.36,0.9-0.64,1.01
		c-2.25,0.89-10.36-10.01-10.36-10.01l-18,55c0,0-3.25,62.46-3.27,62.8c-0.73,12.2,0.27,21.2-1.57,30.09
		c-0.04,0.18-6.61,125.82-7.16,134.11c-0.21,3.21,52-1,52-1l4-1l6,1l146,7c16.75-196.6,20.68-352.99-20-440l-119-98
		C716.34,291.32,690.7,312.66,692.5,323.5z"/>
	<path class="st6" d="M903.5,287.5l-17,73c39.85,118.59,30.65,263.77,18,439l63-5c1.06-0.02,7.95-8.94,8-10
		c4.05-85.18,0.61-155.26-6-259c17.98-44.17,11.61-159.19-6-179c-0.54-0.61-10.34-21.51-11-22
		C944.7,314.18,924.04,292.06,903.5,287.5z"/>
	<path class="st6" d="M1422.5,322.8c0,0-5.48-4.09-7-2c-36.33,49.99-52.41,123.79-34,200c0.14,0.58,0.36,0.9,0.64,1.01
		c2.25,0.89,10.36-10.01,10.36-10.01l18,55c0,0,3.25,62.46,3.27,62.8c0.73,12.2-0.27,21.2,1.57,30.09
		c0.04,0.18,6.61,125.82,7.16,134.11c0.21,3.21-52-1-52-1l-4-1l-6,1l-146,7c-16.75-196.6-20.68-352.99,20-440l119-98
		C1398.66,290.62,1424.3,311.96,1422.5,322.8z"/>
	<path class="st6" d="M1211.5,286.8l17,73c-39.85,118.59-30.65,263.77-18,439l-63-5c-1.06-0.02-7.95-8.94-8-10
		c-4.05-85.18-0.61-155.26,6-259c-17.98-44.17-11.61-159.19,6-179c0.54-0.61,10.34-21.51,11-22
		C1170.3,313.48,1190.96,291.36,1211.5,286.8z"/>
</g>
<g id="Hood_Color">
	<path class="st6" d="M307,434c0,0-91.3-78.85-106.35-116c-7.05-17.4-10.67-44.12-10.49-74.59c0.11-0.01,0.22-0.02,0.33-0.02
		c0.06,13.98,1.32,29.3,4.01,46.12C201.48,333.21,307,434,307,434z M439.59,243.61c0.04,14.76-1.23,31-4.09,48.89
		C428.52,336.21,321,434,321,434s93.21-78.67,108.26-115.82c7.05-17.4,10.74-44.12,10.62-74.58
		C439.78,243.6,439.69,243.61,439.59,243.61z M210,121c77-71,145-64,210,0C397,57,362.15,18.51,314.38,17.75
		C271.87,18.3,234,51,210,121z M1920.5,271.5c28.96-71.5,7.25-258.99-108.89-259.25C1697.73,12,1671.54,200,1700.5,271.5
		c3.96-4.64,12.61-8.64,26-12c8.77-1.3,16.7-2.93,21-6h3l126-3C1892.3,256.28,1907.12,263.12,1920.5,271.5z M1210.5,59.8
		c99,10,83,188,24,300l119-98c0,0,79-160,16-222c-34.81-34.26-152.36-12.01-183,26L1210.5,59.8z M928.5,66.5
		c-30.64-38.01-148.19-60.26-183-26c-63,62,16,222,16,222l119,98c-59-112-75-290,24-300L928.5,66.5z"/>
</g>
<g id="Hood_Trim">
	<path class="st6" d="M210,122c67-71,148.48-66.58,211,0c12.13,36.22,16.35,63.11,18.06,96.06C424.5,136.5,376.5,109.44,315.5,108.5
		c-65-1-113,34-124.41,109.56C194.59,177.79,198.64,150.95,210,122z M1187.5,64.8c99.5-31.5,129,138,48,294l48.32-39.32
		c59-123,57-303-74-272C1200.62,52.7,1192.75,58.34,1187.5,64.8z M905.18,48.18c-131-31-133,149-74,272l48.32,39.32
		c-81-156-51.5-325.5,48-294C922.25,59.04,914.38,53.4,905.18,48.18z"/>
</g>
<g id="Inside_Hoodie">
	<g id="inside_hood">
	</g>
	<path class="st6" d="M904.45,60.67c82-2,44,164-18,300l17.05-72.17c-8.22-6.95-17-11-23-12l3-27c10.52,2.37,19.12,2.29,27,0
		c1.31-0.38,3.11-1.96,4-3l3-4c1.35-1.58,2.13-3.92,2-6l-1-13l4-7c1.56-3.11,2.64-7.54,3-11l1-13c6.94-21.77,10.54-39.72,4-46v-6
		c4.86-1.38,6.32-7.25,4-16c-1.31-11.96-3.53-24.06-7-34C921.26,75.63,914.5,58.5,904.45,60.67z M250.5,254.5L250,196l-4.15-69.55
		c-27.47,15.23-45.94,42.81-53.34,85.56c-3.25,27.35-2.99,55.8,3.17,86.09C208.38,329.85,247.12,375.03,307,434
		c4.36-0.42-61.11-153.02-64.5-166.5L250.5,254.5z M382,261.5c-3.39,13.48-65.86,171.08-61.5,171.5
		c59.88-58.97,105.29-101.75,118-133.5c6.16-30.29,5.25-57.65,2-85c-7.41-42.74-36-81-63-92l-5,71.5l1.5,54.5L382,261.5z
		 M1210.55,59.97c-82-2-44,164,18,300l-17.05-72.17c8.22-6.95,17-11,23-12l-3-27c-10.52,2.37-19.12,2.29-27,0
		c-1.31-0.38-3.11-1.96-4-3l-3-4c-1.35-1.58-2.13-3.92-2-6l1-13l-4-7c-1.56-3.11-2.64-7.54-3-11l-1-13c-6.94-21.77-10.54-39.72-4-46
		v-6c-4.86-1.38-6.32-7.25-4-16c1.31-11.96,3.53-24.06,7-34C1193.74,74.93,1200.5,57.8,1210.55,59.97z"/>
</g>
<g id="Frme_Outline_and_Shadows">
	<g id="Layer_20">
		<path d="M313.5,813.5l-4.5,4c0,0,3.5-371-1.5-382c0,0-1.73-1.31-4.72-3.6c-0.09-1.92,1.55-2.55,0.72-4.4c3.77,2.48,4.45,2.76,6,3
			c0.37,0.06,1.81,5.11,2,7C314.5,467.5,313.5,813.5,313.5,813.5z M311.5,437.5l0.25-0.02c-0.1-0.98-0.51-2.72-0.94-4.23
			c-0.22-0.76-0.44-1.46-0.63-1.98c-0.1-0.26-0.19-0.48-0.27-0.64l-0.13-0.21c-0.05-0.06-0.09-0.13-0.24-0.16
			c-0.77-0.12-1.28-0.24-2.1-0.64c-0.81-0.4-1.92-1.08-3.8-2.32l-0.72-0.47l0.35,0.79c0.16,0.35,0.21,0.64,0.21,0.9
			c0,0.49-0.21,0.9-0.45,1.4c-0.24,0.5-0.51,1.08-0.5,1.85l0,0.16l0.01,0.12l0.09,0.07c2.99,2.29,4.72,3.6,4.72,3.6l0.15-0.2
			l-0.23,0.1c0.11,0.24,0.24,0.76,0.35,1.51c0.89,5.67,1.47,24.41,1.82,50.68c0.36,26.28,0.49,60.12,0.49,96.07
			c0,53.69-0.3,112.1-0.6,157.08c-0.15,22.49-0.3,41.63-0.41,55.14c-0.06,6.76-0.1,12.11-0.13,15.77s-0.05,5.63-0.05,5.63
			l-0.01,0.56l5.01-4.45l0-0.11c0,0,0.16-55.36,0.16-123.71c0-51.26-0.09-109.84-0.4-157.84c-0.32-48.01-0.85-85.44-1.76-94.47
			L311.5,437.5l-0.25,0.02c0.9,8.97,1.44,46.42,1.75,94.42c0.32,48,0.4,106.58,0.4,157.84c0,34.18-0.04,65.1-0.08,87.49
			c-0.02,11.19-0.04,20.25-0.06,26.51c-0.01,3.13-0.01,5.56-0.02,7.21c0,1.65-0.01,2.51-0.01,2.51l0.25,0l-0.17-0.19l-4.5,4
			l0.17,0.19l0.25,0c0,0,1.19-126.24,1.19-233.63c0-38.35-0.15-74.3-0.56-101.23c-0.21-13.47-0.48-24.68-0.83-32.82
			c-0.18-4.07-0.37-7.37-0.59-9.8c-0.11-1.21-0.22-2.21-0.34-2.98c-0.12-0.77-0.24-1.31-0.39-1.64l-0.03-0.06l-0.05-0.04
			c0,0-0.43-0.33-1.24-0.94c-0.81-0.61-1.99-1.51-3.48-2.66l-0.15,0.2l0.25-0.01l0-0.14c0-0.66,0.22-1.14,0.45-1.63
			c0.23-0.49,0.5-0.98,0.5-1.62c0-0.34-0.08-0.7-0.26-1.1l-0.23,0.1l-0.14,0.21c1.89,1.24,3,1.94,3.86,2.36
			c0.85,0.42,1.46,0.56,2.24,0.68l0.03-0.17l-0.11,0.13l0.08,0.03l0.03-0.17l-0.11,0.13l0.02-0.03l-0.02,0.02l0,0l0.02-0.03
			l-0.02,0.02c0.01,0.01,0.09,0.13,0.16,0.29c0.53,1.19,1.57,4.99,1.72,6.52L311.5,437.5z M326.92,430.64
			c-0.88-1.13-1.3-2.55-0.89-3.95c-3.42,2.22-6.02,3.59-7.48,3.81c-0.37,0.06-1.81,5.11-2,7c-3,30-2,376-2,376l4.5,4
			c0,0-3.5-371,1.5-382C320.55,435.5,322.92,433.7,326.92,430.64z M326.92,430.64l0.2-0.15c-0.62-0.8-1-1.74-1-2.71
			c0-0.34,0.05-0.68,0.14-1.02l0.18-0.64l-0.56,0.36c-3.41,2.21-6.02,3.57-7.38,3.78c-0.15,0.03-0.19,0.11-0.24,0.16
			c-0.16,0.22-0.31,0.61-0.51,1.16c-0.57,1.64-1.32,4.52-1.46,5.9c-0.9,9.03-1.44,46.46-1.76,94.47
			c-0.32,48.01-0.4,106.58-0.4,157.84c0,68.35,0.16,123.71,0.16,123.71l0,0.11l5.01,4.45l-0.01-0.56c0-0.01-0.02-1.97-0.05-5.63
			c-0.23-25.63-1.14-134.03-1.14-227.99c0-38.35,0.15-74.3,0.56-101.23c0.21-13.46,0.48-24.68,0.83-32.8
			c0.17-4.06,0.37-7.36,0.58-9.77c0.11-1.21,0.22-2.2,0.34-2.95c0.12-0.75,0.24-1.28,0.35-1.51l-0.23-0.1l0.15,0.2
			c0,0,2.38-1.8,6.37-4.86l0.2-0.15l-0.16-0.2L326.92,430.64l-0.15-0.2c-2,1.53-3.59,2.75-4.69,3.58c-1.09,0.83-1.69,1.28-1.69,1.28
			l-0.05,0.04l-0.03,0.06c-0.15,0.33-0.27,0.87-0.39,1.64c-0.9,5.76-1.47,24.46-1.83,50.75c-0.36,26.28-0.49,60.12-0.49,96.08
			c0,107.39,1.19,233.63,1.19,233.63l0.25,0l0.17-0.19l-4.5-4l-0.17,0.19l0.25,0c0,0,0-0.86-0.01-2.51
			c-0.03-11.53-0.15-61.39-0.15-121.2c0-51.26,0.09-109.84,0.4-157.84c0.31-48,0.86-85.46,1.75-94.42c0.09-0.91,0.5-2.65,0.92-4.14
			c0.21-0.75,0.43-1.44,0.62-1.94c0.09-0.25,0.18-0.45,0.25-0.59l0.08-0.13l0.01-0.01l-0.05-0.04l0.04,0.05l0.01-0.01l-0.05-0.04
			l0.04,0.05l-0.1-0.15l0.03,0.18l0.07-0.03l-0.1-0.15l0.03,0.18c1.55-0.25,4.14-1.63,7.58-3.85l-0.14-0.21l-0.24-0.07
			c-0.11,0.39-0.16,0.78-0.16,1.16c0,1.09,0.42,2.14,1.1,3.01L326.92,430.64l-0.15-0.2L326.92,430.64z M314.18,803.96l1.5,0.01
			l0.01-2.51l-1.5-0.01L314.18,803.96z M314.16,808.46l1.5,0.01l0.01-2.51l-1.5-0.01L314.16,808.46z M314.15,812.95l1.5,0.01
			l0.01-2.51l-1.5-0.01L314.15,812.95z M314.22,790.45l1.5,0.01l0.01-2.51l-1.5-0.01L314.22,790.45z M314.21,794.94l1.5,0.01
			l0.01-2.51l-1.5-0.01L314.21,794.94z M314.19,799.43l1.5,0.01l0.01-2.51l-1.5-0.01L314.19,799.43z M314.28,776.94l1.5,0.01
			l0.01-2.51l-1.5-0.01L314.28,776.94z M314.26,781.43l1.5,0.01l0.01-2.51l-1.5-0.01L314.26,781.43z M314.24,785.92l1.5,0.01
			l0.01-2.51l-1.5-0.01L314.24,785.92z M314.34,763.42l1.5,0.01l0.01-2.51l-1.5-0.01L314.34,763.42z M314.32,767.92l1.5,0.01
			l0.01-2.51l-1.5-0.01L314.32,767.92z M314.3,772.4l1.5,0.01l0.01-2.51l-1.5-0.01L314.3,772.4z M314.41,749.91l1.5,0.01l0.01-2.51
			l-1.5-0.01L314.41,749.91z M314.39,754.41l1.5,0.01l0.01-2.51l-1.5-0.01L314.39,754.41z M314.37,758.89l1.5,0.01l0.01-2.51
			l-1.5-0.01L314.37,758.89z M314.48,736.4l1.5,0.01l0.01-2.51l-1.5-0.01L314.48,736.4z M314.46,740.9l1.5,0.01l0.01-2.51l-1.5-0.01
			L314.46,740.9z M314.44,745.38l1.5,0.01l0.01-2.51l-1.5-0.01L314.44,745.38z M314.55,722.88l1.5,0.01l0.01-2.51l-1.5-0.01
			L314.55,722.88z M314.53,727.38l1.5,0.01l0.01-2.51l-1.5-0.01L314.53,727.38z M314.51,731.87l1.5,0.01l0.01-2.51l-1.5-0.01
			L314.51,731.87z M314.62,709.37l1.5,0.01l0.01-2.51l-1.5-0.01L314.62,709.37z M314.59,713.87l1.5,0.01l0.01-2.51l-1.5-0.01
			L314.59,713.87z M314.57,718.35l1.5,0.01l0.01-2.51l-1.5-0.01L314.57,718.35z M314.68,695.86l1.5,0.01l0.01-2.51l-1.5-0.01
			L314.68,695.86z M314.66,700.36l1.5,0.01l0.01-2.51l-1.5-0.01L314.66,700.36z M314.64,704.84l1.5,0.01l0.01-2.51l-1.5-0.01
			L314.64,704.84z M314.73,682.35l1.5,0.01l0.01-2.51l-1.5-0.01L314.73,682.35z M314.71,686.85l1.5,0.01l0.01-2.51l-1.5-0.01
			L314.71,686.85z M314.69,691.33l1.5,0.01l0.01-2.51l-1.5-0.01L314.69,691.33z M314.77,668.84l1.5,0l0.01-2.51l-1.5,0
			L314.77,668.84z M314.76,673.34l1.5,0l0.01-2.51l-1.5,0L314.76,673.34z M314.74,677.82l1.5,0l0.01-2.51l-1.5,0L314.74,677.82z
			 M314.79,655.32l1.5,0l0.01-2.51l-1.5,0L314.79,655.32z M314.79,659.82l1.5,0l0.01-2.51l-1.5,0L314.79,659.82z M314.78,664.31
			l1.5,0l0.01-2.51l-1.5,0L314.78,664.31z M314.81,641.82l1.5,0l0-2.51h-1.5L314.81,641.82z M314.81,646.31l1.5,0l0-2.51l-1.5,0
			L314.81,646.31z M314.8,650.8l1.5,0l0-2.51l-1.5,0L314.8,650.8z M314.8,628.3l1.5,0l0-2.51l-1.5,0L314.8,628.3z M314.8,632.8
			l1.5,0l0-2.51l-1.5,0L314.8,632.8z M314.8,637.29l1.5,0l0-2.51l-1.5,0L314.8,637.29z M314.77,614.78l1.5,0l-0.01-2.51l-1.5,0
			L314.77,614.78z M314.78,619.28l1.5,0l-0.01-2.51l-1.5,0L314.78,619.28z M314.8,623.76l1.5,0l-0.01-2.51l-1.5,0L314.8,623.76z
			 M314.73,601.28l1.5-0.01l-0.01-2.51l-1.5,0.01L314.73,601.28z M314.75,605.78l1.5-0.01l-0.01-2.51l-1.5,0.01L314.75,605.78z
			 M314.76,610.26l1.5,0l-0.01-2.51l-1.5,0.01L314.76,610.26z M314.65,587.76l1.5-0.01l-0.01-2.51l-1.5,0.01L314.65,587.76z
			 M314.68,592.26l1.5-0.01l-0.01-2.51l-1.5,0.01L314.68,592.26z M314.7,596.74l1.5-0.01l-0.01-2.51l-1.5,0.01L314.7,596.74z
			 M314.55,574.26l1.5-0.01l-0.02-2.51l-1.5,0.01L314.55,574.26z M314.6,578.76l1.5-0.01l-0.02-2.51l-1.5,0.01L314.6,578.76z
			 M314.62,583.24l1.5-0.01l-0.01-2.51l-1.5,0.01L314.62,583.24z M314.42,560.74l1.5-0.01l-0.02-2.51l-1.5,0.01L314.42,560.74z
			 M314.47,565.24l1.5-0.01l-0.02-2.51l-1.5,0.01L314.47,565.24z M314.51,569.73l1.5-0.01l-0.02-2.51l-1.5,0.01L314.51,569.73z
			 M314.26,547.24l1.5-0.02l-0.04-2.51l-1.5,0.02L314.26,547.24z M314.32,551.74l1.5-0.02l-0.04-2.51l-1.5,0.02L314.32,551.74z
			 M314.38,556.22l1.5-0.02l-0.03-2.51l-1.5,0.02L314.38,556.22z M314.07,533.73l1.5-0.02l-0.04-2.51l-1.5,0.02L314.07,533.73z
			 M314.13,538.23l1.5-0.02l-0.04-2.51l-1.5,0.02L314.13,538.23z M314.19,542.71l1.5-0.02l-0.04-2.51l-1.5,0.02L314.19,542.71z
			 M313.82,520.22l1.5-0.03l-0.05-2.51l-1.5,0.03L313.82,520.22z M313.91,524.72l1.5-0.03l-0.05-2.51l-1.5,0.03L313.91,524.72z
			 M313.99,529.2l1.5-0.03l-0.05-2.51l-1.5,0.03L313.99,529.2z M313.56,506.71l1.5-0.03l-0.06-2.51l-1.5,0.03L313.56,506.71z
			 M313.65,511.21l1.5-0.03l-0.05-2.51l-1.5,0.03L313.65,511.21z M313.74,515.69l1.5-0.03l-0.05-2.51l-1.5,0.03L313.74,515.69z
			 M313.23,493.21l1.5-0.04l-0.06-2.51l-1.5,0.04L313.23,493.21z M313.34,497.7l1.5-0.04l-0.06-2.51l-1.5,0.04L313.34,497.7z
			 M313.45,502.19l1.5-0.03l-0.06-2.51l-1.5,0.04L313.45,502.19z M312.88,479.7l1.5-0.04l-0.08-2.51l-1.5,0.04L312.88,479.7z
			 M313.01,484.2l1.5-0.04l-0.08-2.51l-1.5,0.04L313.01,484.2z M313.12,488.68l1.5-0.04l-0.06-2.51l-1.5,0.04L313.12,488.68z
			 M312.47,466.2l1.5-0.05l-0.08-2.51l-1.5,0.05L312.47,466.2z M312.6,470.69l1.5-0.05l-0.08-2.51l-1.5,0.05L312.6,470.69z
			 M312.74,475.17l1.5-0.04l-0.08-2.51l-1.5,0.05L312.74,475.17z M312.01,452.69l1.5-0.04l-0.09-2.51l-1.5,0.04L312.01,452.69z
			 M312.17,457.19l1.5-0.05l-0.09-2.51l-1.5,0.04L312.17,457.19z M312.33,461.67l1.5-0.05l-0.09-2.51l-1.5,0.05L312.33,461.67z
			 M311.51,439.18l1.5-0.03l-0.05-1.26c0-0.45-0.05-0.9-0.09-1.33l-1.49,0.16C311.48,437.53,311.47,438.33,311.51,439.18z
			 M311.68,443.68l1.5-0.03l-0.09-2.51l-1.5,0.03L311.68,443.68z M311.84,448.16l1.5-0.04l-0.09-2.51l-1.5,0.04L311.84,448.16z
			 M304.72,428.81l0.86-1.23l-0.33-0.24l-0.92,1.18L304.72,428.81z M305.43,429.27l0.78-1.28c-0.12-0.07-0.24-0.14-0.35-0.22
			l-0.83,1.25C305.17,429.11,305.3,429.19,305.43,429.27z M306.16,429.69l0.71-1.32l-0.37-0.2l-0.75,1.3L306.16,429.69z
			 M312.08,433.36l-1.48,0.25l0.25,1.54l1.49-0.22L312.08,433.36z M311.48,430.56l-0.02,0l0,0l0,0l0,0l-0.01,0l-0.02-0.01l-0.1-0.02
			l-0.19-0.05l-0.36-0.1l-0.74-0.23l-0.46,1.43l0.31,0.1l0.16,0.05l0.08,0.02l0.01,0l0,0l0.03,0.02l0,0l0,0l0.03-0.01l0.06-0.01
			l0.12,0.62l1.48-0.27l-0.3-1.56L311.48,430.56z M308.15,429.46l-0.7-0.31l-0.64,1.36l0.76,0.34l0.76,0.31l0.54-1.4L308.15,429.46z
			 M311.54,804.14l1.49,0.13l0.2-2.49l-1.5-0.12L311.54,804.14z M311.88,808.73l1.47-0.28c-0.15-0.79-0.27-1.58-0.33-2.36l-1.5,0.12
			C311.59,807.06,311.72,807.9,311.88,808.73z M312.87,813.09l1.46-0.33l-0.57-2.43l-1.46,0.34L312.87,813.09z M312.48,790.76
			l1.5,0.09l0.13-2.49l-1.5-0.08L312.48,790.76z M312.2,795.22l1.5,0.1l0.16-2.49l-1.5-0.09L312.2,795.22z M311.89,799.66l1.5,0.11
			c0.07-0.83,0.13-1.66,0.18-2.49l-1.5-0.1C312.02,798,311.96,798.83,311.89,799.66z M313.09,777.36l1.5,0.05l0.08-2.49l-1.5-0.05
			L313.09,777.36z M312.92,781.82l1.5,0.06l0.11-2.49l-1.5-0.06L312.92,781.82z M312.72,786.27l1.5,0.07l0.12-2.49l-1.5-0.07
			L312.72,786.27z M313.45,763.95l1.5,0.03l0.04-2.49l-1.5-0.02L313.45,763.95z M313.35,768.41l1.5,0.04l0.06-2.49l-1.5-0.03
			L313.35,768.41z M313.24,772.86l1.5,0.04l0.07-2.49l-1.5-0.04L313.24,772.86z M313.6,750.53l1.5,0.01l0.01-2.49l-1.5-0.01
			L313.6,750.53z M313.57,754.99l1.5,0.01l0.02-2.49l-1.5-0.01L313.57,754.99z M313.52,759.45l1.5,0.02l0.03-2.49l-1.5-0.02
			L313.52,759.45z M313.62,737.1l1.5,0l-0.01-2.49l-1.5,0L313.62,737.1z M313.63,741.57l1.5,0l0-2.49l-1.5,0L313.63,741.57z
			 M313.62,746.03l1.5,0l0-2.49l-1.5,0L313.62,746.03z M313.56,723.68l1.5-0.01l-0.01-2.49l-1.5,0.01L313.56,723.68z M313.59,728.15
			l1.5-0.01l-0.01-2.49l-1.5,0.01L313.59,728.15z M313.61,732.6l1.5-0.01l-0.01-2.49l-1.5,0.01L313.61,732.6z M313.49,710.25
			l1.5-0.01l-0.01-2.49l-1.5,0.01L313.49,710.25z M313.52,714.72l1.5-0.01l-0.01-2.49l-1.5,0.01L313.52,714.72z M313.54,719.18
			l1.5-0.01l-0.01-2.49l-1.5,0.01L313.54,719.18z M313.35,696.84l1.5-0.04l-0.09-2.49l-1.5,0.04L313.35,696.84z M313.47,701.3
			l1.5-0.02c0.01-0.83-0.01-1.67-0.05-2.5l-1.5,0.03C313.47,699.64,313.48,700.47,313.47,701.3z M313.48,705.75l1.5-0.01l0-2.5
			l-1.5,0.02L313.48,705.75z M312.92,683.42l1.5-0.04l-0.07-2.49l-1.5,0.04L312.92,683.42z M313.05,687.89l1.5-0.05l-0.07-2.49
			l-1.5,0.04L313.05,687.89z M313.19,692.34l1.5-0.05l-0.09-2.49l-1.5,0.05L313.19,692.34z M312.61,669.99l1.5-0.03l-0.04-2.49
			l-1.5,0.03L312.61,669.99z M312.7,674.46l1.5-0.03l-0.06-2.49l-1.5,0.03L312.7,674.46z M312.8,678.92l1.5-0.04l-0.06-2.49
			l-1.5,0.03L312.8,678.92z M312.42,656.56l1.5-0.02l-0.03-2.49l-1.5,0.01L312.42,656.56z M312.47,661.03l1.5-0.02l-0.03-2.49
			l-1.5,0.02L312.47,661.03z M312.53,665.49l1.5-0.02l-0.04-2.49l-1.5,0.02L312.53,665.49z M312.33,643.13l1.5,0l0-2.49l-1.5,0
			L312.33,643.13z M312.35,647.6l1.5-0.01l-0.01-2.49l-1.5,0.01L312.35,647.6z M312.37,652.06l1.5-0.01l-0.01-2.49l-1.5,0.01
			L312.37,652.06z M312.33,629.7l1.5,0l0.01-2.49l-1.5-0.01L312.33,629.7z M312.32,634.17l1.5,0l0.01-2.49l-1.5,0L312.32,634.17z
			 M312.32,638.62l1.5,0l0-2.49l-1.5,0L312.32,638.62z M312.41,616.27l1.5,0.01l0.03-2.49l-1.5-0.01L312.41,616.27z M312.38,620.74
			l1.5,0.01l0.02-2.49l-1.5-0.01L312.38,620.74z M312.35,625.19l1.5,0.01l0.02-2.49l-1.5-0.01L312.35,625.19z M312.56,602.84
			l1.5,0.02l0.03-2.49l-1.5-0.02L312.56,602.84z M312.5,607.31l1.5,0.02l0.03-2.49l-1.5-0.02L312.5,607.31z M312.45,611.76l1.5,0.02
			l0.03-2.49l-1.5-0.02L312.45,611.76z M312.75,589.41l1.5,0.02l0.04-2.49l-1.5-0.02L312.75,589.41z M312.68,593.88l1.5,0.02
			l0.04-2.49l-1.5-0.02L312.68,593.88z M312.61,598.34l1.5,0.02l0.04-2.49l-1.5-0.02L312.61,598.34z M312.98,575.98l1.5,0.03
			l0.05-2.49l-1.5-0.03L312.98,575.98z M312.9,580.45l1.5,0.03l0.04-2.49l-1.5-0.03L312.9,580.45z M312.83,584.91l1.5,0.03
			l0.04-2.49l-1.5-0.03L312.83,584.91z M313.24,562.56l1.5,0.03l0.05-2.49l-1.5-0.03L313.24,562.56z M313.15,567.03l1.5,0.03
			l0.05-2.49l-1.5-0.03L313.15,567.03z M313.07,571.48l1.5,0.03l0.05-2.49l-1.5-0.03L313.07,571.48z M313.46,549.14l1.5,0.01
			l-0.01-2.5l-1.5,0L313.46,549.14z M313.42,553.61l1.5,0.02l0.05-2.49l-1.5-0.02L313.42,553.61z M313.33,558.06l1.5,0.03l0.05-2.49
			l-1.5-0.02L313.33,558.06z M313.39,535.72l1.5-0.01l-0.02-2.49l-1.5,0.01L313.39,535.72z M313.42,540.19l1.5-0.01l-0.02-2.49
			l-1.5,0.01L313.42,540.19z M313.45,544.64l1.5,0l-0.01-2.5l-1.5,0.01L313.45,544.64z M313.26,522.3l1.5-0.01l-0.02-2.49l-1.5,0.01
			L313.26,522.3z M313.31,526.77l1.5-0.01l-0.02-2.49l-1.5,0.01L313.31,526.77z M313.35,531.22l1.5-0.01l-0.02-2.49l-1.5,0.02
			L313.35,531.22z M313.17,508.87l1.5-0.01l-0.01-2.49l-1.5,0L313.17,508.87z M313.19,513.34l1.5-0.01l-0.01-2.49l-1.5,0.01
			L313.19,513.34z M313.22,517.79l1.5-0.01l-0.02-2.49l-1.5,0.01L313.22,517.79z M313.19,495.43l1.5,0.01l0.02-2.49l-1.5-0.02
			L313.19,495.43z M313.16,499.9l1.5,0l0.01-2.49l-1.5-0.01L313.16,499.9z M313.15,504.36l1.5,0l0-2.49l-1.5,0L313.15,504.36z
			 M313.41,482l1.5,0.04l0.07-2.49l-1.5-0.05L313.41,482z M313.31,486.47l1.5,0.03l0.05-2.49l-1.5-0.03L313.31,486.47z
			 M313.23,490.93l1.5,0.02l0.04-2.49l-1.5-0.03L313.23,490.93z M313.92,468.57l1.5,0.08l0.14-2.48l-1.5-0.09L313.92,468.57z
			 M313.72,473.04l1.5,0.06l0.11-2.49l-1.5-0.07L313.72,473.04z M313.54,477.49l1.5,0.05l0.09-2.49l-1.5-0.06L313.54,477.49z
			 M314.81,455.15l1.49,0.12c0.05-0.83,0.14-1.65,0.22-2.48l-1.49-0.13C314.96,453.5,314.87,454.32,314.81,455.15z M314.48,459.62
			l1.5,0.11l0.19-2.48l-1.5-0.12L314.48,459.62z M314.18,464.07l1.5,0.09l0.15-2.48l-1.5-0.1L314.18,464.07z M316.17,441.78
			l1.49,0.18l0.29-2.47l-1.49-0.19L316.17,441.78z M315.66,446.22l1.49,0.16l0.28-2.47l-1.49-0.17L315.66,446.22z M315.22,450.66
			l1.49,0.14l0.23-2.47l-1.49-0.15L315.22,450.66z M319.84,429.07l0.96,1.23c0.65-0.31,1.34-0.54,2.04-0.74l-0.51-1.42
			C321.48,428.39,320.63,428.67,319.84,429.07z M317.36,432.76l1.44,0.55c0.04-0.36,0.11-0.72,0.14-1.08
			c0.05-0.36,0.23-0.69,0.47-0.96l-1.26-0.99c-0.29,0.33-0.51,0.73-0.59,1.17L317.36,432.76z M316.73,437.3l1.49,0.2l0.34-2.46
			l-1.49-0.21L316.73,437.3z M303.81,427.52l-2.31-3.02l-3.2,2.53l4.61,4.44l1.58-2.97L303.81,427.52z M303.81,427.52l0.4-0.3
			l-2.62-3.42l-4.05,3.2l5.5,5.29l2.04-3.82l-0.87-1.24l-0.01-0.01L303.81,427.52l-0.41,0.29l0.51,0.73l-1.13,2.11l-3.73-3.58
			l2.35-1.86l2,2.61L303.81,427.52l-0.41,0.29L303.81,427.52z M326.03,426.69l0.89,3.95l4.61-4.44l-3.03-3.7L326.03,426.69
			 M325.54,426.8l1.09,4.81l5.59-5.37l-3.78-4.61l-2.84,4.8l0.86,0.51l2.11-3.57l2.29,2.79l-3.64,3.5l-0.7-3.09L325.54,426.8z
			 M234.26,243.66c-5.43,17.46-4.07,35.71,4.83,54.82 M405.15,293.27c8.9-19.11,10.26-37.36,4.83-54.82 M397.15,293.27
			c9.75-11.24,11.95-21.64,7.35-31.29 M732.84,526.12h0.4v-0.64h-0.4V526.12z M733.22,525.48l-0.37,0.01l0.02,0.62l0.37-0.01
			L733.22,525.48 M733.18,524.36l-0.38,0.01l0.02,0.62l0.37-0.01L733.18,524.36 M733.14,523.25l-0.38,0.01l0.02,0.62l0.37-0.01
			L733.14,523.25 M733.33,528.84l-0.37,0.01l0.02,0.62l0.37-0.01L733.33,528.84 M733.29,527.72l-0.38,0.01l0.02,0.62l0.37-0.01
			L733.29,527.72 M733.25,526.61l-0.38,0.01l0.02,0.62l0.37-0.01L733.25,526.61 M733.44,532.2l-0.37,0.01l0.02,0.62l0.37-0.01
			L733.44,532.2 M733.4,531.08l-0.38,0.01l0.02,0.62l0.37-0.01L733.4,531.08 M733.37,529.97l-0.37,0.01l0.02,0.62l0.37-0.01
			L733.37,529.97 M733.56,535.56l-0.37,0.01l0.02,0.62l0.38-0.01L733.56,535.56 M733.52,534.44l-0.38,0.01l0.02,0.62l0.37-0.01
			L733.52,534.44 M733.48,533.32l-0.37,0.01l0.02,0.62l0.37-0.01L733.48,533.32 M733.67,538.92l-0.37,0.01l0.02,0.62l0.38-0.01
			L733.67,538.92 M733.63,537.8l-0.38,0.01l0.02,0.62l0.37-0.01L733.63,537.8 M733.59,536.68l-0.37,0.01l0.02,0.62l0.37-0.01
			L733.59,536.68 M733.78,542.27l-0.37,0.01l0.02,0.62l0.38-0.01L733.78,542.27 M733.74,541.16l-0.38,0.01l0.02,0.62l0.37-0.01
			L733.74,541.16 M733.71,540.04l-0.37,0.01l0.02,0.62l0.37-0.01L733.71,540.04 M733.89,545.63l-0.37,0.01l0.02,0.62l0.38-0.01
			L733.89,545.63 M733.86,544.51l-0.37,0.01l0.02,0.62l0.37-0.01L733.86,544.51 M733.82,543.4l-0.37,0.01l0.02,0.62l0.37-0.01
			L733.82,543.4 M734.01,548.99l-0.37,0.01l0.02,0.62l0.37-0.01L734.01,548.99 M733.97,547.87l-0.37,0.01l0.02,0.62l0.37-0.01
			L733.97,547.87 M733.93,546.76l-0.37,0.01l0.02,0.62l0.37-0.01L733.93,546.76 M734.12,552.35l-0.37,0.01l0.02,0.62l0.38-0.01
			L734.12,552.35 M734.08,551.23l-0.37,0.01l0.02,0.62l0.37-0.01L734.08,551.23 M734.05,550.12l-0.37,0.01l0.02,0.62l0.37-0.01
			L734.05,550.12 M734.23,555.71l-0.38,0.01l0.02,0.62l0.38-0.01L734.23,555.71 M734.2,554.59l-0.37,0.01l0.02,0.62l0.37-0.01
			L734.2,554.59 M734.16,553.47l-0.37,0.01l0.02,0.62l0.38-0.01L734.16,553.47 M734.35,559.06l-0.38,0.01l0.02,0.62l0.37-0.01
			L734.35,559.06 M734.31,557.95l-0.37,0.01l0.02,0.62l0.37-0.01L734.31,557.95 M734.27,556.83l-0.37,0.01l0.02,0.62l0.38-0.01
			L734.27,556.83 M734.46,562.42l-0.37,0.01l0.02,0.62l0.37-0.01L734.46,562.42 M734.42,561.3l-0.37,0.01l0.02,0.62l0.37-0.01
			L734.42,561.3 M734.38,560.19l-0.37,0.01l0.02,0.62l0.38-0.01L734.38,560.19 M734.57,565.78l-0.38,0.01l0.02,0.62l0.37-0.01
			L734.57,565.78 M734.53,564.66l-0.37,0.01l0.02,0.62l0.37-0.01L734.53,564.66 M734.5,563.55l-0.37,0.01l0.02,0.62l0.38-0.01
			L734.5,563.55 M734.69,569.14l-0.38,0.01l0.02,0.62l0.37-0.01L734.69,569.14 M734.65,568.02l-0.37,0.01l0.02,0.62l0.38-0.01
			L734.65,568.02 M734.61,566.91l-0.37,0.01l0.02,0.62l0.38-0.01L734.61,566.91 M734.8,572.5l-0.38,0.01l0.02,0.62l0.37-0.01
			L734.8,572.5 M734.76,571.38l-0.37,0.01l0.02,0.62l0.38-0.01L734.76,571.38 M734.72,570.26l-0.37,0.01l0.02,0.62l0.38-0.01
			L734.72,570.26 M734.91,575.85l-0.38,0.01l0.02,0.62l0.37-0.01L734.91,575.85 M734.87,574.74l-0.37,0.01l0.02,0.62l0.38-0.01
			L734.87,574.74 M734.84,573.62l-0.38,0.01l0.02,0.62l0.38-0.01L734.84,573.62 M735.02,579.21l-0.37,0.01l0.02,0.62l0.37-0.01
			L735.02,579.21 M734.99,578.1l-0.37,0.01l0.02,0.62l0.38-0.01L734.99,578.1 M734.95,576.98l-0.37,0.01l0.02,0.62l0.37-0.01
			L734.95,576.98 M735.14,582.57l-0.37,0.01l0.02,0.62l0.37-0.01L735.14,582.57 M735.1,581.45l-0.37,0.01l0.02,0.62l0.38-0.01
			L735.1,581.45 M735.06,580.34l-0.37,0.01l0.02,0.62l0.37-0.01L735.06,580.34 M735.25,585.93l-0.37,0.01l0.02,0.62l0.37-0.01
			L735.25,585.93 M735.21,584.81l-0.37,0.01l0.02,0.62l0.38-0.01L735.21,584.81 M735.18,583.7l-0.38,0.01l0.02,0.62l0.37-0.01
			L735.18,583.7 M735.36,589.29l-0.37,0.01l0.02,0.62l0.37-0.01L735.36,589.29 M735.33,588.17l-0.37,0.01l0.02,0.62l0.38-0.01
			L735.33,588.17 M735.29,587.06l-0.38,0.01l0.02,0.62l0.37-0.01L735.29,587.06 M735.48,592.65l-0.37,0.01l0.02,0.62l0.37-0.01
			L735.48,592.65 M735.44,591.53l-0.37,0.01l0.02,0.62l0.37-0.01L735.44,591.53 M735.4,590.41l-0.38,0.01l0.02,0.62l0.37-0.01
			L735.4,590.41 M735.59,596l-0.37,0.01l0.02,0.62l0.37-0.01L735.59,596 M735.55,594.89l-0.37,0.01l0.02,0.62l0.37-0.01
			L735.55,594.89 M735.51,593.77l-0.38,0.01l0.02,0.62l0.37-0.01L735.51,593.77 M735.7,599.36l-0.37,0.01l0.02,0.62l0.38-0.01
			L735.7,599.36 M735.67,598.24l-0.38,0.01l0.02,0.62l0.37-0.01L735.67,598.24 M735.63,597.13l-0.37,0.01l0.02,0.62l0.37-0.01
			L735.63,597.13 M735.82,602.72l-0.37,0.01l0.02,0.62l0.38-0.01L735.82,602.72 M735.78,601.6l-0.38,0.01l0.02,0.62l0.37-0.01
			L735.78,601.6 M735.74,600.49l-0.37,0.01l0.02,0.62l0.37-0.01L735.74,600.49 M735.93,606.08l-0.37,0.01l0.02,0.62l0.37-0.01
			L735.93,606.08 M735.89,604.96l-0.38,0.01l0.02,0.62l0.37-0.01L735.89,604.96 M735.85,603.85l-0.38,0.01l0.02,0.62l0.37-0.01
			L735.85,603.85 M736.04,609.44l-0.37,0.01l0.02,0.62l0.38-0.01L736.04,609.44 M736,608.32l-0.38,0.01l0.02,0.62l0.37-0.01
			L736,608.32 M735.97,607.2l-0.37,0.01l0.02,0.62l0.37-0.01L735.97,607.2 M736.15,612.79l-0.37,0.01l0.02,0.62l0.38-0.01
			L736.15,612.79 M736.12,611.68l-0.37,0.01l0.02,0.62l0.37-0.01L736.12,611.68 M736.08,610.56l-0.37,0.01l0.02,0.62l0.37-0.01
			L736.08,610.56 M736.27,616.15l-0.37,0.01l0.02,0.62l0.38-0.01L736.27,616.15 M736.23,615.04l-0.37,0.01l0.02,0.62l0.37-0.01
			L736.23,615.04 M736.19,613.92l-0.37,0.01l0.02,0.62l0.37-0.01L736.19,613.92 M736.38,619.51l-0.37,0.01l0.02,0.62l0.38-0.01
			L736.38,619.51 M736.34,618.39l-0.38,0.01l0.02,0.62l0.37-0.01L736.34,618.39 M736.31,617.28l-0.37,0.01l0.02,0.62l0.38-0.01
			L736.31,617.28 M736.49,622.87l-0.37,0.01l0.02,0.62l0.38-0.01L736.49,622.87 M736.46,621.75l-0.37,0.01l0.02,0.62l0.37-0.01
			L736.46,621.75 M736.42,620.64l-0.37,0.01l0.02,0.62l0.37-0.01L736.42,620.64 M736.61,626.23l-0.37,0.01l0.02,0.62l0.37-0.01
			L736.61,626.23 M736.57,625.11l-0.37,0.01l0.02,0.62l0.37-0.01L736.57,625.11 M736.53,624l-0.37,0.01l0.02,0.62l0.37-0.01
			L736.53,624 M736.72,629.59l-0.37,0.01l0.02,0.62l0.37-0.01L736.72,629.59 M736.68,628.47l-0.37,0.01l0.02,0.62l0.37-0.01
			L736.68,628.47 M736.64,627.35l-0.37,0.01l0.02,0.62l0.38-0.01L736.64,627.35 M736.83,632.94l-0.38,0.01l0.02,0.62l0.37-0.01
			L736.83,632.94 M736.8,631.83l-0.37,0.01l0.02,0.62l0.37-0.01L736.8,631.83 M736.76,630.71l-0.37,0.01l0.02,0.62l0.38-0.01
			L736.76,630.71 M736.95,636.3l-0.38,0.01l0.02,0.62l0.37-0.01L736.95,636.3 M736.91,635.18l-0.37,0.01l0.02,0.62l0.37-0.01
			L736.91,635.18 M736.87,634.07l-0.37,0.01l0.02,0.62l0.38-0.01L736.87,634.07 M737.06,639.66l-0.38,0.01l0.02,0.62l0.37-0.01
			L737.06,639.66 M737.02,638.54l-0.37,0.01l0.02,0.62l0.37-0.01L737.02,638.54 M736.98,637.43l-0.37,0.01l0.02,0.62l0.38-0.01
			L736.98,637.43 M737.17,643.02l-0.38,0.01l0.02,0.62l0.37-0.01L737.17,643.02 M737.13,641.9l-0.37,0.01l0.02,0.62l0.38-0.01
			L737.13,641.9 M737.1,640.79l-0.37,0.01l0.02,0.62l0.38-0.01L737.1,640.79 M737.28,646.38l-0.38,0.01l0.02,0.62l0.37-0.01
			L737.28,646.38 M737.25,645.26l-0.37,0.01l0.02,0.62l0.38-0.01L737.25,645.26 M737.21,644.14l-0.37,0.01l0.02,0.62l0.37-0.01
			L737.21,644.14 M737.4,649.73l-0.38,0.01l0.02,0.62l0.37-0.01L737.4,649.73 M737.36,648.62l-0.37,0.01l0.02,0.62l0.38-0.01
			L737.36,648.62 M737.32,647.5l-0.37,0.01l0.02,0.62l0.38-0.01L737.32,647.5 M737.51,653.09l-0.38,0.01l0.02,0.62l0.37-0.01
			L737.51,653.09 M737.47,651.98l-0.37,0.01l0.02,0.62l0.38-0.01L737.47,651.98 M737.44,650.86l-0.38,0.01l0.02,0.62l0.37-0.01
			L737.44,650.86 M737.62,656.45l-0.37,0.01l0.02,0.62l0.37-0.01L737.62,656.45 M737.59,655.33l-0.37,0.01l0.02,0.62l0.38-0.01
			L737.59,655.33 M737.55,654.22l-0.38,0.01l0.02,0.62l0.37-0.01L737.55,654.22 M737.74,659.81l-0.37,0.01l0.02,0.62l0.37-0.01
			L737.74,659.81 M737.7,658.69l-0.37,0.01l0.02,0.62l0.38-0.01L737.7,658.69 M737.66,657.58l-0.37,0.01l0.02,0.62l0.37-0.01
			L737.66,657.58 M737.85,663.17l-0.37,0.01l0.02,0.62l0.37-0.01L737.85,663.17 M737.81,662.05l-0.37,0.01l0.02,0.62l0.38-0.01
			L737.81,662.05 M737.77,660.94l-0.38,0.01l0.02,0.62l0.37-0.01L737.77,660.94 M737.96,666.53l-0.37,0.01l0.02,0.62l0.37-0.01
			L737.96,666.53 M737.93,665.41l-0.38,0.01l0.02,0.62l0.37-0.01L737.93,665.41 M737.89,664.29l-0.38,0.01l0.02,0.62l0.37-0.01
			L737.89,664.29 M738.08,669.88l-0.37,0.01l0.02,0.62l0.37-0.01L738.08,669.88 M738.04,668.77l-0.38,0.01l0.02,0.62l0.37-0.01
			L738.04,668.77 M738,667.65l-0.38,0.01l0.02,0.62l0.37-0.01L738,667.65 M738.19,673.24l-0.37,0.01l0.02,0.62l0.37-0.01
			L738.19,673.24 M738.15,672.12l-0.37,0.01l0.02,0.62l0.37-0.01L738.15,672.12 M738.11,671.01l-0.38,0.01l0.02,0.62l0.37-0.01
			L738.11,671.01 M738.3,676.6l-0.37,0.01l0.02,0.62l0.38-0.01L738.3,676.6 M738.26,675.48l-0.38,0.01l0.02,0.62l0.37-0.01
			L738.26,675.48 M738.23,674.37l-0.37,0.01l0.02,0.62l0.37-0.01L738.23,674.37 M738.41,679.96l-0.37,0.01l0.02,0.62l0.38-0.01
			L738.41,679.96 M738.38,678.84l-0.38,0.01l0.02,0.62l0.37-0.01L738.38,678.84 M738.34,677.73l-0.37,0.01l0.02,0.62l0.37-0.01
			L738.34,677.73 M738.53,683.32l-0.37,0.01l0.02,0.62l0.38-0.01L738.53,683.32 M738.49,682.2l-0.38,0.01l0.02,0.62l0.37-0.01
			L738.49,682.2 M738.45,681.08l-0.37,0.01l0.02,0.62l0.37-0.01L738.45,681.08 M738.64,686.67l-0.37,0.01l0.02,0.62l0.38-0.01
			L738.64,686.67 M738.6,685.56l-0.38,0.01l0.02,0.62l0.37-0.01L738.6,685.56 M738.57,684.44l-0.37,0.01l0.02,0.62l0.37-0.01
			L738.57,684.44 M738.75,690.03l-0.37,0.01l0.02,0.62l0.38-0.01L738.75,690.03 M738.72,688.92l-0.37,0.01l0.02,0.62l0.37-0.01
			L738.72,688.92 M738.68,687.8l-0.37,0.01l0.02,0.62l0.37-0.01L738.68,687.8 M738.87,693.39l-0.37,0.01l0.02,0.62l0.38-0.01
			L738.87,693.39 M738.83,692.27l-0.37,0.01l0.02,0.62l0.37-0.01L738.83,692.27 M738.79,691.16l-0.37,0.01l0.02,0.62l0.37-0.01
			L738.79,691.16 M738.98,696.75l-0.37,0.01l0.02,0.62l0.38-0.01L738.98,696.75 M738.94,695.63l-0.37,0.01l0.02,0.62l0.37-0.01
			L738.94,695.63 M738.9,694.52l-0.37,0.01l0.02,0.62l0.38-0.01L738.9,694.52 M739.09,700.11l-0.37,0.01l0.02,0.62l0.37-0.01
			L739.09,700.11 M739.06,698.99l-0.37,0.01l0.02,0.62l0.37-0.01L739.06,698.99 M739.02,697.88l-0.37,0.01l0.02,0.62l0.38-0.01
			L739.02,697.88 M739.21,703.47l-0.37,0.01l0.02,0.62l0.37-0.01L739.21,703.47 M739.17,702.35l-0.37,0.01l0.02,0.62l0.37-0.01
			L739.17,702.35 M739.13,701.23l-0.37,0.01l0.02,0.62l0.37-0.01L739.13,701.23 M739.32,706.82l-0.38,0.01l0.02,0.62l0.37-0.01
			L739.32,706.82 M739.28,705.71l-0.37,0.01l0.02,0.62l0.37-0.01L739.28,705.71 M739.24,704.59l-0.37,0.01l0.02,0.62l0.38-0.01
			L739.24,704.59 M739.43,710.18l-0.38,0.01l0.02,0.62l0.37-0.01L739.43,710.18 M739.39,709.06l-0.37,0.01l0.02,0.62l0.38-0.01
			L739.39,709.06 M739.36,707.95l-0.37,0.01l0.02,0.62l0.38-0.01L739.36,707.95 M739.55,713.54l-0.38,0.01l0.02,0.62l0.37-0.01
			L739.55,713.54 M739.51,712.42l-0.37,0.01l0.02,0.62l0.37-0.01L739.51,712.42 M739.47,711.31l-0.37,0.01l0.02,0.62l0.38-0.01
			L739.47,711.31 M739.66,716.9l-0.38,0.01l0.02,0.62l0.37-0.01L739.66,716.9 M739.62,715.78l-0.37,0.01l0.02,0.62l0.37-0.01
			L739.62,715.78 M739.58,714.67l-0.37,0.01l0.02,0.62l0.38-0.01L739.58,714.67 M739.77,720.26l-0.38,0.01l0.02,0.62l0.37-0.01
			L739.77,720.26 M739.73,719.14l-0.37,0.01l0.02,0.62l0.38-0.01L739.73,719.14 M739.7,718.02l-0.37,0.01l0.02,0.62l0.37-0.01
			L739.7,718.02 M739.88,723.61l-0.38,0.01l0.02,0.62l0.37-0.01L739.88,723.61 M739.85,722.5l-0.37,0.01l0.02,0.62l0.38-0.01
			L739.85,722.5 M739.81,721.38l-0.37,0.01l0.02,0.62l0.37-0.01L739.81,721.38 M740,726.97l-0.38,0.01l0.02,0.62l0.37-0.01
			L740,726.97 M739.96,725.85l-0.37,0.01l0.02,0.62l0.38-0.01L739.96,725.85 M739.92,724.74l-0.38,0.01l0.02,0.62l0.37-0.01
			L739.92,724.74 M740.11,730.33l-0.38,0.01l0.02,0.62l0.37-0.01L740.11,730.33 M740.07,729.21l-0.37,0.01l0.02,0.62l0.38-0.01
			L740.07,729.21 M740.04,728.1l-0.38,0.01l0.02,0.62l0.37-0.01L740.04,728.1 M739.67,733.68l-0.02,0.62l0.38,0.01l0.02-0.62
			L739.67,733.68 M739.71,732.57l-0.02,0.62l0.37,0.01l0.02-0.62L739.71,732.57 M739.74,731.45l-0.02,0.62l0.37,0.02l0.02-0.62
			L739.74,731.45 M739.56,737.05l-0.02,0.62l0.38,0l0.02-0.62L739.56,737.05 M739.6,735.93l-0.02,0.62l0.38,0.01l0.02-0.62
			L739.6,735.93 M739.63,734.81l-0.02,0.62l0.37,0.01l0.02-0.62L739.63,734.81 M739.95,740.41l-0.38,0l0.01,0.62l0.37-0.01
			L739.95,740.41 M739.93,739.29l-0.38,0l0.01,0.62l0.38,0L739.93,739.29 M739.55,738.18l0.01,0.62l0.38,0l-0.01-0.62L739.55,738.18
			 M739.99,743.77l-0.37,0.01l0.04,0.62l0.37-0.02L739.99,743.77 M739.97,742.65l-0.37,0.01l0.01,0.62l0.37-0.01L739.97,742.65
			 M739.96,741.54l-0.38,0.01l0.01,0.62l0.38-0.01L739.96,741.54 M740.18,747.12l-0.37,0.02l0.04,0.62l0.37-0.03L740.18,747.12
			 M740.12,746l-0.37,0.02l0.04,0.62l0.37-0.02L740.12,746 M740.05,744.89l-0.37,0.02l0.04,0.62l0.37-0.02L740.05,744.89
			 M740.43,750.46l-0.37,0.03l0.07,0.62l0.37-0.04L740.43,750.46 M740.32,749.35l-0.37,0.03l0.06,0.62l0.37-0.03L740.32,749.35
			 M740.25,748.24l-0.37,0.03l0.04,0.62l0.37-0.03L740.25,748.24 M740.78,753.8l-0.37,0.05c0.02,0.21,0.04,0.42,0.07,0.62l0.37-0.05
			C740.82,754.22,740.81,754.01,740.78,753.8 M740.67,752.69l-0.37,0.04l0.07,0.62l0.37-0.04L740.67,752.69 M740.55,751.58
			l-0.37,0.04l0.06,0.62l0.37-0.04L740.55,751.58 M741.26,757.12l-0.37,0.06l0.09,0.62l0.37-0.06L741.26,757.12 M741.09,756.02
			l-0.37,0.05l0.09,0.62l0.37-0.06L741.09,756.02 M740.93,754.92l-0.37,0.05l0.09,0.62l0.37-0.05L740.93,754.92 M741.83,760.43
			l-0.37,0.07l0.12,0.61l0.37-0.07L741.83,760.43 M741.61,759.33l-0.37,0.07l0.12,0.61l0.37-0.07L741.61,759.33 M741.43,758.24
			l-0.37,0.06l0.09,0.62l0.37-0.06L741.43,758.24 M742.49,763.72l-0.37,0.08l0.14,0.61l0.37-0.08L742.49,763.72 M742.26,762.63
			l-0.37,0.08l0.12,0.61l0.37-0.08L742.26,762.63 M742.04,761.53l-0.37,0.07l0.12,0.61l0.37-0.08L742.04,761.53 M743.27,766.98
			l-0.36,0.09l0.16,0.6l0.36-0.09L743.27,766.98 M743.01,765.9l-0.36,0.09l0.14,0.61l0.36-0.09L743.01,765.9 M742.75,764.81
			l-0.37,0.08l0.14,0.61l0.36-0.09L742.75,764.81 M744.14,770.22l-0.36,0.1l0.17,0.6l0.36-0.1L744.14,770.22 M743.85,769.15
			l-0.36,0.1l0.16,0.6l0.36-0.1L743.85,769.15 M743.56,768.07l-0.36,0.1l0.16,0.6l0.36-0.1L743.56,768.07 M745.08,773.45l-0.36,0.11
			l0.18,0.6l0.36-0.11L745.08,773.45 M744.76,772.38l-0.36,0.11l0.18,0.6l0.36-0.11L744.76,772.38 M744.45,771.31l-0.36,0.1
			l0.18,0.6l0.36-0.1L744.45,771.31 M746.05,776.66l-0.36,0.11l0.18,0.6l0.36-0.11L746.05,776.66 M745.73,775.59l-0.36,0.11
			l0.18,0.6l0.36-0.11L745.73,775.59 M745.4,774.53l-0.36,0.11l0.18,0.6l0.36-0.11L745.4,774.53 M747.02,779.88l-0.36,0.11l0.17,0.6
			l0.36-0.1L747.02,779.88 M746.7,778.81l-0.36,0.11l0.18,0.6l0.36-0.11L746.7,778.81 M746.38,777.74l-0.36,0.11l0.18,0.6l0.36-0.11
			L746.38,777.74 M747.91,783.13l-0.36,0.09l0.14,0.61l0.36-0.09L747.91,783.13 M747.62,782.05l-0.36,0.1l0.16,0.6l0.36-0.09
			L747.62,782.05 M747.33,780.97l-0.36,0.1l0.16,0.6l0.36-0.1L747.33,780.97 M748.62,786.42l-0.37,0.07l0.1,0.61l0.37-0.06
			L748.62,786.42 M748.41,785.32l-0.37,0.08c0.05,0.2,0.1,0.4,0.12,0.61l0.37-0.07C748.51,785.72,748.46,785.52,748.41,785.32
			 M748.16,784.23l-0.37,0.08l0.14,0.61l0.37-0.08L748.16,784.23 M749.06,789.76l-0.37,0.03l0.05,0.62l0.37-0.02L749.06,789.76
			 M748.97,788.64l-0.37,0.04l0.05,0.62l0.37-0.04L748.97,788.64 M748.8,787.54l-0.37,0.06l0.1,0.61l0.37-0.05L748.8,787.54
			 M748.77,793.12l-0.01,0.62l0.37,0.02l0.01-0.63L748.77,793.12 M749.16,792.01l-0.38,0l-0.01,0.62l0.38,0.01L749.16,792.01
			 M749.15,790.89l-0.37,0.02c0.02,0.21,0.03,0.41,0.02,0.62l0.37-0.01C749.18,791.31,749.17,791.1,749.15,790.89 M210.35,121.14
			c33.84-33.73,69.98-50.18,105.61-50.18c36.35,0,72.24,17.12,104.68,50.68l0.72-0.7c-32.57-33.7-68.72-50.99-105.4-50.99
			c-35.95,0-72.34,16.61-106.31,50.47L210.35,121.14z M1232.5,246.8l45.54-19.55 M1233.09,248.18l45.54-19.55l-1.18-2.76
			l-45.54,19.55 M1266,907.72c-0.28,5.39-0.4,10.98-0.4,16.67c0,35.71,4.85,75.06,7.42,89.67l2.95-0.52
			c-2.53-14.39-7.38-53.72-7.37-89.15c0-5.64,0.12-11.19,0.4-16.51L1266,907.72z M1381.67,524.78l-0.02,0.62l0.37,0.01l0.02-0.62
			L1381.67,524.78 M1381.71,523.66l-0.02,0.62l0.38,0.01l0.02-0.62L1381.71,523.66 M1381.75,522.55l-0.02,0.62l0.37,0.01l0.02-0.62
			L1381.75,522.55 M1381.56,528.14l-0.02,0.62l0.37,0.01l0.02-0.62L1381.56,528.14 M1381.6,527.02l-0.02,0.62l0.38,0.01l0.02-0.62
			L1381.6,527.02 M1381.64,525.91l-0.02,0.62l0.37,0.01l0.02-0.62L1381.64,525.91 M1381.45,531.5l-0.02,0.62l0.37,0.01l0.02-0.62
			L1381.45,531.5 M1381.49,530.38l-0.02,0.62l0.38,0.01l0.02-0.62L1381.49,530.38 M1381.52,529.26l-0.02,0.62l0.37,0.01l0.02-0.62
			L1381.52,529.26 M1381.34,534.85l-0.02,0.62l0.37,0.01l0.02-0.62L1381.34,534.85 M1381.37,533.74l-0.02,0.62l0.38,0.01l0.02-0.62
			L1381.37,533.74 M1381.41,532.62l-0.02,0.62l0.37,0.01l0.02-0.62L1381.41,532.62 M1381.22,538.21l-0.02,0.62l0.37,0.01l0.02-0.62
			L1381.22,538.21 M1381.26,537.09l-0.02,0.62l0.38,0.01l0.02-0.62L1381.26,537.09 M1381.3,535.98l-0.02,0.62l0.37,0.01l0.02-0.62
			L1381.3,535.98 M1381.11,541.57l-0.02,0.62l0.37,0.01l0.02-0.62L1381.11,541.57 M1381.15,540.45l-0.02,0.62l0.38,0.01l0.02-0.62
			L1381.15,540.45 M1381.18,539.34l-0.02,0.62l0.37,0.01l0.02-0.62L1381.18,539.34 M1381,544.93l-0.02,0.62l0.37,0.01l0.02-0.62
			L1381,544.93 M1381.03,543.81l-0.02,0.62l0.37,0.01l0.02-0.62L1381.03,543.81 M1381.07,542.7l-0.02,0.62l0.37,0.01l0.02-0.62
			L1381.07,542.7 M1380.88,548.29l-0.02,0.62l0.37,0.01l0.02-0.62L1380.88,548.29 M1380.92,547.17l-0.02,0.62l0.37,0.01l0.02-0.62
			L1380.92,547.17 M1380.96,546.05l-0.02,0.62l0.37,0.01l0.02-0.62L1380.96,546.05 M1380.77,551.65l-0.02,0.62l0.37,0.01l0.02-0.62
			L1380.77,551.65 M1380.81,550.53l-0.02,0.62l0.37,0.01l0.02-0.62L1380.81,550.53 M1380.84,549.41l-0.02,0.62l0.37,0.01l0.02-0.62
			L1380.84,549.41 M1380.66,555l-0.02,0.62l0.37,0.01l0.02-0.62L1380.66,555 M1380.69,553.89l-0.02,0.62l0.37,0.01l0.02-0.62
			L1380.69,553.89 M1380.73,552.77l-0.02,0.62l0.37,0.01l0.02-0.62L1380.73,552.77 M1380.54,558.36l-0.02,0.62l0.37,0.01l0.02-0.62
			L1380.54,558.36 M1380.58,557.24l-0.02,0.62l0.37,0.01l0.02-0.62L1380.58,557.24 M1380.62,556.13l-0.02,0.62l0.37,0.01l0.02-0.62
			L1380.62,556.13 M1380.43,561.72l-0.02,0.62l0.37,0.01l0.02-0.62L1380.43,561.72 M1380.47,560.6l-0.02,0.62l0.37,0.01l0.02-0.62
			L1380.47,560.6 M1380.51,559.49l-0.02,0.62l0.37,0.01l0.02-0.62L1380.51,559.49 M1380.32,565.08l-0.02,0.62l0.38,0.01l0.02-0.62
			L1380.32,565.08 M1380.36,563.96l-0.02,0.62l0.37,0.01l0.02-0.62L1380.36,563.96 M1380.39,562.85l-0.02,0.62l0.37,0.01l0.02-0.62
			L1380.39,562.85 M1380.2,568.44l-0.02,0.62l0.38,0.01l0.02-0.62L1380.2,568.44 M1380.24,567.32l-0.02,0.62l0.37,0.01l0.02-0.62
			L1380.24,567.32 M1380.28,566.2l-0.02,0.62l0.37,0.01l0.02-0.62L1380.28,566.2 M1380.09,571.79l-0.02,0.62l0.38,0.01l0.02-0.62
			L1380.09,571.79 M1380.13,570.68l-0.02,0.62l0.37,0.01l0.02-0.62L1380.13,570.68 M1380.17,569.56l-0.02,0.62l0.37,0.01l0.02-0.62
			L1380.17,569.56 M1379.98,575.15l-0.02,0.62l0.38,0.01l0.02-0.62L1379.98,575.15 M1380.02,574.03l-0.02,0.62l0.37,0.01l0.02-0.62
			L1380.02,574.03 M1380.05,572.92l-0.02,0.62l0.38,0.01l0.02-0.62L1380.05,572.92 M1379.87,578.51l-0.02,0.62l0.38,0.01l0.02-0.62
			L1379.87,578.51 M1379.9,577.39l-0.02,0.62l0.37,0.01l0.02-0.62L1379.9,577.39 M1379.94,576.28l-0.02,0.62l0.38,0.01l0.02-0.62
			L1379.94,576.28 M1379.75,581.87l-0.02,0.62l0.38,0.01l0.02-0.62L1379.75,581.87 M1379.79,580.75l-0.02,0.62l0.37,0.01l0.02-0.62
			L1379.79,580.75 M1379.83,579.64l-0.02,0.62l0.38,0.01l0.02-0.62L1379.83,579.64 M1379.64,585.23l-0.02,0.62l0.38,0.01l0.02-0.62
			L1379.64,585.23 M1379.68,584.11l-0.02,0.62l0.37,0.01l0.02-0.62L1379.68,584.11 M1379.71,582.99l-0.02,0.62l0.38,0.01l0.02-0.62
			L1379.71,582.99 M1379.53,588.59l-0.02,0.62l0.37,0.01l0.02-0.62L1379.53,588.59 M1379.56,587.47l-0.02,0.62l0.37,0.01l0.02-0.62
			L1379.56,587.47 M1379.6,586.35l-0.02,0.62l0.38,0.01l0.02-0.62L1379.6,586.35 M1379.41,591.94l-0.02,0.62l0.37,0.01l0.02-0.62
			L1379.41,591.94 M1379.45,590.83l-0.02,0.62l0.37,0.01l0.02-0.62L1379.45,590.83 M1379.49,589.71l-0.02,0.62l0.38,0.01l0.02-0.62
			L1379.49,589.71 M1379.3,595.3l-0.02,0.62l0.37,0.01l0.02-0.62L1379.3,595.3 M1379.34,594.18l-0.02,0.62l0.37,0.01l0.02-0.62
			L1379.34,594.18 M1379.38,593.07l-0.02,0.62l0.38,0.01l0.02-0.62L1379.38,593.07 M1379.19,598.66l-0.02,0.62l0.37,0.01l0.02-0.62
			L1379.19,598.66 M1379.23,597.54l-0.02,0.62l0.38,0.01l0.02-0.62L1379.23,597.54 M1379.26,596.43l-0.02,0.62l0.37,0.01l0.02-0.62
			L1379.26,596.43 M1379.07,602.02l-0.02,0.62l0.37,0.01l0.02-0.62L1379.07,602.02 M1379.11,600.9l-0.02,0.62l0.38,0.01l0.02-0.62
			L1379.11,600.9 M1379.15,599.79l-0.02,0.62l0.37,0.01l0.02-0.62L1379.15,599.79 M1378.96,605.38l-0.02,0.62l0.37,0.01l0.02-0.62
			L1378.96,605.38 M1379,604.26l-0.02,0.62l0.38,0.01l0.02-0.62L1379,604.26 M1379.04,603.14l-0.02,0.62l0.37,0.01l0.02-0.62
			L1379.04,603.14 M1378.85,608.73l-0.02,0.62l0.37,0.01l0.02-0.62L1378.85,608.73 M1378.89,607.62l-0.02,0.62l0.38,0.01l0.02-0.62
			L1378.89,607.62 M1378.92,606.5l-0.02,0.62l0.37,0.01l0.02-0.62L1378.92,606.5 M1378.74,612.09l-0.02,0.62l0.37,0.01l0.02-0.62
			L1378.74,612.09 M1378.77,610.97l-0.02,0.62l0.38,0.01l0.02-0.62L1378.77,610.97 M1378.81,609.86l-0.02,0.62l0.37,0.01l0.02-0.62
			L1378.81,609.86 M1378.62,615.45l-0.02,0.62l0.37,0.01l0.02-0.62L1378.62,615.45 M1378.66,614.33l-0.02,0.62l0.38,0.01l0.02-0.62
			L1378.66,614.33 M1378.7,613.22l-0.02,0.62l0.37,0.01l0.02-0.62L1378.7,613.22 M1378.51,618.81l-0.02,0.62l0.37,0.01l0.02-0.62
			L1378.51,618.81 M1378.55,617.69l-0.02,0.62l0.38,0.01l0.02-0.62L1378.55,617.69 M1378.58,616.58l-0.02,0.62l0.37,0.01l0.02-0.62
			L1378.58,616.58 M1378.4,622.17l-0.02,0.62l0.37,0.01l0.02-0.62L1378.4,622.17 M1378.43,621.05l-0.02,0.62l0.37,0.01l0.02-0.62
			L1378.43,621.05 M1378.47,619.93l-0.02,0.62l0.37,0.01l0.02-0.62L1378.47,619.93 M1378.28,625.53l-0.02,0.62l0.37,0.01l0.02-0.62
			L1378.28,625.53 M1378.32,624.41l-0.02,0.62l0.37,0.01l0.02-0.62L1378.32,624.41 M1378.36,623.29l-0.02,0.62l0.37,0.01l0.02-0.62
			L1378.36,623.29 M1378.17,628.88l-0.02,0.62l0.37,0.01l0.02-0.62L1378.17,628.88 M1378.21,627.77l-0.02,0.62l0.37,0.01l0.02-0.62
			L1378.21,627.77 M1378.25,626.65l-0.02,0.62l0.37,0.01l0.02-0.62L1378.25,626.65 M1378.06,632.24l-0.02,0.62l0.37,0.01l0.02-0.62
			L1378.06,632.24 M1378.1,631.12l-0.02,0.62l0.37,0.01l0.02-0.62L1378.1,631.12 M1378.13,630.01l-0.02,0.62l0.37,0.01l0.02-0.62
			L1378.13,630.01 M1377.94,635.6l-0.02,0.62l0.37,0.01l0.02-0.62L1377.94,635.6 M1377.98,634.48l-0.02,0.62l0.37,0.01l0.02-0.62
			L1377.98,634.48 M1378.02,633.37l-0.02,0.62l0.37,0.01l0.02-0.62L1378.02,633.37 M1377.83,638.96l-0.02,0.62l0.38,0.01l0.02-0.62
			L1377.83,638.96 M1377.87,637.84l-0.02,0.62l0.37,0.01l0.02-0.62L1377.87,637.84 M1377.91,636.73l-0.02,0.62l0.37,0.01l0.02-0.62
			L1377.91,636.73 M1377.72,642.32l-0.02,0.62l0.38,0.01l0.02-0.62L1377.72,642.32 M1377.76,641.2l-0.02,0.62l0.37,0.01l0.02-0.62
			L1377.76,641.2 M1377.79,640.08l-0.02,0.62l0.37,0.01l0.02-0.62L1377.79,640.08 M1377.61,645.67l-0.02,0.62l0.38,0.01l0.02-0.62
			L1377.61,645.67 M1377.64,644.56l-0.02,0.62l0.37,0.01l0.02-0.62L1377.64,644.56 M1377.68,643.44l-0.02,0.62l0.37,0.01l0.02-0.62
			L1377.68,643.44 M1377.49,649.03l-0.02,0.62l0.38,0.01l0.02-0.62L1377.49,649.03 M1377.53,647.91l-0.02,0.62l0.37,0.01l0.02-0.62
			L1377.53,647.91 M1377.57,646.8l-0.02,0.62l0.37,0.01l0.02-0.62L1377.57,646.8 M1377.38,652.39l-0.02,0.62l0.38,0.01l0.02-0.62
			L1377.38,652.39 M1377.42,651.27l-0.02,0.62l0.37,0.01l0.02-0.62L1377.42,651.27 M1377.45,650.16l-0.02,0.62l0.38,0.01l0.02-0.62
			L1377.45,650.16 M1377.27,655.75l-0.02,0.62l0.38,0.01l0.02-0.62L1377.27,655.75 M1377.3,654.63l-0.02,0.62l0.37,0.01l0.02-0.62
			L1377.3,654.63 M1377.34,653.52l-0.02,0.62l0.38,0.01l0.02-0.62L1377.34,653.52 M1377.15,659.11l-0.02,0.62l0.38,0.01l0.02-0.62
			L1377.15,659.11 M1377.19,657.99l-0.02,0.62l0.37,0.01l0.02-0.62L1377.19,657.99 M1377.23,656.87l-0.02,0.62l0.38,0.01l0.02-0.62
			L1377.23,656.87 M1377.04,662.46l-0.02,0.62l0.37,0.01l0.02-0.62L1377.04,662.46 M1377.08,661.35l-0.02,0.62l0.37,0.01l0.02-0.62
			L1377.08,661.35 M1377.12,660.23l-0.02,0.62l0.38,0.01l0.02-0.62L1377.12,660.23 M1376.93,665.82l-0.02,0.62l0.37,0.01l0.02-0.62
			L1376.93,665.82 M1376.97,664.71l-0.02,0.62l0.37,0.01l0.02-0.62L1376.97,664.71 M1377,663.59l-0.02,0.62l0.38,0.01l0.02-0.62
			L1377,663.59 M1376.81,669.18l-0.02,0.62l0.37,0.01l0.02-0.62L1376.81,669.18 M1376.85,668.06l-0.02,0.62l0.37,0.01l0.02-0.62
			L1376.85,668.06 M1376.89,666.95l-0.02,0.62l0.38,0.01l0.02-0.62L1376.89,666.95 M1376.7,672.54l-0.02,0.62l0.37,0.01l0.02-0.62
			L1376.7,672.54 M1376.74,671.42l-0.02,0.62l0.38,0.01l0.02-0.62L1376.74,671.42 M1376.78,670.31l-0.02,0.62l0.38,0.01l0.02-0.62
			L1376.78,670.31 M1376.59,675.9l-0.02,0.62l0.37,0.01l0.02-0.62L1376.59,675.9 M1376.63,674.78l-0.02,0.62l0.38,0.01l0.02-0.62
			L1376.63,674.78 M1376.66,673.67l-0.02,0.62l0.37,0.01l0.02-0.62L1376.66,673.67 M1376.48,679.26l-0.02,0.62l0.37,0.01l0.02-0.62
			L1376.48,679.26 M1376.51,678.14l-0.02,0.62l0.38,0.01l0.02-0.62L1376.51,678.14 M1376.55,677.02l-0.02,0.62l0.37,0.01l0.02-0.62
			L1376.55,677.02 M1376.36,682.61l-0.02,0.62l0.37,0.01l0.02-0.62L1376.36,682.61 M1376.4,681.5l-0.02,0.62l0.38,0.01l0.02-0.62
			L1376.4,681.5 M1376.44,680.38l-0.02,0.62l0.37,0.01l0.02-0.62L1376.44,680.38 M1376.25,685.97l-0.02,0.62l0.37,0.01l0.02-0.62
			L1376.25,685.97 M1376.29,684.85l-0.02,0.62l0.38,0.01l0.02-0.62L1376.29,684.85 M1376.32,683.74l-0.02,0.62l0.37,0.01l0.02-0.62
			L1376.32,683.74 M1376.14,689.33l-0.02,0.62l0.37,0.01l0.02-0.62L1376.14,689.33 M1376.17,688.21l-0.02,0.62l0.38,0.01l0.02-0.62
			L1376.17,688.21 M1376.21,687.1l-0.02,0.62l0.37,0.01l0.02-0.62L1376.21,687.1 M1376.02,692.69l-0.02,0.62l0.37,0.01l0.02-0.62
			L1376.02,692.69 M1376.06,691.57l-0.02,0.62l0.38,0.01l0.02-0.62L1376.06,691.57 M1376.1,690.46l-0.02,0.62l0.37,0.01l0.02-0.62
			L1376.1,690.46 M1375.91,696.05l-0.02,0.62l0.37,0.01l0.02-0.62L1375.91,696.05 M1375.95,694.93l-0.02,0.62l0.38,0.01l0.02-0.62
			L1375.95,694.93 M1375.99,693.81l-0.02,0.62l0.37,0.01l0.02-0.62L1375.99,693.81 M1375.8,699.4l-0.02,0.62l0.37,0.01l0.02-0.62
			L1375.8,699.4 M1375.83,698.29l-0.02,0.62l0.37,0.01l0.02-0.62L1375.83,698.29 M1375.87,697.17l-0.02,0.62l0.37,0.01l0.02-0.62
			L1375.87,697.17 M1375.68,702.76l-0.02,0.62l0.37,0.01l0.02-0.62L1375.68,702.76 M1375.72,701.65l-0.02,0.62l0.37,0.01l0.02-0.62
			L1375.72,701.65 M1375.76,700.53l-0.02,0.62l0.37,0.01l0.02-0.62L1375.76,700.53 M1375.57,706.12l-0.02,0.62l0.37,0.01l0.02-0.62
			L1375.57,706.12 M1375.61,705l-0.02,0.62l0.37,0.01l0.02-0.62L1375.61,705 M1375.65,703.89l-0.02,0.62l0.37,0.01l0.02-0.62
			L1375.65,703.89 M1375.46,709.48l-0.02,0.62l0.37,0.01l0.02-0.62L1375.46,709.48 M1375.5,708.36l-0.02,0.62l0.37,0.01l0.02-0.62
			L1375.5,708.36 M1375.53,707.25l-0.02,0.62l0.37,0.01l0.02-0.62L1375.53,707.25 M1375.35,712.84l-0.02,0.62l0.37,0.01l0.02-0.62
			L1375.35,712.84 M1375.38,711.72l-0.02,0.62l0.37,0.01l0.02-0.62L1375.38,711.72 M1375.42,710.61l-0.02,0.62l0.37,0.01l0.02-0.62
			L1375.42,710.61 M1375.23,716.2l-0.02,0.62l0.38,0.01l0.02-0.62L1375.23,716.2 M1375.27,715.08l-0.02,0.62l0.37,0.01l0.02-0.62
			L1375.27,715.08 M1375.31,713.96l-0.02,0.62l0.37,0.01l0.02-0.62L1375.31,713.96 M1375.12,719.55l-0.02,0.62l0.37,0.01l0.02-0.62
			L1375.12,719.55 M1375.16,718.44l-0.02,0.62l0.37,0.01l0.02-0.62L1375.16,718.44 M1375.19,717.32l-0.02,0.62l0.37,0.01l0.02-0.62
			L1375.19,717.32 M1375.01,722.91l-0.02,0.62l0.37,0.01l0.02-0.62L1375.01,722.91 M1375.04,721.79l-0.02,0.62l0.37,0.01l0.02-0.62
			L1375.04,721.79 M1375.08,720.68l-0.02,0.62l0.37,0.01l0.02-0.62L1375.08,720.68 M1374.89,726.27l-0.02,0.62l0.38,0.01l0.02-0.62
			L1374.89,726.27 M1374.93,725.15l-0.02,0.62l0.37,0.01l0.02-0.62L1374.93,725.15 M1374.97,724.04l-0.02,0.62l0.38,0.01l0.02-0.62
			L1374.97,724.04 M1374.78,729.63l-0.02,0.63l0.38,0.01l0.02-0.62L1374.78,729.63 M1374.82,728.51l-0.02,0.62l0.37,0.01l0.02-0.62
			L1374.82,728.51 M1374.86,727.4l-0.02,0.62l0.38,0.01l0.02-0.62L1374.86,727.4 M1375.22,732.99l-0.37,0.01l0.02,0.62l0.38-0.01
			L1375.22,732.99 M1375.18,731.87l-0.37,0.02l0.02,0.62l0.37-0.01L1375.18,731.87 M1375.15,730.76l-0.37,0.02l0.02,0.62l0.37-0.02
			L1375.15,730.76 M1375.33,736.35l-0.37,0.01l0.02,0.62l0.38,0L1375.33,736.35 M1375.29,735.23l-0.38,0.01l0.02,0.62l0.38-0.01
			L1375.29,735.23 M1375.26,734.12l-0.38,0.01l0.02,0.62l0.38-0.01L1375.26,734.12 M1374.94,739.71l-0.01,0.62l0.38,0.01l0.01-0.62
			L1374.94,739.71 M1374.96,738.59l-0.01,0.62l0.38,0l0.01-0.62L1374.96,738.59 M1375.34,737.48l-0.38,0l-0.01,0.62l0.37,0
			L1375.34,737.48 M1374.9,743.06l-0.04,0.62l0.37,0.02l0.04-0.62L1374.9,743.06 M1374.92,741.95l-0.01,0.62l0.37,0.01l0.01-0.62
			L1374.92,741.95 M1374.93,740.83l-0.01,0.62l0.37,0.01l0.01-0.62L1374.93,740.83 M1374.71,746.41l-0.04,0.62l0.37,0.03l0.04-0.62
			L1374.71,746.41 M1374.77,745.3l-0.04,0.62l0.37,0.02l0.04-0.62L1374.77,745.3 M1374.84,744.19l-0.04,0.62l0.37,0.02l0.04-0.62
			L1374.84,744.19 M1374.46,749.75l-0.06,0.62l0.37,0.04l0.06-0.62L1374.46,749.75 M1374.57,748.64l-0.06,0.62l0.37,0.03l0.06-0.62
			L1374.57,748.64 M1374.64,747.53l-0.04,0.62l0.37,0.03l0.04-0.62L1374.64,747.53 M1374.11,753.09c-0.02,0.21-0.04,0.41-0.07,0.62
			l0.37,0.05c0.03-0.21,0.05-0.41,0.07-0.62L1374.11,753.09 M1374.22,751.98l-0.06,0.62l0.37,0.04l0.07-0.62L1374.22,751.98
			 M1374.34,750.87l-0.06,0.62l0.37,0.04l0.06-0.62L1374.34,750.87 M1373.63,756.41l-0.09,0.62l0.37,0.06l0.09-0.62L1373.63,756.41
			 M1373.8,755.3l-0.09,0.62l0.37,0.06l0.09-0.62L1373.8,755.3 M1373.96,754.2l-0.09,0.62l0.37,0.05l0.09-0.62L1373.96,754.2
			 M1373.06,759.71l-0.12,0.61l0.37,0.07l0.12-0.61L1373.06,759.71 M1373.28,758.61l-0.12,0.61l0.37,0.07l0.12-0.61L1373.28,758.61
			 M1373.46,757.52l-0.09,0.62l0.37,0.06l0.09-0.62L1373.46,757.52 M1372.4,763l-0.14,0.61l0.37,0.08l0.14-0.61L1372.4,763
			 M1372.64,761.9l-0.12,0.61l0.37,0.08l0.12-0.61L1372.64,761.9 M1372.85,760.81l-0.12,0.61l0.37,0.08l0.12-0.61L1372.85,760.81
			 M1371.63,766.26l-0.16,0.6l0.36,0.09l0.16-0.6L1371.63,766.26 M1371.88,765.17l-0.14,0.61l0.36,0.09l0.14-0.61L1371.88,765.17
			 M1372.14,764.09l-0.14,0.61l0.36,0.09l0.14-0.61L1372.14,764.09 M1370.76,769.5l-0.17,0.6l0.36,0.1l0.17-0.6L1370.76,769.5
			 M1371.05,768.42l-0.16,0.6l0.36,0.1l0.16-0.6L1371.05,768.42 M1371.34,767.34l-0.16,0.6l0.36,0.1l0.16-0.6L1371.34,767.34
			 M1369.82,772.72l-0.18,0.6l0.36,0.11l0.18-0.6L1369.82,772.72 M1370.13,771.65l-0.18,0.6l0.36,0.11l0.18-0.6L1370.13,771.65
			 M1370.45,770.58l-0.18,0.6l0.36,0.1l0.18-0.6L1370.45,770.58 M1368.84,775.93l-0.18,0.6l0.36,0.11l0.18-0.6L1368.84,775.93
			 M1369.17,774.86l-0.18,0.6l0.36,0.11l0.18-0.6L1369.17,774.86 M1369.49,773.8l-0.18,0.6l0.36,0.11l0.18-0.6L1369.49,773.8
			 M1367.87,779.15l-0.17,0.6l0.36,0.1l0.17-0.6L1367.87,779.15 M1368.19,778.08l-0.18,0.6l0.36,0.11l0.18-0.6L1368.19,778.08
			 M1368.51,777.01l-0.18,0.6l0.36,0.11l0.18-0.6L1368.51,777.01 M1366.98,782.4l-0.14,0.61l0.36,0.09l0.14-0.61L1366.98,782.4
			 M1367.27,781.32l-0.17,0.6l0.36,0.09l0.17-0.6L1367.27,781.32 M1367.57,780.24l-0.17,0.6l0.36,0.1l0.17-0.6L1367.57,780.24
			 M1366.27,785.7l-0.1,0.62l0.37,0.06l0.1-0.61L1366.27,785.7 M1366.48,784.6c-0.05,0.2-0.1,0.41-0.13,0.61l0.37,0.07
			c0.03-0.21,0.08-0.41,0.12-0.61L1366.48,784.6 M1366.73,783.51l-0.14,0.61l0.37,0.08l0.14-0.61L1366.73,783.51 M1365.83,789.05
			l-0.05,0.63l0.37,0.02l0.05-0.62L1365.83,789.05 M1365.92,787.93l-0.05,0.63l0.37,0.04l0.05-0.62L1365.92,787.93 M1366.09,786.82
			l-0.1,0.62l0.37,0.05l0.1-0.61L1366.09,786.82 M1366.12,792.42l-0.37,0.01l0.01,0.63l0.37-0.02L1366.12,792.42 M1365.73,791.31
			l0.01,0.63l0.37-0.01l-0.01-0.62L1365.73,791.31 M1365.74,790.19c-0.02,0.21-0.03,0.42-0.02,0.63l0.38,0.01
			c-0.01-0.21,0-0.41,0.02-0.62L1365.74,790.19 M1186.5,65.8l0.39,0.31c9.9-12.3,29.13-23.02,51.73-30.63
			c22.6-7.62,48.58-12.13,71.97-12.13c24.8-0.01,46.68,5.1,58.56,16.81c17.82,17.54,24.23,43.03,24.23,70.58
			c0,34.55-10.08,72.27-20.16,101.35c-5.04,14.54-10.09,26.91-13.87,35.66c-1.89,4.37-3.47,7.83-4.57,10.2
			c-0.55,1.18-0.98,2.09-1.28,2.71c-0.29,0.61-0.45,0.93-0.45,0.93l0.45,0.22l-0.32-0.39l-119,98l0.32,0.39l0.44,0.23
			c28.79-54.65,47.34-124.95,47.35-183.89c0-31.01-5.14-58.89-16.67-79.71c-11.53-20.82-29.53-34.56-55.07-37.13l-0.09-0.01
			l-24.08,6.02L1186.5,65.8l0.39,0.31L1186.5,65.8l0.12,0.49l24-6l-0.12-0.49l-0.05,0.5c25.22,2.56,42.87,16.03,54.29,36.62
			c11.42,20.59,16.55,48.32,16.55,79.22c0,58.74-18.52,128.93-47.23,183.43l-1.16,2.2l121-99.65l0.05-0.1
			c0.01-0.01,10.11-20.47,20.21-49.61c10.1-29.14,20.22-66.94,20.22-101.68c0-27.7-6.43-53.48-24.53-71.29
			c-12.24-12.02-34.33-17.09-59.26-17.1c-23.52,0-49.58,4.54-72.29,12.19c-22.71,7.66-42.07,18.4-52.19,30.95l-0.93,1.16l1.45-0.36
			L1186.5,65.8z M1283.95,320.02c23.4-48.8,37.22-106.52,37.22-156.57c0-33.26-6.1-63.14-19.61-84.76
			c-13.5-21.62-34.48-34.93-63.98-34.92c-8.66,0-18.04,1.14-28.2,3.54l0.23,0.97c10.09-2.39,19.4-3.52,27.97-3.52
			c29.2,0.01,49.76,13.08,63.14,34.45c13.36,21.37,19.46,51.08,19.46,84.23c0,49.86-13.78,107.48-37.12,156.13L1283.95,320.02z
			 M1194.07,217.03c0.95,3.39,1.93,6.8,2.94,10.23l0.96-0.28c-1.01-3.43-1.98-6.83-2.93-10.22L1194.07,217.03z M1187.44,64.27
			c-3.94,6.29-5.53,16.07-5.53,28.17c0,4.59,0.23,9.52,0.66,14.71l1-0.08c-0.43-5.17-0.66-10.07-0.66-14.62
			c-0.01-12.01,1.62-21.65,5.38-27.63L1187.44,64.27z M1213.52,248.44c3.49,11.78,5.54,21.94,9.5,34.01l0.95-0.31
			c-3.95-12.01-5.99-22.15-9.5-33.99L1213.52,248.44z M928.5,66.5l0.39-0.31c-10.12-12.55-29.48-23.3-52.19-30.95
			c-22.71-7.65-48.77-12.18-72.29-12.19c-24.93,0.01-47.02,5.07-59.26,17.1c-18.09,17.81-24.53,43.6-24.53,71.29
			c0,34.74,10.11,72.54,20.22,101.68c10.1,29.13,20.21,49.6,20.21,49.61l0.05,0.1l121,99.65l-1.16-2.2
			c-28.71-54.5-47.23-124.69-47.23-183.43c0-30.9,5.13-58.63,16.55-79.22c11.43-20.59,29.07-34.06,54.29-36.62l-0.05-0.5l-0.12,0.49
			l25.45,6.36l-0.93-1.16L928.5,66.5l0.12-0.49l-24.08-6.02L904.45,60c-25.54,2.57-43.54,16.31-55.07,37.13
			c-11.54,20.82-16.67,48.69-16.67,79.71c0,58.95,18.56,129.24,47.35,183.89l0.44-0.23l0.32-0.39l-119-98l-0.32,0.39l0.45-0.22
			c0,0-0.16-0.32-0.45-0.93c-4.43-9.2-39.89-85.13-39.88-149.91c0-27.56,6.41-53.04,24.23-70.58
			c11.88-11.71,33.76-16.82,58.56-16.81c23.39,0,49.37,4.52,71.97,12.13c22.6,7.61,41.83,18.34,51.73,30.63L928.5,66.5l0.12-0.49
			L928.5,66.5z M831.95,320.28c-23.34-48.65-37.12-106.27-37.12-156.13c0-33.14,6.09-62.86,19.46-84.23
			c13.37-21.37,33.94-34.44,63.14-34.45c8.57,0,17.88,1.13,27.97,3.52l0.23-0.97c-10.15-2.4-19.54-3.54-28.2-3.54
			c-29.51-0.01-50.49,13.3-63.98,34.92c-13.51,21.62-19.61,51.49-19.61,84.76c0,50.05,13.82,107.77,37.22,156.57L831.95,320.28z
			 M919.96,217.46c-0.95,3.38-1.93,6.79-2.93,10.22l0.96,0.28c1.01-3.43,1.99-6.84,2.94-10.23L919.96,217.46z M926.71,65.5
			c3.76,5.99,5.39,15.63,5.38,27.63c0,4.56-0.23,9.45-0.66,14.62l1,0.08c0.43-5.19,0.66-10.12,0.66-14.71
			c-0.01-12.1-1.6-21.88-5.53-28.17L926.71,65.5z M890.95,370.29l-1.43,0.45c0.25,0.79,0.52,1.57,0.74,2.37l1.43-0.44
			C891.47,371.87,891.2,371.09,890.95,370.29z M889.58,366.04l-1.43,0.46l0.76,2.36l1.43-0.45L889.58,366.04z M888.22,361.8
			l-1.42,0.47l0.76,2.36l1.43-0.47L888.22,361.8z M894.76,383.16l-1.44,0.4l0.64,2.4l1.45-0.4L894.76,383.16z M893.5,378.87
			l-1.44,0.42l0.7,2.38l1.44-0.41L893.5,378.87z M892.26,374.6l-1.44,0.43l0.7,2.38l1.44-0.42L892.26,374.6z M898.16,396.13
			l-1.46,0.36l0.58,2.41l1.46-0.35L898.16,396.13z M897.05,391.81l-1.45,0.38l0.63,2.4l1.45-0.37L897.05,391.81z M895.91,387.5
			l-1.45,0.39l0.63,2.4l1.45-0.38L895.91,387.5z M901.21,409.19l-1.46,0.32l0.52,2.43l1.47-0.32L901.21,409.19z M900.24,404.83
			l-1.46,0.34c0.19,0.81,0.4,1.61,0.56,2.42l1.46-0.33C900.64,406.45,900.43,405.64,900.24,404.83z M899.21,400.51l-1.46,0.35
			l0.58,2.41l1.46-0.34L899.21,400.51z M903.93,422.33l-1.47,0.29l0.46,2.44l1.47-0.28L903.93,422.33z M903.08,417.94l-1.47,0.3
			c0.18,0.81,0.32,1.62,0.48,2.44l1.47-0.29C903.4,419.57,903.26,418.75,903.08,417.94z M902.15,413.59l-1.47,0.31l0.52,2.43
			l1.47-0.3L902.15,413.59z M906.33,435.52l-1.48,0.25l0.41,2.45l1.48-0.25L906.33,435.52z M905.59,431.12l-1.48,0.26l0.41,2.45
			l1.48-0.26L905.59,431.12z M904.77,426.74l-1.47,0.27l0.46,2.44l1.48-0.27L904.77,426.74z M908.43,448.76l-1.48,0.22l0.36,2.46
			l1.48-0.21L908.43,448.76z M907.78,444.35l-1.48,0.23l0.36,2.46l1.48-0.22L907.78,444.35z M907.08,439.95l-1.48,0.24l0.41,2.45
			l1.48-0.23L907.08,439.95z M910.25,462.05l-1.49,0.19l0.32,2.46l1.49-0.18L910.25,462.05z M909.69,457.62l-1.49,0.2l0.32,2.46
			l1.49-0.19L909.69,457.62z M909.09,453.21l-1.49,0.21c0.12,0.82,0.25,1.64,0.35,2.46l1.49-0.2
			C909.34,454.85,909.21,454.03,909.09,453.21z M911.81,475.37l-1.49,0.16l0.27,2.47l1.49-0.15L911.81,475.37z M911.33,470.93
			l-1.49,0.17l0.27,2.47l1.49-0.16L911.33,470.93z M910.83,466.51l-1.49,0.18c0.11,0.82,0.2,1.64,0.29,2.47l1.49-0.17
			C911.02,468.16,910.94,467.33,910.83,466.51z M913.12,488.71l-1.49,0.13l0.23,2.47l1.49-0.13L913.12,488.71z M912.71,484.27
			l-1.49,0.14l0.23,2.47l1.49-0.14L912.71,484.27z M912.3,479.84l-1.49,0.15l0.23,2.47l1.49-0.15L912.3,479.84z M914.2,502.08
			l-1.5,0.11l0.19,2.48l1.5-0.1L914.2,502.08z M913.87,497.63l-1.5,0.12l0.19,2.48l1.5-0.11L913.87,497.63z M913.53,493.19
			l-1.49,0.12l0.19,2.48l1.5-0.12L913.53,493.19z M915.07,515.46l-1.5,0.09l0.15,2.48l1.5-0.08L915.07,515.46z M914.8,511l-1.5,0.09
			l0.15,2.48l1.5-0.09L914.8,511z M914.53,506.56l-1.5,0.1l0.15,2.48l1.5-0.1L914.53,506.56z M915.74,528.85l-1.5,0.06l0.12,2.48
			l1.5-0.06L915.74,528.85z M915.54,524.39l-1.5,0.07l0.12,2.48l1.5-0.07L915.54,524.39z M915.33,519.94l-1.5,0.08l0.12,2.48
			l1.5-0.07L915.33,519.94z M916.23,542.24l-1.5,0.05l0.08,2.48l1.5-0.04L916.23,542.24z M916.09,537.78l-1.5,0.05l0.08,2.48
			l1.5-0.05L916.09,537.78z M915.94,533.34l-1.5,0.06l0.08,2.48l1.5-0.05L915.94,533.34z M916.56,555.64l-1.5,0.03l0.05,2.48
			l1.5-0.02L916.56,555.64z M916.46,551.18l-1.5,0.03l0.05,2.48l1.5-0.03L916.46,551.18z M916.37,546.73l-1.5,0.04l0.05,2.48
			l1.5-0.04L916.37,546.73z M916.72,569.05l-1.5,0.01l0.02,2.49l1.5-0.01L916.72,569.05z M916.68,564.59l-1.5,0.02l0.02,2.49
			l1.5-0.01L916.68,564.59z M916.64,560.14l-1.5,0.02l0.02,2.49l1.5-0.02L916.64,560.14z M916.75,582.45l-1.5,0l0,2.49l1.5,0.01
			L916.75,582.45z M916.76,577.99l-1.5,0l0,2.49l1.5,0L916.76,577.99z M916.76,573.54l-1.5,0.01l0,2.49l1.5,0L916.76,573.54z
			 M916.65,595.86l-1.5-0.02l-0.03,2.49l1.5,0.02L916.65,595.86z M916.7,591.39l-1.5-0.01l-0.03,2.49l1.5,0.02L916.7,591.39z
			 M916.75,586.95l-1.5-0.01l-0.03,2.49l1.5,0.01L916.75,586.95z M916.44,609.26l-1.5-0.03l-0.05,2.49l1.5,0.03L916.44,609.26z
			 M916.52,604.8l-1.5-0.03l-0.05,2.49l1.5,0.03L916.52,604.8z M916.6,600.35l-1.5-0.02l-0.04,2.49l1.5,0.02L916.6,600.35z
			 M916.11,622.66l-1.5-0.04l-0.07,2.48l1.5,0.04L916.11,622.66z M916.24,618.2l-1.5-0.04l-0.07,2.48l1.5,0.04L916.24,618.2z
			 M916.35,613.75l-1.5-0.03l-0.06,2.49l1.5,0.04L916.35,613.75z M915.69,636.05l-1.5-0.05l-0.09,2.48l1.5,0.05L915.69,636.05z
			 M915.85,631.59l-1.5-0.05l-0.09,2.48l1.5,0.05L915.85,631.59z M915.99,627.15l-1.5-0.05l-0.07,2.48l1.5,0.05L915.99,627.15z
			 M915.19,649.45l-1.5-0.06l-0.1,2.48l1.5,0.06L915.19,649.45z M915.38,644.99l-1.5-0.06l-0.1,2.48l1.5,0.06L915.38,644.99z
			 M915.54,640.54l-1.5-0.05l-0.09,2.48l1.5,0.06L915.54,640.54z M914.61,662.84l-1.5-0.07l-0.12,2.48l1.5,0.07L914.61,662.84z
			 M914.82,658.38l-1.5-0.07l-0.11,2.48l1.5,0.07L914.82,658.38z M915,653.94l-1.5-0.06l-0.1,2.48l1.5,0.07L915,653.94z
			 M913.96,676.22l-1.5-0.08l-0.13,2.48l1.5,0.08L913.96,676.22z M914.19,671.77l-1.5-0.07l-0.12,2.48l1.5,0.08L914.19,671.77z
			 M914.4,667.32l-1.5-0.07l-0.12,2.48l1.5,0.07L914.4,667.32z M913.25,689.6l-1.5-0.08l-0.14,2.48l1.5,0.08L913.25,689.6z
			 M913.49,685.15l-1.5-0.08l-0.13,2.48l1.5,0.08L913.49,685.15z M913.73,680.71l-1.5-0.08l-0.13,2.48l1.5,0.08L913.73,680.71z
			 M912.49,702.98l-1.5-0.09l-0.15,2.48l1.5,0.09L912.49,702.98z M912.74,698.53l-1.5-0.09l-0.14,2.48l1.5,0.09L912.74,698.53z
			 M913,694.09l-1.5-0.08l-0.14,2.48l1.5,0.09L913,694.09z M911.67,716.35l-1.5-0.09l-0.15,2.48l1.5,0.09L911.67,716.35z
			 M911.95,711.9l-1.5-0.09l-0.15,2.48l1.5,0.09L911.95,711.9z M912.22,707.46l-1.5-0.09l-0.15,2.48l1.5,0.09L912.22,707.46z
			 M910.82,729.73l-1.5-0.1l-0.16,2.48l1.5,0.1L910.82,729.73z M911.11,725.28l-1.5-0.1l-0.16,2.48l1.5,0.1L911.11,725.28z
			 M911.4,720.84l-1.5-0.09l-0.16,2.48l1.5,0.1L911.4,720.84z M909.94,743.11l-1.5-0.1l-0.17,2.48l1.5,0.1L909.94,743.11z
			 M910.24,738.65l-1.5-0.1l-0.17,2.48l1.5,0.1L910.24,738.65z M910.53,734.22l-1.5-0.1l-0.16,2.48l1.5,0.1L910.53,734.22z
			 M909.03,756.47l-1.5-0.1l-0.17,2.48l1.5,0.1L909.03,756.47z M909.34,752.02l-1.5-0.1l-0.17,2.48l1.5,0.1L909.34,752.02z
			 M909.64,747.59l-1.5-0.1l-0.17,2.48l1.5,0.1L909.64,747.59z M908.1,769.84l-1.5-0.11l-0.18,2.48l1.5,0.11L908.1,769.84z
			 M908.41,765.39l-1.5-0.1l-0.17,2.48l1.5,0.11L908.41,765.39z M908.72,760.96l-1.5-0.1l-0.17,2.48l1.5,0.1L908.72,760.96z
			 M907.15,783.21l-1.5-0.11l-0.18,2.48l1.5,0.11L907.15,783.21z M907.46,778.76l-1.5-0.11l-0.18,2.48l1.5,0.11L907.46,778.76z
			 M907.78,774.32l-1.5-0.11l-0.18,2.48l1.5,0.11L907.78,774.32z M906.19,796.57l-1.5-0.11l-0.18,2.48l1.5,0.11L906.19,796.57z
			 M906.51,792.12l-1.5-0.11l-0.18,2.48l1.5,0.11L906.51,792.12z M906.83,787.69l-1.5-0.11l-0.18,2.48l1.5,0.11L906.83,787.69z
			 M1225.72,369.61l-1.43-0.45c-0.25,0.79-0.52,1.58-0.75,2.38l1.43,0.44C1225.2,371.18,1225.47,370.4,1225.72,369.61z
			 M1227.08,365.37l-1.43-0.46l-0.76,2.37l1.43,0.45L1227.08,365.37z M1228.44,361.14l-1.42-0.47l-0.76,2.37l1.43,0.47
			L1228.44,361.14z M1221.92,382.44l-1.44-0.4l-0.64,2.41l1.45,0.4L1221.92,382.44z M1223.17,378.16l-1.44-0.42l-0.7,2.39l1.44,0.41
			L1223.17,378.16z M1224.41,373.9l-1.44-0.43l-0.7,2.39l1.44,0.42L1224.41,373.9z M1218.52,395.39l-1.46-0.36l-0.58,2.42l1.46,0.35
			L1218.52,395.39z M1219.63,391.07l-1.45-0.38l-0.64,2.41l1.45,0.37L1219.63,391.07z M1220.76,386.78l-1.45-0.39l-0.64,2.41
			l1.45,0.38L1220.76,386.78z M1215.47,408.42l-1.46-0.32l-0.52,2.44l1.47,0.32L1215.47,408.42z M1216.45,404.07l-1.46-0.34
			c-0.19,0.81-0.4,1.61-0.56,2.43l1.46,0.33C1216.05,405.68,1216.26,404.88,1216.45,404.07z M1217.48,399.75l-1.46-0.35l-0.58,2.42
			l1.46,0.34L1217.48,399.75z M1212.76,421.53l-1.47-0.29l-0.47,2.45l1.47,0.28L1212.76,421.53z M1213.61,417.15l-1.47-0.3
			c-0.18,0.81-0.32,1.63-0.48,2.45l1.47,0.29C1213.29,418.78,1213.43,417.96,1213.61,417.15z M1214.54,412.81l-1.47-0.31l-0.52,2.44
			l1.47,0.3L1214.54,412.81z M1210.37,434.7l-1.48-0.25l-0.41,2.46l1.48,0.25L1210.37,434.7z M1211.11,430.3l-1.48-0.26l-0.41,2.46
			l1.48,0.26L1211.11,430.3z M1211.92,425.94l-1.47-0.27l-0.47,2.45l1.48,0.27L1211.92,425.94z M1208.27,447.92l-1.48-0.22
			l-0.36,2.46l1.48,0.21L1208.27,447.92z M1208.92,443.51l-1.48-0.23l-0.36,2.46l1.48,0.22L1208.92,443.51z M1209.62,439.12
			l-1.48-0.24l-0.41,2.46l1.48,0.23L1209.62,439.12z M1206.45,461.18l-1.49-0.19l-0.32,2.47l1.49,0.18L1206.45,461.18z
			 M1207.02,456.76l-1.49-0.2l-0.32,2.47l1.49,0.19L1207.02,456.76z M1207.61,452.36l-1.49-0.21c-0.12,0.82-0.25,1.64-0.35,2.47
			l1.49,0.2C1207.36,454,1207.5,453.18,1207.61,452.36z M1204.9,474.48l-1.49-0.16l-0.27,2.48l1.49,0.15L1204.9,474.48z
			 M1205.38,470.05l-1.49-0.17l-0.27,2.48l1.49,0.16L1205.38,470.05z M1205.88,465.64l-1.49-0.18c-0.11,0.82-0.2,1.65-0.29,2.47
			l1.49,0.17C1205.69,467.28,1205.77,466.46,1205.88,465.64z M1203.59,487.81l-1.49-0.13l-0.23,2.48l1.49,0.13L1203.59,487.81z
			 M1204,483.37l-1.49-0.14l-0.23,2.48l1.49,0.14L1204,483.37z M1204.41,478.94l-1.49-0.15l-0.23,2.48l1.49,0.15L1204.41,478.94z
			 M1202.51,501.15l-1.5-0.11l-0.19,2.48l1.5,0.1L1202.51,501.15z M1202.84,496.71l-1.5-0.12l-0.19,2.48l1.5,0.11L1202.84,496.71z
			 M1203.18,492.28l-1.49-0.12l-0.19,2.48l1.5,0.12L1203.18,492.28z M1201.64,514.52l-1.5-0.09l-0.15,2.49l1.5,0.08L1201.64,514.52z
			 M1201.91,510.07l-1.5-0.09l-0.15,2.49l1.5,0.09L1201.91,510.07z M1202.18,505.63l-1.5-0.1l-0.15,2.49l1.5,0.1L1202.18,505.63z
			 M1200.97,527.89l-1.5-0.06l-0.12,2.49l1.5,0.06L1200.97,527.89z M1201.18,523.44l-1.5-0.07l-0.12,2.49l1.5,0.07L1201.18,523.44z
			 M1201.38,519l-1.5-0.08l-0.12,2.49l1.5,0.07L1201.38,519z M1200.48,541.27l-1.5-0.05l-0.08,2.49l1.5,0.04L1200.48,541.27z
			 M1200.63,536.82l-1.5-0.05l-0.08,2.49l1.5,0.05L1200.63,536.82z M1200.78,532.38l-1.5-0.06l-0.08,2.49l1.5,0.05L1200.78,532.38z
			 M1200.16,554.66l-1.5-0.03l-0.05,2.49l1.5,0.02L1200.16,554.66z M1200.25,550.21l-1.5-0.03l-0.05,2.49l1.5,0.03L1200.25,550.21z
			 M1200.34,545.76l-1.5-0.04l-0.05,2.49l1.5,0.04L1200.34,545.76z M1199.99,568.06l-1.5-0.01l-0.02,2.49l1.5,0.01L1199.99,568.06z
			 M1200.03,563.6l-1.5-0.02l-0.02,2.49l1.5,0.01L1200.03,563.6z M1200.07,559.15l-1.5-0.02l-0.02,2.49l1.5,0.02L1200.07,559.15z
			 M1199.96,581.45l-1.5,0l0,2.49l1.5-0.01L1199.96,581.45z M1199.96,576.99l-1.5,0l0,2.49l1.5,0L1199.96,576.99z M1199.95,572.55
			l-1.5-0.01l0,2.49l1.5,0L1199.95,572.55z M1200.06,594.84l-1.5,0.02l0.03,2.49l1.5-0.02L1200.06,594.84z M1200.01,590.38
			l-1.5,0.01l0.03,2.49l1.5-0.02L1200.01,590.38z M1199.97,585.94l-1.5,0.01l0.03,2.49l1.5-0.01L1199.97,585.94z M1200.28,608.24
			l-1.5,0.03l0.05,2.49l1.5-0.03L1200.28,608.24z M1200.19,603.78l-1.5,0.03l0.05,2.49l1.5-0.03L1200.19,603.78z M1200.11,599.33
			l-1.5,0.02l0.04,2.49l1.5-0.02L1200.11,599.33z M1200.6,621.63l-1.5,0.04l0.07,2.49l1.5-0.04L1200.6,621.63z M1200.48,617.17
			l-1.5,0.04l0.07,2.49l1.5-0.04L1200.48,617.17z M1200.37,612.73l-1.5,0.03l0.06,2.49l1.5-0.04L1200.37,612.73z M1201.02,635.02
			l-1.5,0.05l0.09,2.49l1.5-0.05L1201.02,635.02z M1200.86,630.56l-1.5,0.05l0.09,2.49l1.5-0.05L1200.86,630.56z M1200.73,626.12
			l-1.5,0.05l0.07,2.49l1.5-0.05L1200.73,626.12z M1201.52,648.4l-1.5,0.06l0.1,2.49l1.5-0.06L1201.52,648.4z M1201.34,643.95
			l-1.5,0.06l0.1,2.49l1.5-0.06L1201.34,643.95z M1201.18,639.51l-1.5,0.05l0.09,2.49l1.5-0.06L1201.18,639.51z M1202.1,661.79
			l-1.5,0.07l0.12,2.49l1.5-0.07L1202.1,661.79z M1201.89,657.33l-1.5,0.07l0.11,2.49l1.5-0.07L1201.89,657.33z M1201.71,652.89
			l-1.5,0.06l0.1,2.49l1.5-0.07L1201.71,652.89z M1202.75,675.17l-1.5,0.08l0.13,2.48l1.5-0.08L1202.75,675.17z M1202.53,670.71
			l-1.5,0.07l0.12,2.49l1.5-0.08L1202.53,670.71z M1202.32,666.27l-1.5,0.07l0.12,2.49l1.5-0.07L1202.32,666.27z M1203.46,688.55
			l-1.5,0.08l0.14,2.48l1.5-0.08L1203.46,688.55z M1203.22,684.09l-1.5,0.08l0.13,2.48l1.5-0.08L1203.22,684.09z M1202.99,679.65
			l-1.5,0.08l0.13,2.48l1.5-0.08L1202.99,679.65z M1204.23,701.92l-1.5,0.09l0.15,2.48l1.5-0.09L1204.23,701.92z M1203.97,697.47
			l-1.5,0.09l0.14,2.48l1.5-0.09L1203.97,697.47z M1203.72,693.03l-1.5,0.08l0.14,2.48l1.5-0.09L1203.72,693.03z M1205.04,715.31
			l-1.5,0.09l0.15,2.48l1.5-0.09L1205.04,715.31z M1204.77,710.85l-1.5,0.09l0.15,2.48l1.5-0.09L1204.77,710.85z M1204.49,706.42
			l-1.5,0.09l0.15,2.48l1.5-0.09L1204.49,706.42z M1205.89,728.67l-1.5,0.1l0.16,2.48l1.5-0.1L1205.89,728.67z M1205.6,724.21
			l-1.5,0.1l0.16,2.48l1.5-0.1L1205.6,724.21z M1205.32,719.78l-1.5,0.09l0.16,2.48l1.5-0.1L1205.32,719.78z M1206.77,742.03
			l-1.5,0.1l0.17,2.48l1.5-0.1L1206.77,742.03z M1206.47,737.58l-1.5,0.1l0.17,2.48l1.5-0.1L1206.47,737.58z M1206.18,733.15
			l-1.5,0.1l0.16,2.48l1.5-0.1L1206.18,733.15z M1207.68,755.4l-1.5,0.1l0.17,2.48l1.5-0.1L1207.68,755.4z M1207.38,750.95l-1.5,0.1
			l0.17,2.48l1.5-0.1L1207.38,750.95z M1207.08,746.52l-1.5,0.1l0.17,2.48l1.5-0.1L1207.08,746.52z M1208.61,768.77l-1.5,0.11
			l0.18,2.48l1.5-0.11L1208.61,768.77z M1208.3,764.32l-1.5,0.1l0.17,2.48l1.5-0.11L1208.3,764.32z M1207.99,759.88l-1.5,0.1
			l0.17,2.48l1.5-0.1L1207.99,759.88z M1209.56,782.13l-1.5,0.11l0.18,2.48l1.5-0.11L1209.56,782.13z M1209.25,777.68l-1.5,0.11
			l0.18,2.48l1.5-0.11L1209.25,777.68z M1208.93,773.25l-1.5,0.11l0.18,2.48l1.5-0.11L1208.93,773.25z M1210.52,795.5l-1.5,0.11
			l0.18,2.48l1.5-0.11L1210.52,795.5z M1210.2,791.05l-1.5,0.11l0.18,2.48l1.5-0.11L1210.2,791.05z M1209.88,786.62l-1.5,0.11
			l0.18,2.48l1.5-0.11L1209.88,786.62z"/>
	</g>
	<path class="st10" d="M891.5,283c3.96-12.04,6-22.19,9.5-34"/>
</g>
</svg>
