<svg width="15" height="15" viewBox="0 0 15 15" fill="none" xmlns="http://www.w3.org/2000/svg">
  <rect width="15" height="15" fill="black"/>
  <path d="M10.9006 5.35897L8.40323 3.09026C8.33977 3.03254 8.25365 3.00007 8.16387 3H7.04839C6.71903 3 6.40311 3.11886 6.17021 3.33045C5.9373 3.54202 5.80645 3.82898 5.80645 4.12821V4.64103H5.24194C4.91255 4.64103 4.59666 4.75989 4.36376 4.97147C4.13085 5.18305 4 5.47001 4 5.76923V9.87179C4 10.171 4.13085 10.458 4.36376 10.6695C4.59666 10.8811 4.91255 11 5.24194 11H8.40323C8.73259 11 9.04849 10.8811 9.28139 10.6695C9.51433 10.458 9.64516 10.171 9.64516 9.87179V9.35897H9.75806C10.0874 9.35897 10.4033 9.24012 10.6362 9.02851C10.8692 8.81694 11 8.52997 11 8.23077V5.5641C10.9964 5.48681 10.961 5.41358 10.9006 5.35897ZM8.51613 4.05026L9.84387 5.25641H8.51613V4.05026ZM8.96774 9.87179C8.96774 10.0078 8.90826 10.1383 8.80241 10.2344C8.69655 10.3306 8.55294 10.3846 8.40323 10.3846H5.24194C5.09222 10.3846 4.94863 10.3306 4.84276 10.2344C4.7369 10.1383 4.67742 10.0078 4.67742 9.87179V5.76923C4.67742 5.63322 4.7369 5.50279 4.84276 5.40661C4.94863 5.31044 5.09222 5.25641 5.24194 5.25641H5.80645V8.23077C5.80645 8.52997 5.9373 8.81694 6.17021 9.02851C6.40311 9.24012 6.71903 9.35897 7.04839 9.35897H8.96774V9.87179ZM9.75806 8.74359H7.04839C6.89868 8.74359 6.75506 8.68956 6.64921 8.59339C6.54335 8.49723 6.48387 8.36677 6.48387 8.23077V4.12821C6.48387 3.9922 6.54335 3.86176 6.64921 3.76559C6.75506 3.66942 6.89868 3.61538 7.04839 3.61538H7.83871V5.5641C7.83988 5.64538 7.87592 5.72302 7.93919 5.7805C8.00246 5.83797 8.08795 5.87073 8.17742 5.87179H10.3226V8.23077C10.3226 8.36677 10.2631 8.49723 10.1572 8.59339C10.0514 8.68956 9.90777 8.74359 9.75806 8.74359Z" fill="white"/>
</svg>