<svg width="15" height="15" viewBox="0 0 15 15" fill="none" xmlns="http://www.w3.org/2000/svg">
  <rect width="15" height="15" fill="black"/>
  <path d="M4.22675 9.46978C4.51494 10.2446 5.06118 10.9098 5.78315 11.3651C6.50512 11.8203 7.36374 12.0409 8.22956 11.9937C9.09543 11.9465 9.92165 11.634 10.5837 11.1033C11.2458 10.5726 11.7078 9.85247 11.9003 9.05138C12.0927 8.25028 12.0051 7.41163 11.6507 6.6618C11.2962 5.91196 10.6941 5.29156 9.93507 4.89408C9.17605 4.49659 8.3012 4.34355 7.4424 4.45802C5.99241 4.65127 5.03443 5.64692 4 6.52632M4 6.52632V4M4 6.52632H6.66667" stroke="white" stroke-width="0.8" stroke-linecap="round" stroke-linejoin="round"/>
</svg>