<svg width="149" height="19" viewBox="0 0 149 19" fill="none" xmlns="http://www.w3.org/2000/svg">
<path d="M18.7407 2.3047V5.9809C18.7407 5.23281 18.3883 4.56407 17.8373 4.14469C17.4549 3.84999 16.975 3.67241 16.4539 3.67241H4.06755V7.35239H14.1221C14.5082 7.35239 14.8231 7.66975 14.8231 8.05891V10.3183C14.8231 10.7074 14.5082 11.0248 14.1221 11.0248H4.06755V18.7928H2.28683C1.02345 18.7928 0 17.7613 0 16.4881V2.3047C0 1.03145 1.02345 0 2.28683 0H16.4539C17.7173 0 18.7407 1.03145 18.7407 2.3047Z" fill="white"/>
<path d="M18.7404 12.5292V16.4887C18.7404 17.762 17.717 18.7934 16.4536 18.7934H7.99609V14.8339H16.4536C16.8847 14.8339 17.2859 14.713 17.6308 14.5052C18.2981 14.1009 18.7442 13.3679 18.7442 12.5254L18.7404 12.5292Z" fill="white"/>
<path d="M32.3239 4.07225H25.426V7.97136H31.7804C32.249 7.97136 32.5976 8.08093 32.8263 8.30006C33.055 8.5192 33.1712 8.81012 33.1712 9.17283C33.1712 9.53554 33.0587 9.82646 32.83 10.0569C32.6014 10.2836 32.2527 10.397 31.7766 10.397H25.4222V14.9119H32.5601C33.04 14.9119 33.4036 15.029 33.6473 15.2633C33.891 15.4975 34.0147 15.8111 34.0147 16.2003C34.0147 16.5894 33.891 16.8804 33.6473 17.1146C33.4036 17.3489 33.04 17.466 32.5601 17.466H24.2376C23.5703 17.466 23.0904 17.3111 22.798 17.0013C22.5056 16.6915 22.3594 16.189 22.3594 15.4975V3.56597C22.3594 3.10503 22.4231 2.72721 22.5543 2.43251C22.6855 2.14159 22.888 1.92623 23.1691 1.79399C23.4466 1.66176 23.8027 1.59375 24.2376 1.59375H32.3239C32.8113 1.59375 33.1749 1.7071 33.4111 1.93379C33.6473 2.16048 33.7673 2.45896 33.7673 2.82544C33.7673 3.19193 33.6473 3.50174 33.4111 3.72844C33.1749 3.95513 32.8113 4.06847 32.3239 4.06847V4.07225Z" fill="white"/>
<path d="M39.8661 15.0744L37.4443 4.96013V15.9169C37.4443 16.5214 37.3169 16.9786 37.0582 17.2809C36.7995 17.5831 36.4584 17.7342 36.031 17.7342C35.6036 17.7342 35.2812 17.5831 35.0188 17.2846C34.7564 16.9862 34.6289 16.529 34.6289 15.9131V3.35817C34.6289 2.66676 34.8014 2.19826 35.1463 1.95646C35.4912 1.71465 35.956 1.59375 36.5371 1.59375H37.4856C38.0554 1.59375 38.4715 1.64664 38.7265 1.75621C38.9814 1.86578 39.1763 2.05847 39.3 2.34183C39.4237 2.6252 39.5662 3.08236 39.7237 3.7171L41.9205 12.4145L44.1174 3.7171C44.2748 3.08236 44.4173 2.6252 44.541 2.34183C44.6647 2.05847 44.8559 1.86578 45.1146 1.75621C45.3732 1.64664 45.7856 1.59375 46.3555 1.59375H47.3039C47.8888 1.59375 48.3536 1.71465 48.6948 1.95646C49.0359 2.19826 49.2121 2.66676 49.2121 3.35817V15.9207C49.2121 16.5252 49.0847 16.9824 48.826 17.2846C48.5673 17.5869 48.2224 17.738 47.7913 17.738C47.3864 17.738 47.0528 17.5869 46.7903 17.2846C46.5279 16.9824 46.4004 16.5252 46.4004 15.9207V4.96013L43.9787 15.0744C43.8212 15.7318 43.69 16.2116 43.5925 16.5214C43.4913 16.8275 43.3076 17.1071 43.0414 17.3602C42.7715 17.6133 42.4004 17.738 41.928 17.738C41.5719 17.738 41.2682 17.6587 41.0208 17.4962C40.7733 17.3337 40.5822 17.1259 40.4434 16.8728C40.3047 16.6197 40.196 16.3401 40.1173 16.034C40.0386 15.728 39.9561 15.4069 39.8736 15.0744H39.8661Z" fill="white"/>
<path d="M56.5348 11.285H53.7307V15.7773C53.7307 16.4196 53.5882 16.9069 53.2958 17.2394C53.0071 17.5719 52.6435 17.7381 52.2011 17.7381C51.7587 17.7381 51.3689 17.5757 51.0877 17.247C50.8065 16.9183 50.6641 16.4347 50.6641 15.7999V3.5661C50.6641 2.85958 50.8178 2.3533 51.1289 2.05104C51.4401 1.74878 51.9312 1.59766 52.6022 1.59766H56.5311C57.6932 1.59766 58.5855 1.69211 59.2116 1.88102C59.8301 2.06238 60.3662 2.36085 60.8161 2.78023C61.2659 3.19961 61.6071 3.71345 61.8433 4.31796C62.0795 4.92248 62.1957 5.60633 62.1957 6.36575C62.1957 7.98282 61.7196 9.20696 60.7711 10.0419C59.8226 10.8769 58.4093 11.2925 56.5311 11.2925L56.5348 11.285ZM55.7926 4.00815H53.7307V8.85937H55.7926C56.5161 8.85937 57.1197 8.78002 57.6033 8.62134C58.0869 8.46265 58.458 8.20196 58.7129 7.84303C58.9679 7.48032 59.0953 7.00805 59.0953 6.4262C59.0953 5.72723 58.9004 5.15672 58.5068 4.71467C58.0681 4.24618 57.1647 4.01193 55.7963 4.01193L55.7926 4.00815Z" fill="white"/>
<path d="M63.1836 15.7815V3.27182C63.1836 2.62197 63.3261 2.13458 63.6072 1.80965C63.8884 1.48473 64.252 1.32227 64.7019 1.32227C65.1518 1.32227 65.5342 1.48473 65.8191 1.80588C66.104 2.12702 66.2464 2.61819 66.2464 3.27182V15.7815C66.2464 16.4389 66.104 16.93 65.8191 17.255C65.5342 17.5799 65.1593 17.7423 64.7019 17.7423C64.2445 17.7423 63.8996 17.5799 63.6147 17.2512C63.3298 16.9225 63.1873 16.4351 63.1873 15.7852L63.1836 15.7815Z" fill="white"/>
<path d="M72.096 10.6805H71.0238V15.781C71.0238 16.4536 70.8813 16.9485 70.6002 17.2659C70.319 17.5832 69.9516 17.7419 69.498 17.7419C69.0106 17.7419 68.632 17.5757 68.3621 17.2432C68.0959 16.9107 67.9609 16.4233 67.9609 15.781V3.5661C67.9609 2.87469 68.1071 2.37219 68.4033 2.06238C68.6995 1.75256 69.1756 1.59766 69.8354 1.59766H74.8177C75.5037 1.59766 76.0923 1.62788 76.5797 1.68833C77.067 1.74878 77.5094 1.87347 77.8993 2.06238C78.3716 2.27018 78.7915 2.57243 79.1589 2.96159C79.5225 3.35074 79.8 3.80413 79.9874 4.32174C80.1749 4.83936 80.2723 5.38342 80.2723 5.96148C80.2723 7.14406 79.9537 8.09239 79.3201 8.79891C78.6865 9.50544 77.7193 10.0079 76.426 10.3026C76.9695 10.6049 77.4869 11.0545 77.9817 11.6439C78.4766 12.2371 78.919 12.8643 79.3089 13.533C79.6987 14.2017 79.9987 14.8025 80.2161 15.3428C80.4335 15.8793 80.5422 16.2495 80.5422 16.4536C80.5422 16.6576 80.4785 16.8692 80.351 17.077C80.2236 17.281 80.0511 17.4434 79.83 17.5643C79.6088 17.6852 79.3538 17.7419 79.0652 17.7419C78.7203 17.7419 78.4316 17.6588 78.1992 17.4888C77.9667 17.3188 77.7643 17.1034 77.5956 16.8427C77.4269 16.582 77.1982 16.2004 76.9096 15.6941L75.6837 13.5519C75.245 12.766 74.8514 12.1653 74.5028 11.7535C74.1541 11.3416 73.8017 11.0621 73.4456 10.9072C73.0894 10.756 72.6358 10.6805 72.096 10.6805ZM73.8505 4.00815H71.0238V8.37198H73.768C74.5028 8.37198 75.1213 8.30397 75.6237 8.17173C76.126 8.03949 76.5084 7.80902 76.7746 7.48788C77.0408 7.16673 77.172 6.72468 77.172 6.16173C77.172 5.71968 77.0633 5.3343 76.8533 4.99804C76.6434 4.66178 76.3435 4.41242 75.9648 4.24618C75.6087 4.08749 74.9039 4.00815 73.8505 4.00815Z" fill="white"/>
<path d="M91.445 4.07225H84.5471V7.97136H90.9015C91.3701 7.97136 91.7187 8.08093 91.9474 8.30006C92.1798 8.5192 92.2923 8.81012 92.2923 9.17283C92.2923 9.53554 92.1798 9.82646 91.9511 10.0569C91.7225 10.2836 91.3738 10.397 90.8977 10.397H84.5433V14.9119H91.6812C92.1611 14.9119 92.5247 15.029 92.7684 15.2633C93.0121 15.4975 93.1358 15.8111 93.1358 16.2003C93.1358 16.5894 93.0121 16.8804 92.7684 17.1146C92.5247 17.3489 92.1611 17.466 91.6812 17.466H83.3587C82.6914 17.466 82.2115 17.3111 81.9191 17.0013C81.6267 16.6915 81.4805 16.189 81.4805 15.4975V3.56597C81.4805 3.10503 81.5442 2.72721 81.6754 2.43251C81.8066 2.14159 82.0091 1.92623 82.2902 1.79399C82.5677 1.66176 82.9238 1.59375 83.3587 1.59375H91.445C91.9324 1.59375 92.296 1.7071 92.5322 1.93379C92.7684 2.16048 92.8884 2.45896 92.8884 2.82544C92.8884 3.19193 92.7684 3.50174 92.5322 3.72844C92.296 3.95513 91.9324 4.06847 91.445 4.06847V4.07225Z" fill="white"/>
<path d="M103.34 11.285H100.536V15.7773C100.536 16.4196 100.393 16.9069 100.104 17.2394C99.8157 17.5719 99.4521 17.7381 99.0097 17.7381C98.5673 17.7381 98.1775 17.5757 97.8963 17.247C97.6151 16.9183 97.4727 16.4347 97.4727 15.7999V3.5661C97.4727 2.85958 97.6264 2.3533 97.9375 2.05104C98.2487 1.74878 98.7398 1.59766 99.4108 1.59766H103.34C104.502 1.59766 105.394 1.69211 106.02 1.88102C106.639 2.06238 107.175 2.36085 107.625 2.78023C108.075 3.19961 108.419 3.71345 108.652 4.31796C108.884 4.92248 109.004 5.60633 109.004 6.36575C109.004 7.98282 108.528 9.20696 107.58 10.0419C106.631 10.8769 105.218 11.2925 103.34 11.2925V11.285ZM102.597 4.00815H100.536V8.85937H102.597C103.321 8.85937 103.925 8.78002 104.408 8.62134C104.892 8.46265 105.263 8.20196 105.518 7.84303C105.773 7.48032 105.9 7.00805 105.9 6.4262C105.9 5.72723 105.705 5.15672 105.312 4.71467C104.873 4.24618 103.969 4.01193 102.601 4.01193L102.597 4.00815Z" fill="white"/>
<path d="M109.992 15.7815V3.27182C109.992 2.62197 110.135 2.13458 110.416 1.80965C110.697 1.48473 111.061 1.32227 111.51 1.32227C111.96 1.32227 112.343 1.48473 112.628 1.80588C112.913 2.12702 113.055 2.61819 113.055 3.27182V15.7815C113.055 16.4389 112.913 16.93 112.628 17.255C112.343 17.5799 111.968 17.7423 111.51 17.7423C111.053 17.7423 110.708 17.5799 110.423 17.2512C110.138 16.9225 109.996 16.4351 109.996 15.7852L109.992 15.7815Z" fill="white"/>
<path d="M114.234 14.3836L117.615 9.19617L114.77 4.58298C114.5 4.13716 114.301 3.75178 114.166 3.43063C114.031 3.10948 113.964 2.79967 113.964 2.50497C113.964 2.21027 114.091 1.93068 114.35 1.68888C114.609 1.44707 114.924 1.32617 115.295 1.32617C115.722 1.32617 116.052 1.45841 116.288 1.72288C116.524 1.98736 116.854 2.47475 117.274 3.18883L119.542 7.04259L121.964 3.18883C122.163 2.8639 122.331 2.58431 122.474 2.35384C122.616 2.12337 122.751 1.93068 122.883 1.77956C123.014 1.62843 123.16 1.51508 123.321 1.43952C123.482 1.36395 123.67 1.32617 123.884 1.32617C124.27 1.32617 124.585 1.44707 124.828 1.68888C125.072 1.93068 125.196 2.21783 125.196 2.55031C125.196 3.03392 124.929 3.69133 124.401 4.52253L121.42 9.19995L124.626 14.3874C124.914 14.8408 125.124 15.2186 125.256 15.5209C125.387 15.8194 125.451 16.1027 125.451 16.371C125.451 16.6241 125.391 16.8546 125.274 17.0624C125.158 17.2702 124.993 17.4364 124.779 17.5611C124.566 17.682 124.326 17.7462 124.056 17.7462C123.767 17.7462 123.524 17.682 123.325 17.5573C123.126 17.4327 122.965 17.274 122.841 17.0851C122.718 16.8962 122.485 16.5334 122.152 15.9894L119.49 11.5916L116.663 16.1178C116.442 16.4805 116.288 16.7299 116.195 16.8773C116.101 17.0208 115.992 17.1606 115.861 17.3004C115.73 17.4364 115.576 17.546 115.396 17.6253C115.216 17.7047 115.006 17.7425 114.766 17.7425C114.395 17.7425 114.088 17.6253 113.844 17.3835C113.6 17.1455 113.477 16.7979 113.477 16.3445C113.477 15.8118 113.728 15.1582 114.23 14.3836H114.234Z" fill="white"/>
<path d="M135.82 4.07225H128.922V7.97136H135.276C135.745 7.97136 136.094 8.08093 136.322 8.30006C136.555 8.5192 136.667 8.81012 136.667 9.17283C136.667 9.53554 136.555 9.82646 136.326 10.0569C136.097 10.2836 135.749 10.397 135.273 10.397H128.918V14.9119H136.056C136.536 14.9119 136.9 15.029 137.143 15.2633C137.387 15.4975 137.511 15.8111 137.511 16.2003C137.511 16.5894 137.387 16.8804 137.143 17.1146C136.9 17.3489 136.536 17.466 136.056 17.466H127.734C127.066 17.466 126.587 17.3111 126.294 17.0013C126.002 16.6915 125.855 16.189 125.855 15.4975V3.56597C125.855 3.10503 125.919 2.72721 126.05 2.43251C126.182 2.14159 126.384 1.92623 126.665 1.79399C126.943 1.66176 127.299 1.59375 127.734 1.59375H135.82C136.307 1.59375 136.671 1.7071 136.907 1.93379C137.143 2.16048 137.263 2.45896 137.263 2.82544C137.263 3.19193 137.143 3.50174 136.907 3.72844C136.671 3.95513 136.307 4.06847 135.82 4.06847V4.07225Z" fill="white"/>
<path d="M141.254 3.27182V14.8256H147.463C147.957 14.8256 148.336 14.9502 148.602 15.2034C148.868 15.4565 149 15.7739 149 16.1555C149 16.5371 148.868 16.862 148.61 17.1038C148.351 17.3456 147.969 17.4665 147.466 17.4665H140.074C139.406 17.4665 138.926 17.3116 138.634 17.0018C138.342 16.692 138.195 16.1895 138.195 15.4981V3.27182C138.195 2.62197 138.334 2.13458 138.611 1.80965C138.889 1.48473 139.256 1.32227 139.71 1.32227C140.163 1.32227 140.542 1.48473 140.827 1.80588C141.112 2.12702 141.254 2.61819 141.254 3.27182Z" fill="white"/>
</svg>
