<svg width="65" height="64" viewBox="0 0 65 64" fill="none" xmlns="http://www.w3.org/2000/svg">
<path d="M26.9805 33.5277H32.4937V26.8699L26.9805 24.1309V33.5277Z" fill="white"/>
<path d="M34.3936 23.9172H32.487V26.4487L21.6344 21.0049L21.9114 20.4845L15.6016 17.4685L15.8442 17.0176L31.6202 24.5413V23.9866L26.9737 21.7328V20.277L34.3936 23.9172Z" fill="white"/>
<path d="M44.3105 23.8826H40.1492L21.4258 15.145L26.9734 15.4571V10.2559H45.9051V15.0756H32.4866V19.2712L45.0384 19.3406V23.1196L49.234 25.0614V25.6161L40.2537 21.525V22.0797L44.3105 23.8826Z" fill="white"/>
<path d="M0 38.4824H13.9037L13.1064 41.4641H2.73908L0 38.4824Z" fill="white"/>
<path d="M2.53211 42.4336H11.7901L11.2697 44.5135H6.13793L5.13233 48.397H0.9375L2.53211 42.4336Z" fill="white"/>
<path d="M14.979 38.4824H19.1739L16.5736 48.3988H12.3086L14.979 38.4824Z" fill="white"/>
<path d="M17.9258 47.2895L19.937 39.5918L21.3241 38.4824H30.6507L29.8885 41.4641H23.6474L23.3353 42.4354H28.5357L27.9116 44.5153L22.8844 44.4115L22.5723 45.4171H28.744L27.981 48.3988H18.6193L17.9258 47.2895Z" fill="white"/>
<path d="M41.7149 39.4166L40.9871 38.4805H31.7642L29.1289 48.3969H33.1856L34.0524 45.4152H36.0979L35.1961 48.3969H39.4954L40.4316 44.4096L39.7381 43.4391L41.0557 42.4335L41.7149 39.4166ZM36.9303 42.5029H34.8154L35.058 41.3935H37.173L36.9303 42.5029Z" fill="white"/>
<path d="M40.8672 47.4166L42.901 39.4646L44.1492 38.4824H52.471L53.1646 39.4646L52.471 42.5048H48.3566L48.5875 41.3947H46.5997L45.4903 45.4288L47.5702 45.3828L47.8479 44.4575L51.8695 44.5043L51.2228 47.4166L49.8817 48.3988H41.7105L40.8672 47.4166Z" fill="white"/>
<path d="M52.3203 47.4283L54.3658 39.5918L55.6835 38.4824H64.9758L64.2136 41.3947H58.0068L57.7298 42.5048H62.8959L62.4107 44.4809H57.14L56.8623 45.3828H63.1729L62.4107 48.3988H53.1644L52.3203 47.4283Z" fill="white"/>
<path d="M8.45703 53.7734V50.9648H10.1905V51.6584H9.08115V52.0399H10.0173V52.6289H9.09285V53.7734H8.45703Z" fill="white"/>
<path d="M13.9394 50.9648H13.0898V53.7734H13.9394V50.9648Z" fill="white"/>
<path d="M18.756 51.8101L18.9643 51.3592C18.9643 51.3592 18.6047 50.9605 17.9587 51.0814C17.2301 51.218 16.9531 51.8241 16.9531 52.4654C16.9531 53.1067 17.1669 53.7831 17.9299 53.7831C18.6928 53.7831 18.9121 53.549 18.9643 53.5085V52.2602H17.9587V52.7455H18.444V53.1964C18.444 53.1964 18.2216 53.3407 17.915 53.2947C17.525 53.2362 17.5078 52.772 17.5078 52.4365C17.5078 52.0863 17.5687 51.7009 17.9587 51.6096C18.3301 51.5246 18.5353 51.672 18.756 51.8101Z" fill="white"/>
<path d="M39.1076 51.8101L39.3159 51.3592C39.3159 51.3592 38.9562 50.9605 38.3103 51.0814C37.5816 51.218 37.3047 51.8241 37.3047 52.4654C37.3047 53.1067 37.5184 53.7831 38.2814 53.7831C39.0444 53.7831 39.2636 53.549 39.3159 53.5085V52.2602H38.3103V52.7455H38.7955V53.1964C38.7955 53.1964 38.5732 53.3407 38.2666 53.2947C37.8765 53.2362 37.8594 52.772 37.8594 52.4365C37.8594 52.0863 37.9202 51.7009 38.3103 51.6096C38.6816 51.5246 38.8868 51.672 39.1076 51.8101Z" fill="white"/>
<path d="M22.7812 53.7691V51.002H23.474V52.0356H24.2893V51.002H24.9657V53.7691H24.2893V52.6941H23.474V53.7691H22.7812Z" fill="white"/>
<path d="M28.293 51.6659H29.0099V53.7691H29.6801V51.6659H30.4196V51.002H28.293V51.6659Z" fill="white"/>
<path d="M42.8555 53.7691V51.002H44.7044V51.6659H43.595V52.1277H44.7044V52.6598H43.595V53.1622H44.7044V53.7691H42.8555Z" fill="white"/>
<path d="M49.6054 51.0059H48.929L47.9062 53.773H48.6341L48.9119 53.0795H49.536L49.7092 53.773H50.5065L49.6054 51.0059ZM49.0219 52.5825L49.2411 51.9818L49.4603 52.5825H49.0219Z" fill="white"/>
<path d="M55.6376 52.751C55.6376 52.751 56.0713 52.5833 56.0713 51.8492C56.0713 51.4505 55.6555 51.0059 55.3255 51.0059C54.8231 51.0059 54.043 51.0059 54.043 51.0059V53.773H54.7365V52.9235H54.9612L55.4987 53.773H56.3826L55.6376 52.751ZM55.1843 52.283C54.9503 52.283 54.7357 52.283 54.7357 52.283V51.6588C54.7357 51.6588 54.9745 51.6588 55.1906 51.6588C55.3903 51.6588 55.4293 51.8843 55.4293 51.9709C55.4293 52.0879 55.377 52.283 55.1843 52.283Z" fill="white"/>
<path d="M1.96665 31.9991C1.96665 15.1722 15.6566 1.48227 32.4835 1.48227C49.3104 1.48227 63.0003 15.1722 63.0003 31.9991C63.0003 33.7716 62.8482 35.5098 62.5564 37.2003H64.0637C64.3422 35.4934 64.4826 33.7568 64.4826 31.9991C64.4826 27.6795 63.6362 23.4893 61.9674 19.5434C60.3557 15.7331 58.0488 12.3107 55.11 9.37263C52.1712 6.43384 48.7495 4.12696 44.9393 2.51518C40.9941 0.846455 36.8031 0 32.4835 0C28.1638 0 23.9737 0.846455 20.0277 2.51518C16.2175 4.12696 12.795 6.43384 9.85701 9.37263C6.91821 12.3114 4.61133 15.7331 2.99956 19.5434C1.33083 23.4885 0.484375 27.6795 0.484375 31.9991C0.484375 33.7568 0.6248 35.4926 0.903311 37.2003H2.41055C2.11955 35.5098 1.96665 33.7716 1.96665 31.9991Z" fill="white"/>
<path d="M32.4793 62.5178C24.7933 62.5178 17.7627 59.6617 12.3914 54.9551H10.1875C13.0506 57.7371 16.3561 59.9347 20.0235 61.4857C23.9687 63.1544 28.1597 64.0008 32.4793 64.0008C36.799 64.0008 40.9891 63.1544 44.9351 61.4857C48.6025 59.9347 51.9088 57.7378 54.7711 54.9551H52.5672C47.1959 59.6609 40.1653 62.5178 32.4793 62.5178Z" fill="white"/>
</svg>
